<svg width="51" height="40" fill="none" xmlns="http://www.w3.org/2000/svg"><path fill-rule="evenodd" clip-rule="evenodd" d="M.157 29.674c.24.312.608.384.622.387l48.04 9.798c.006.001.504.118.909-.212.404-.329.31-.804.31-.804l-6.252-37.08a.959.959 0 00-.448-.644c-.395-.239-.965-.051-.965-.051L7.179 15.118c-.132.065-.336.127-.507.452-.17.325-6.494 13.076-6.582 13.256-.09.182-.172.537.067.848zm45.586 6.436l-20.05-11.145 10.339-2.159 9.71 13.304zM8.047 17.227L20.57 24.21 2.736 27.924l5.311-10.697zm1.662-1.172L41.24 3.468l-5.558 17.587L23.31 23.64l-13.6-7.584zM47.363 35.05l-9.779-13.397 4.903-15.52 4.876 28.917zm-3.886 1.898l-38.05-7.76 17.522-3.65 20.528 11.41z" fill="#A3BBC8"/></svg>