<svg width="73" height="52" fill="none" xmlns="http://www.w3.org/2000/svg"><path fill-rule="evenodd" clip-rule="evenodd" d="M55.5 17.625c9.32 0 16.875 7.555 16.875 16.875S64.82 51.375 55.5 51.375 38.625 43.82 38.625 34.5 46.18 17.625 55.5 17.625z" fill="#A3BBC8"/><path fill-rule="evenodd" clip-rule="evenodd" d="M57.862 10.407l1.658 6.55c2.533.381 4.48 2.547 4.48 5.155v10.561c0 .547-.449.99-1.002.99h-3.276v.017l.001.014.001.035c0 3.458-2.847 6.27-6.346 6.27-3.5 0-6.347-2.812-6.347-6.27l.001-.035v-.031H24.45v.02l.001.01v.037c0 3.458-2.846 6.27-6.346 6.27-3.499 0-6.346-2.812-6.346-6.27v-.037l.002-.03H6.347c-1.142 0-2.071-.918-2.071-2.046v-2.178H1.002A.996.996 0 010 28.449c0-.547.449-.99 1.002-.99h9.62a.996.996 0 011.002.99c0 .546-.449.99-1.002.99H6.28v2.178c0 .037.03.066.067.066h5.76a6.35 6.35 0 015.997-4.224 6.351 6.351 0 015.998 4.224h20.791v-7.459c0-.547.449-.99 1.002-.99a.996.996 0 011.002.99v7.46h.483a6.351 6.351 0 015.998-4.225 6.351 6.351 0 015.997 4.224h2.62v-4.356H60.86c-1.731 0-3.14-1.392-3.14-3.103v-2.112c0-.547.449-.99 1.002-.99h3.116a3.275 3.275 0 00-3.114-2.244H46.898V20c0 .547-.45.99-1.003.99a.996.996 0 01-1.002-.99V2.046a.066.066 0 00-.066-.066H6.347a.066.066 0 00-.067.066V20c0 .547-.449.99-1.002.99A.996.996 0 014.276 20V2.046C4.276.918 5.205 0 6.346 0h38.48c1.143 0 2.072.918 2.072 2.046v2.178h7.549c2.32 0 4.209 1.866 4.209 4.159v1.056c0 .476-.34.873-.794.968zm-3.415-4.202h-7.55v2.244h9.754v-.066c0-1.201-.989-2.178-2.204-2.178zm-7.55 4.224v6.469H57.44l-1.637-6.469h-8.904zm-33.135 23.3c0 2.366 1.948 4.29 4.342 4.29 2.395 0 4.343-1.924 4.343-4.29s-1.948-4.29-4.343-4.29c-2.394 0-4.342 1.924-4.342 4.29zm35.273 0c0 2.366 1.949 4.29 4.343 4.29s4.342-1.924 4.342-4.29-1.948-4.29-4.342-4.29c-2.394 0-4.343 1.924-4.343 4.29zm11.825-8.382h1.136v-2.245h-2.272v1.122c0 .62.51 1.123 1.136 1.123zm-44.827 8.382c0-1.128.93-2.046 2.071-2.046 1.143 0 2.071.918 2.071 2.046 0 1.129-.928 2.047-2.07 2.047-1.143 0-2.072-.918-2.072-2.047zm37.345-2.046c-1.142 0-2.071.918-2.071 2.046 0 1.129.929 2.047 2.07 2.047 1.143 0 2.072-.918 2.072-2.047 0-1.128-.93-2.046-2.071-2.046zM26.655 27.46H41.62a.996.996 0 011.002.99c0 .547-.449.99-1.002.99H26.655a.996.996 0 01-1.002-.99c0-.547.45-.99 1.002-.99zm-10.688-4.225H3.14a.996.996 0 00-1.002.99c0 .547.448.99 1.002.99h12.827a.996.996 0 001.002-.99.996.996 0 00-1.002-.99zm17.462-13.44a1.01 1.01 0 011.417 0 .982.982 0 010 1.401l-9.62 9.505a1 1 0 01-.708.29c-.257 0-.513-.096-.709-.29l-5.344-5.28a.982.982 0 010-1.4 1.011 1.011 0 011.417 0l4.636 4.58 8.911-8.805z" fill="#243F4D"/></svg>