<svg width="54" height="53" fill="none" xmlns="http://www.w3.org/2000/svg"><path fill-rule="evenodd" clip-rule="evenodd" d="M45.59 32.151a.836.836 0 111.671 0v8.265a3.84 3.84 0 01-3.834 3.838H4.092a3.84 3.84 0 01-3.834-3.837v-23.62a3.841 3.841 0 013.834-3.839h25.129a.836.836 0 010 1.673H4.091a2.167 2.167 0 00-2.163 2.166v2.884h9.869a.836.836 0 010 1.673H1.929v5.47h27.292a.837.837 0 010 1.673H1.928v11.92c0 1.193.97 2.165 2.163 2.165h39.335a2.167 2.167 0 002.163-2.166v-8.265zm-30.586-12.47h14.217a.836.836 0 010 1.674H15.004a.836.836 0 010-1.674zm4.978 11.555H5.71a.837.837 0 000 1.674h14.27a.836.836 0 000-1.674zM5.71 35.228h8.185a.836.836 0 010 1.673H5.71a.836.836 0 010-1.673zm42.823-13.607a.836.836 0 00.836-.837v-4.773a3.048 3.048 0 00-2.394-2.974V7.021c0-3.64-2.958-6.603-6.595-6.603-3.636 0-6.595 2.962-6.595 6.603v6.016a3.048 3.048 0 00-2.393 2.975v10.747a3.046 3.046 0 003.041 3.044H46.33a3.047 3.047 0 003.041-3.044v-3.186a.836.836 0 10-1.672 0v3.186a1.37 1.37 0 01-1.37 1.37H34.434c-.755 0-1.37-.614-1.37-1.37V16.01c0-.755.615-1.37 1.37-1.37H46.33c.755 0 1.37.614 1.37 1.37v4.773c0 .462.374.837.835.837zm-3.23-8.654h-9.846V7.021a4.931 4.931 0 014.923-4.929 4.931 4.931 0 014.923 4.929v5.946zm-4.922 4.322a3.097 3.097 0 00-3.093 3.095c0 1.417.957 2.613 2.257 2.98v2.04a.835.835 0 101.671 0v-2.04a3.099 3.099 0 002.257-2.98 3.097 3.097 0 00-3.092-3.095zm0 4.517a1.423 1.423 0 010-2.844 1.423 1.423 0 010 2.844z" fill="#A3BBC8"/><path opacity=".34" fill-rule="evenodd" clip-rule="evenodd" d="M44 33.062c5.42 0 9.813 4.386 9.813 9.797 0 5.41-4.394 9.797-9.813 9.797-5.42 0-9.813-4.386-9.813-9.797 0-5.41 4.394-9.797 9.813-9.797z" fill="#A3BBC8"/></svg>