<svg width="23" height="15" fill="none" xmlns="http://www.w3.org/2000/svg"><path fill-rule="evenodd" clip-rule="evenodd" d="M2.928 12.99c1.134.835 2.414 1.277 3.823 1.36a7.735 7.735 0 002.356-.235c1.44-.373 2.647-1.126 3.554-2.32 1.311-1.734 1.639-3.95 1.275-6.057H7.182l-.007.117-.014 1.79-.007.98H11c-.002.283-.35 1.43-1.425 2.161-.64.422-1.345.622-2.098.67a4.73 4.73 0 01-.298.01c-.425 0-.847-.061-1.254-.19C4.327 10.76 3.143 9.31 2.99 7.542a3.941 3.941 0 01.1-1.298C3.538 4.34 5.22 2.89 7.226 2.89c.201 0 .406.015.613.044 1 .153 1.577.566 2.099 1.016.365-.36.727-.718 1.09-1.08l1.017-1.006c-.042-.03-.1-.08-.172-.142-.217-.185-.572-.49-1.097-.79a6.74 6.74 0 00-3.868-.92l-.213.009a5.8 5.8 0 00-1.19.186A7.123 7.123 0 001.64 2.665 7.044 7.044 0 00.02 6.767a6.496 6.496 0 00.138 1.934c.387 1.774 1.308 3.211 2.77 4.288zm15.33-2.694h1.893v-.07l.02-2.43h2.504V7.72l.015-1.816v-.07h-2.505l.018-2.437v-.069h-1.959v.07l-.02 2.437h-2.506v.069l-.014 1.816-.001.076h2.505l-.018 2.43v.07h.069z" fill="#888"/></svg>