<svg width="44" height="40" fill="none" xmlns="http://www.w3.org/2000/svg"><path fill-rule="evenodd" clip-rule="evenodd" d="M37.87 9.648V2.522c0-.785-.393-1.49-1.052-1.887A2.07 2.07 0 0034.69.614c-6.402 3.677-13.367 5.825-20.7 6.383-.056.004-6.684.034-6.684.034-1.665 0-3.04 1.291-3.231 2.949h-1.36c-1.49 0-2.702 1.245-2.702 2.774v6.095c0 1.53 1.212 2.775 2.701 2.775h1.36a3.342 3.342 0 001.92 2.664l4.84 13.723a2.123 2.123 0 001.986 1.428h4.858a2.1 2.1 0 001.731-.925c.395-.58.49-1.323.255-1.986l-4.159-11.785c6.778.724 13.225 2.82 19.185 6.244.33.19.688.283 1.046.283.372 0 .744-.101 1.08-.304a2.18 2.18 0 001.052-1.888v-7.125c2.965-.394 5.263-3.002 5.263-6.153 0-3.15-2.298-5.758-5.262-6.152zM4.052 19.484H2.715a.627.627 0 01-.618-.635v-6.095c0-.35.278-.634.618-.634h1.337v7.364zm2.777 2.844a1.205 1.205 0 01-.693-1.098V10.374c0-.663.525-1.203 1.17-1.203h5.671v13.262s-5.72-.002-5.745-.004a1.063 1.063 0 01-.403-.101zm10.878 14.93c.003.009.006.015-.004.028-.009.013-.015.013-.024.013h-4.858a.03.03 0 01-.027-.018L8.31 24.573h4.92l4.477 12.685zm18.079-8.179c0 .015 0 .028-.022.041-.027.016-.043.007-.056 0-6.403-3.678-13.345-5.886-20.648-6.57V9.051c7.303-.686 14.245-2.893 20.648-6.571.013-.007.03-.016.056 0 .022.013.022.025.022.04v26.56zm2.084-9.292v-7.973c1.81.372 3.179 2.018 3.179 3.986 0 1.968-1.369 3.614-3.18 3.987z" fill="#A3BBC8"/></svg>