<svg width="22" height="21" viewBox="0 0 22 21" fill="none" xmlns="http://www.w3.org/2000/svg">
<path fill-rule="evenodd" clip-rule="evenodd" d="M0.813714 2.62876H3.14681L6.47018 14.6666C6.56517 15.0202 6.89075 15.2643 7.25696 15.2643H17.4713C17.7969 15.2643 18.0817 15.0748 18.2173 14.7757L21.934 6.21552C22.0426 5.95702 22.0154 5.6727 21.8662 5.44032C21.7169 5.21058 21.4592 5.07398 21.188 5.07398H9.90216C9.45446 5.07398 9.08824 5.44032 9.08824 5.88904C9.08824 6.3384 9.45446 6.70542 9.90216 6.70542H19.9401L16.9287 13.6335H7.8674L4.54403 1.59636C4.44915 1.24308 4.12357 0.99796 3.75736 0.99796H0.813714C0.366124 0.99796 -0.000198 1.3653 -0.000198 1.81402C-0.000198 2.26176 0.366124 2.62876 0.813714 2.62876ZM6.4838 20.9986C7.50119 20.9986 8.32858 20.1694 8.32858 19.1504C8.32858 18.1311 7.50119 17.303 6.4838 17.303C5.46643 17.303 4.63901 18.1311 4.63901 19.1504C4.63901 20.1694 5.46643 20.9986 6.4838 20.9986ZM18.1495 20.9986H18.0138C17.0507 20.9986 16.2504 20.2377 16.1827 19.273C16.1148 18.2671 16.8745 17.3709 17.8919 17.303C18.9091 17.235 19.7909 18.0089 19.8586 19.0151C19.8859 19.5171 19.7366 19.9936 19.411 20.3596C19.0855 20.74 18.6379 20.9577 18.1495 20.9986Z" fill="white"/>
</svg>
