<svg width="55" height="37" fill="none" xmlns="http://www.w3.org/2000/svg"><path fill-rule="evenodd" clip-rule="evenodd" d="M3.69 5.334h6.126a.786.786 0 010 1.572H3.69a.786.786 0 010-1.572zM4.738 16.34h5.602a.786.786 0 010 1.572H4.738a.785.785 0 010-1.572zm3.508-4.717h-6.65a.786.786 0 000 1.572h6.65a.786.786 0 000-1.572zM7.602 22.63h.644a.786.786 0 010 1.573h-.644a.786.786 0 010-1.573zm-2.619 0H1.596a.786.786 0 000 1.573h3.387a.786.786 0 000-1.573zM35.186 2.77h6.657c4.455 0 8.08 3.628 8.08 8.086V24.94a.786.786 0 01-.786.787h-2.782a4.983 4.983 0 01-4.912 4.192 4.983 4.983 0 01-4.912-4.192H25.28a4.983 4.983 0 01-4.911 4.192 4.984 4.984 0 01-4.912-4.192h-2.42a.786.786 0 01-.784-.787V1.354c0-.434.351-.786.785-.786h6.046a.786.786 0 010 1.572h-5.26v22.014h1.633a4.983 4.983 0 014.912-4.193 4.983 4.983 0 014.911 4.193h8.336V23.03a.785.785 0 111.57 0v1.125h1.346a4.983 4.983 0 014.912-4.193 4.983 4.983 0 014.912 4.193h1.997v-13.3c0-3.591-2.92-6.513-6.509-6.513h-6.657V19.36a.786.786 0 11-1.571 0V2.14h-11.39a.786.786 0 010-1.572H34.4c.434 0 .786.352.786.786v1.415zM16.964 24.94a3.409 3.409 0 003.404 3.407 3.409 3.409 0 003.403-3.407 3.409 3.409 0 00-3.403-3.406 3.409 3.409 0 00-3.404 3.406zm21.076.001a3.41 3.41 0 003.403 3.406 3.409 3.409 0 003.404-3.407 3.409 3.409 0 00-3.404-3.406 3.408 3.408 0 00-3.403 3.406v.001zm-.498-19.027h4.301a4.945 4.945 0 014.938 4.941v3.235a.786.786 0 01-.786.787h-8.453a.786.786 0 01-.785-.787V6.7c0-.434.351-.786.785-.786zm.786 7.39h6.882v-2.449a3.371 3.371 0 00-3.367-3.368h-3.515v5.817zM18.343 24.94c0-1.117.908-2.027 2.025-2.027a2.028 2.028 0 010 4.054 2.028 2.028 0 01-2.025-2.027zm1.57 0a.455.455 0 10.91 0 .455.455 0 00-.91 0zm19.505 0a2.03 2.03 0 012.025-2.027c1.117 0 2.025.91 2.025 2.027a2.028 2.028 0 01-2.025 2.027 2.028 2.028 0 01-2.025-2.027zm1.571 0c0 .251.204.455.454.455a.455.455 0 000-.91.455.455 0 00-.454.455zm4.221-7.128a.786.786 0 111.57 0v1.992a.786.786 0 11-1.57 0v-1.992z" fill="#A3BBC8"/><path opacity=".34" fill-rule="evenodd" clip-rule="evenodd" d="M44.75 17.406c5.42 0 9.812 4.386 9.812 9.797 0 5.41-4.393 9.797-9.812 9.797-5.42 0-9.813-4.386-9.813-9.797 0-5.41 4.394-9.797 9.813-9.797z" fill="#A3BBC8"/></svg>