<svg width="22" height="18" fill="none" xmlns="http://www.w3.org/2000/svg"><path fill-rule="evenodd" clip-rule="evenodd" d="M21.99 5.82a6.21 6.21 0 00-1.849-4.1C19.016.61 17.545-.001 16.002-.001c-2.311 0-3.948 1.785-4.827 2.745l-.156.17-.083-.095C10.132 1.903 8.46 0 5.998 0 4.455 0 2.985.61 1.859 1.72A6.21 6.21 0 00.01 5.82c-.082 1.541.31 2.88 1.27 4.338.862 1.308 3.105 3.374 4.764 4.748 1.705 1.41 3.95 3.092 4.965 3.092 1.032 0 3.27-1.679 4.965-3.086 1.646-1.367 3.876-3.432 4.746-4.754.646-.984 1.375-2.366 1.27-4.338zm-2.376 3.61c-.632.961-2.412 2.736-4.43 4.418-2.407 2.004-3.832 2.795-4.173 2.826-.342-.035-1.77-.833-4.188-2.843-2.03-1.686-3.813-3.454-4.437-4.401-.795-1.207-1.12-2.298-1.054-3.539.135-2.519 2.228-4.57 4.666-4.57 1.863 0 3.216 1.543 3.943 2.371.428.488.663.755 1.06.755.408 0 .671-.286 1.15-.81.794-.865 2.122-2.315 3.851-2.315 2.438 0 4.531 2.05 4.666 4.57.067 1.253-.248 2.312-1.054 3.538z" fill="#A3BBC8"/></svg>