
<svg version="1.0" xmlns="http://www.w3.org/2000/svg"
 width="512.000000pt" height="512.000000pt" viewBox="0 0 512.000000 512.000000"
 preserveAspectRatio="xMidYMid meet">
<g transform="translate(0.000000,512.000000) scale(0.100000,-0.100000)"
fill="#000000" stroke="none">
<path d="M232 4940 c-48 -30 -72 -75 -72 -140 0 -65 24 -110 72 -140 30 -18
51 -20 225 -20 l192 0 6 -42 c3 -24 66 -621 140 -1326 74 -706 140 -1303 146
-1325 19 -70 59 -138 118 -200 65 -69 118 -102 202 -128 58 -18 116 -19 1395
-19 1325 0 1335 0 1397 21 34 11 83 34 110 51 70 44 151 140 181 211 17 40 99
402 227 1002 222 1041 215 990 158 1104 -32 65 -75 108 -142 143 l-42 23
-1757 3 c-1712 2 -1758 3 -1758 21 0 10 -16 166 -35 346 -38 355 -41 370 -105
412 -32 23 -38 23 -329 23 -278 0 -298 -1 -329 -20z m4010 -2007 c-210 -980
-201 -950 -275 -991 -30 -16 -112 -17 -1312 -17 -1172 0 -1283 1 -1310 17 -46
25 -73 59 -85 108 -9 36 -190 1732 -190 1778 0 9 343 12 1683 12 l1683 0 -194
-907z"/>
<path d="M1448 1261 c-145 -47 -269 -174 -312 -320 -21 -71 -21 -211 0 -282
43 -148 168 -274 315 -320 82 -26 216 -26 298 0 147 46 272 172 315 320 21 71
21 211 0 282 -43 148 -168 274 -315 320 -81 25 -222 25 -301 0z m230 -331
c130 -79 74 -280 -78 -280 -85 0 -150 65 -150 150 0 85 65 150 150 150 27 0
58 -8 78 -20z"/>
<path d="M3368 1261 c-74 -24 -144 -69 -200 -129 -91 -97 -128 -194 -128 -332
0 -138 37 -235 128 -332 95 -101 206 -148 352 -148 146 0 257 47 352 148 91
97 128 194 128 332 0 138 -37 235 -128 332 -57 61 -127 105 -203 129 -81 25
-222 25 -301 0z m230 -331 c130 -79 74 -280 -78 -280 -85 0 -150 65 -150 150
0 85 65 150 150 150 27 0 58 -8 78 -20z"/>
</g>
</svg>
