<svg width="19" height="18" viewBox="0 0 19 18" fill="none" xmlns="http://www.w3.org/2000/svg">
<path fill-rule="evenodd" clip-rule="evenodd" d="M2.39516 15.1224C2.47606 15.1606 2.56133 15.1783 2.64533 15.1783C2.86849 15.1783 3.08203 15.0515 3.18227 14.8374C3.65665 13.821 4.53268 13.3285 5.86226 13.3276C5.86832 13.3256 5.87611 13.3256 5.88481 13.3276H16.2401C16.5084 13.3276 16.7435 13.1465 16.8129 12.888L18.936 4.93208C18.9831 4.75527 18.9455 4.56507 18.8328 4.41899C18.7209 4.27289 18.5473 4.18694 18.3632 4.18694H4.31078H4.29305C2.74466 4.18694 1.40684 3.03657 1.17785 1.50512C1.12909 1.18061 0.819755 0.951176 0.50483 1.00641C0.180956 1.05413 -0.042313 1.35511 0.006555 1.67964C0.321366 3.78888 2.16171 5.37262 4.28961 5.37262H4.3141H17.592L15.7851 12.1438H6.36202L5.27071 6.56582C5.20697 6.24586 4.89649 6.0318 4.57549 6.09782C4.25448 6.16089 4.04527 6.47267 4.10788 6.79328L5.16268 12.1844C3.73629 12.3615 2.68801 13.0955 2.10917 14.3351C1.97036 14.6315 2.09864 14.9838 2.39516 15.1224ZM13.9185 17.9778C13.3815 17.9778 12.8541 17.768 12.4568 17.3712C11.86 16.7761 11.6826 15.8907 12.0048 15.111C12.3258 14.3341 13.0768 13.8309 13.9185 13.8309C14.4641 13.791 14.9983 14.0488 15.386 14.4341C15.7783 14.8266 15.9934 15.3456 15.9934 15.8996C15.9962 16.7392 15.4959 17.4931 14.7186 17.8167C14.4594 17.9251 14.1875 17.9765 13.9185 17.9778ZM5.52649 17.9778C4.98965 17.9778 4.46264 17.768 4.06496 17.3712C3.46815 16.7774 3.29076 15.8907 3.61236 15.111C3.93439 14.3341 4.6858 13.8309 5.52718 13.8309H5.53255C6.08336 13.8309 6.60212 14.0446 6.99362 14.4335C7.38593 14.8266 7.60199 15.3456 7.60199 15.8996C7.60393 16.7405 7.10292 17.4931 6.3254 17.8167C6.06653 17.9251 5.79508 17.9778 5.52649 17.9778ZM5.53255 15.0146H5.52854C5.16749 15.0146 4.84546 15.2303 4.7071 15.5636C4.56977 15.897 4.64541 16.2787 4.90107 16.5329C5.15685 16.7869 5.53759 16.862 5.8698 16.7244C6.2034 16.5849 6.41799 16.2614 6.41706 15.9006C6.41706 15.6636 6.32449 15.4411 6.15661 15.2721C5.99055 15.1074 5.76819 15.0146 5.53255 15.0146ZM13.9226 15.0146H13.9243C14.1567 15.0146 14.3842 15.109 14.549 15.2721C14.7168 15.4411 14.8094 15.6636 14.8094 15.9009C14.8104 16.2614 14.5954 16.5849 14.2627 16.7244C13.931 16.862 13.5493 16.7882 13.2928 16.5329C13.0374 16.2787 12.9612 15.897 13.1 15.5629C13.2379 15.2296 13.5917 15.0469 13.9226 15.0146Z" fill="#243F4D"/>
</svg>
