<svg width="127" height="127" fill="none" xmlns="http://www.w3.org/2000/svg"><path opacity=".4" fill-rule="evenodd" clip-rule="evenodd" d="M63.5 0C98.57 0 127 28.43 127 63.5S98.57 127 63.5 127 0 98.57 0 63.5 28.43 0 63.5 0z" fill="#A3BBC8"/><path fill-rule="evenodd" clip-rule="evenodd" d="M63 14c27.062 0 49 21.938 49 49s-21.938 49-49 49-49-21.938-49-49 21.938-49 49-49z" fill="#A3BBC8"/><path fill-rule="evenodd" clip-rule="evenodd" d="M73.684 64.74L57.64 74.536c-.5.306-1.08.46-1.663.46-.48 0-.96-.105-1.399-.316-.972-.47-1.579-1.387-1.579-2.385V52.7c0-.999.607-1.917 1.58-2.386a3.242 3.242 0 013.06.143l16.045 9.798c.822.502 1.316 1.343 1.316 2.241 0 .9-.494 1.741-1.316 2.244z" fill="#fff"/></svg>