<svg width="20" height="21" viewBox="0 0 20 21" fill="none" xmlns="http://www.w3.org/2000/svg">
<path fill-rule="evenodd" clip-rule="evenodd" d="M14.8618 13.209L19.4504 17.7981C20.1828 18.5305 20.1828 19.7184 19.4504 20.4482C18.7193 21.1809 17.5315 21.1809 16.799 20.4482L12.2105 15.8601C13.2737 15.1777 14.1782 14.2724 14.8618 13.209ZM7.4998 0.99764C11.6417 0.99764 14.9998 4.35728 14.9998 8.49864C14.9998 12.6403 11.6417 15.9987 7.4998 15.9987C3.35808 15.9987 -8e-05 12.6403 -8e-05 8.49864C-8e-05 4.35728 3.35808 0.99764 7.4998 0.99764ZM1.87492 8.49864C1.87492 11.6007 4.39812 14.1234 7.4998 14.1234C10.6016 14.1234 13.1248 11.6007 13.1248 8.49864C13.1248 5.39654 10.6016 2.87256 7.4998 2.87256C4.39812 2.87256 1.87492 5.39654 1.87492 8.49864ZM4.37488 8.49864H3.12484C3.12484 6.08676 5.08774 4.12328 7.4998 4.12328V5.37398C5.7769 5.37398 4.37488 6.77568 4.37488 8.49864Z" fill="#A3BBC8"/>
</svg>
