<svg width="22" height="18" viewBox="0 0 22 18" fill="none" xmlns="http://www.w3.org/2000/svg">
<path fill-rule="evenodd" clip-rule="evenodd" d="M21.9897 5.82017C21.9068 4.26879 21.2503 2.81252 20.1412 1.71967C19.0155 0.609804 17.5454 -0.001008 16.002 -0.001008C13.6907 -0.001008 12.0542 1.78405 11.1751 2.74356C11.125 2.79848 11.0713 2.85664 11.0187 2.91317C10.9906 2.8818 10.9627 2.84945 10.936 2.81939C10.1324 1.903 8.46008 -0.001008 5.9981 -0.001008C4.45463 -0.001008 2.98476 0.609804 1.859 1.71967C0.749848 2.81252 0.093412 4.26879 0.010428 5.82017C-0.071962 7.36142 0.31988 8.70037 1.28084 10.158C2.14201 11.4655 4.38482 13.5323 6.04364 14.9055C7.7486 16.3167 9.99427 17.9985 11.0095 17.9985C12.0408 17.9985 14.2785 16.3193 15.974 14.9118C17.6199 13.5447 19.8502 11.4796 20.7196 10.1576C21.3664 9.17392 22.0952 7.79152 21.9897 5.82017ZM19.6136 9.43015C18.982 10.391 17.2018 12.1659 15.1835 13.8477C12.777 15.8523 11.3522 16.6429 11.0106 16.6736C10.6693 16.6386 9.24112 15.8409 6.82288 13.8313C4.79281 12.1453 3.00993 10.3773 2.38612 9.4295C1.59097 8.22323 1.26597 7.13167 1.33223 5.89109C1.46692 3.37235 3.56017 1.32161 5.9981 1.32161C7.86073 1.32161 9.21413 2.86416 9.94127 3.69198C10.3687 4.17958 10.6042 4.44724 11.0002 4.44724C11.4089 4.44724 11.6724 4.16063 12.1509 3.63773C12.9447 2.77168 14.273 1.32161 16.002 1.32161C18.44 1.32161 20.5331 3.37235 20.6679 5.89109C20.735 7.14541 20.4197 8.20395 19.6136 9.43015Z" fill="#A3BBC8"/>
</svg>
