<svg width="22" height="21" fill="none" xmlns="http://www.w3.org/2000/svg"><path fill-rule="evenodd" clip-rule="evenodd" d="M.814 2.629h2.333L6.47 14.667c.095.353.42.597.787.597h10.214c.326 0 .61-.19.746-.488l3.717-8.56a.828.828 0 00-.068-.776.81.81 0 00-.678-.366H9.902a.817.817 0 000 1.631H19.94l-3.011 6.928H7.867L4.544 1.596a.815.815 0 00-.787-.598H.814A.817.817 0 000 1.814c0 .448.366.815.814.815zm5.67 18.37a1.849 1.849 0 000-3.696 1.848 1.848 0 000 3.696zm11.666 0h-.136a1.85 1.85 0 01-1.831-1.726 1.85 1.85 0 011.709-1.97 1.85 1.85 0 011.519 3.057c-.326.38-.773.598-1.262.639z" fill="#fff"/></svg>