<svg width="21" height="21" fill="none" xmlns="http://www.w3.org/2000/svg"><path fill-rule="evenodd" clip-rule="evenodd" d="M2.146 4.88A2.144 2.144 0 010 2.736C0 1.548.96.589 2.146.589c1.187 0 2.146.959 2.146 2.146 0 1.186-.96 2.146-2.146 2.146zm0 7.87A2.145 2.145 0 010 10.603c0-1.186.96-2.145 2.146-2.145a2.145 2.145 0 110 4.292zM0 18.472c0 1.187.96 2.146 2.146 2.146a2.144 2.144 0 002.146-2.146c0-1.187-.96-2.146-2.146-2.146-1.187 0-2.146.96-2.146 2.146zM10.014 4.881a2.144 2.144 0 01-2.146-2.146c0-1.187.96-2.146 2.146-2.146 1.187 0 2.146.959 2.146 2.146a2.144 2.144 0 01-2.146 2.146zm-2.146 5.722a2.145 2.145 0 104.292 0 2.143 2.143 0 00-2.146-2.145 2.144 2.144 0 00-2.146 2.145zm2.146 10.015a2.144 2.144 0 01-2.146-2.146c0-1.187.96-2.146 2.146-2.146 1.187 0 2.146.96 2.146 2.146a2.144 2.144 0 01-2.146 2.146zm5.723-17.883a2.145 2.145 0 104.292 0c0-1.187-.96-2.146-2.146-2.146a2.144 2.144 0 00-2.146 2.146zm2.146 10.015a2.145 2.145 0 01-2.146-2.147c0-1.186.96-2.145 2.146-2.145a2.145 2.145 0 110 4.292zm-2.146 5.722c0 1.187.96 2.146 2.146 2.146a2.144 2.144 0 002.146-2.146c0-1.187-.96-2.146-2.146-2.146-1.187 0-2.146.96-2.146 2.146z" fill="#fff"/></svg>