<svg width="19" height="18" fill="none" xmlns="http://www.w3.org/2000/svg"><path fill-rule="evenodd" clip-rule="evenodd" d="M2.395 15.122a.593.593 0 00.787-.285c.475-1.016 1.35-1.509 2.68-1.51a.043.043 0 01.023 0H16.24a.594.594 0 00.573-.439l2.123-7.956a.592.592 0 00-.573-.745H4.293a3.165 3.165 0 01-3.115-2.682.591.591 0 10-1.171.175A4.354 4.354 0 004.29 5.373h13.302l-1.807 6.77H6.362L5.271 6.567a.592.592 0 10-1.163.227l1.055 5.391c-1.427.178-2.475.912-3.054 2.151a.592.592 0 00.286.787zm11.523 2.856c-.536 0-1.064-.21-1.461-.607a2.065 2.065 0 01-.452-2.26 2.065 2.065 0 011.913-1.28c.546-.04 1.08.218 1.468.603.392.393.607.912.607 1.466a2.064 2.064 0 01-1.274 1.917 2.08 2.08 0 01-.8.16zm-8.392 0c-.536 0-1.063-.21-1.461-.607a2.066 2.066 0 01-.453-2.26 2.068 2.068 0 011.915-1.28h.006c.55 0 1.07.214 1.46.603.393.393.609.912.609 1.466.002.84-.5 1.593-1.277 1.917-.258.108-.53.16-.799.16zm.007-2.963h-.004a.887.887 0 00-.628 1.518.89.89 0 10.632-1.518zm8.39 0h.001a.886.886 0 01.885.886.889.889 0 11-1.709-.338c.138-.333.492-.516.823-.548z" fill="#243F4D"/></svg>