<svg width="63" height="63" version="1.1" xmlns="http://www.w3.org/2000/svg" desc="Created with imagetracer.js version 1.2.6" ><path fill="rgb(255,255,255)" stroke="rgb(255,255,255)" stroke-width="1" opacity="0.8156862745098039" d="M 3.5 2 L 5 2.5 L 1.5 5 L 3.5 2 Z " /><path fill="rgb(255,255,255)" stroke="rgb(255,255,255)" stroke-width="1" opacity="0.8156862745098039" d="M 56.5 2 L 58.5 5 L 56.5 2 Z " /><path fill="rgb(255,255,255)" stroke="rgb(255,255,255)" stroke-width="1" opacity="0.8156862745098039" d="M 10.5 3 L 11.5 5 L 10.5 3 Z " /><path fill="rgb(255,255,255)" stroke="rgb(255,255,255)" stroke-width="1" opacity="0.8156862745098039" d="M 49.5 3 L 48.5 5 L 49.5 3 Z " /><path fill="rgb(255,255,255)" stroke="rgb(255,255,255)" stroke-width="1" opacity="0.8156862745098039" d="M 12.5 6 L 13 9.5 L 12 9.5 L 12.5 6 Z " /><path fill="rgb(255,255,255)" stroke="rgb(255,255,255)" stroke-width="1" opacity="0.8156862745098039" d="M 47.5 6 L 48 9.5 L 47 9.5 L 47.5 6 Z " /><path fill="rgb(255,255,255)" stroke="rgb(255,255,255)" stroke-width="1" opacity="0.8156862745098039" d="M 35.5 11 L 33.5 14 L 35.5 11 Z " /><path fill="rgb(255,255,255)" stroke="rgb(255,255,255)" stroke-width="1" opacity="0.8156862745098039" d="M 25.5 12 L 26.5 14 L 25.5 12 Z " /><path fill="rgb(255,255,255)" stroke="rgb(255,255,255)" stroke-width="1" opacity="0.8156862745098039" d="M 5.5 14 L 8 14.5 L 5.5 15 L 5.5 14 Z " /><path fill="rgb(255,255,255)" stroke="rgb(255,255,255)" stroke-width="1" opacity="0.8156862745098039" d="M 52.5 14 L 55 14.5 L 52.5 15 L 52.5 14 Z " /><path fill="rgb(255,255,255)" stroke="rgb(255,255,255)" stroke-width="1" opacity="0.8156862745098039" d="M 5.5 25 L 8 25.5 L 5.5 26 L 5.5 25 Z " /><path fill="rgb(255,255,255)" stroke="rgb(255,255,255)" stroke-width="1" opacity="0.8156862745098039" d="M 52.5 25 L 55 25.5 L 52.5 26 L 52.5 25 Z " /><path fill="rgb(255,255,255)" stroke="rgb(255,255,255)" stroke-width="1" opacity="0.8156862745098039" d="M 26.5 26 L 25.5 28 L 26.5 26 Z " /><path fill="rgb(255,255,255)" stroke="rgb(255,255,255)" stroke-width="1" opacity="0.8156862745098039" d="M 33.5 26 L 35.5 29 L 33.5 26 Z " /><path fill="rgb(255,255,255)" stroke="rgb(255,255,255)" stroke-width="1" opacity="0.8156862745098039" d="M 12.5 30 L 13 33.5 L 12 33.5 L 12.5 30 Z " /><path fill="rgb(255,255,255)" stroke="rgb(255,255,255)" stroke-width="1" opacity="0.8156862745098039" d="M 47.5 30 L 48 33.5 L 47 33.5 L 47.5 30 Z " /><path fill="rgb(255,255,255)" stroke="rgb(255,255,255)" stroke-width="1" opacity="0.8156862745098039" d="M 1.5 35 L 3.5 38 L 1.5 35 Z " /><path fill="rgb(255,255,255)" stroke="rgb(255,255,255)" stroke-width="1" opacity="0.8156862745098039" d="M 11.5 35 L 10.5 37 L 11.5 35 Z " /><path fill="rgb(255,255,255)" stroke="rgb(255,255,255)" stroke-width="1" opacity="0.8156862745098039" d="M 48.5 35 L 49.5 37 L 48.5 35 Z " /><path fill="rgb(255,255,255)" stroke="rgb(255,255,255)" stroke-width="1" opacity="0.8156862745098039" d="M 58.5 35 L 56.5 38 L 58.5 35 Z " /><path fill="rgb(255,255,255)" stroke="rgb(255,255,255)" stroke-width="1" opacity="0.8156862745098039" d="M 2.5 50 L 1.5 52 L 2.5 50 Z " /><path fill="rgb(255,255,255)" stroke="rgb(255,255,255)" stroke-width="1" opacity="0.8156862745098039" d="M 10.5 50 L 11.5 52 L 10.5 50 Z " /><path fill="rgb(255,255,255)" stroke="rgb(255,255,255)" stroke-width="1" opacity="0.8156862745098039" d="M 57.5 50 L 58.5 52 L 57.5 50 Z " /><path fill="rgb(255,255,255)" stroke="rgb(255,255,255)" stroke-width="1" opacity="0.8156862745098039" d="M 12.5 53 L 13 57.5 L 12 57.5 L 12.5 53 Z " /><path fill="rgb(255,255,255)" stroke="rgb(255,255,255)" stroke-width="1" opacity="0.8156862745098039" d="M 47.5 54 L 48 56.5 L 47 56.5 L 47.5 54 Z " /><path fill="rgb(255,255,255)" stroke="rgb(255,255,255)" stroke-width="1" opacity="0.8156862745098039" d="M 24.5 58 L 26.5 61 L 24.5 58 Z " /><path fill="rgb(255,255,255)" stroke="rgb(255,255,255)" stroke-width="1" opacity="0.8156862745098039" d="M 35.5 58 L 33.5 61 L 35.5 58 Z " /><path fill="rgb(255,255,255)" stroke="rgb(255,255,255)" stroke-width="1" opacity="0.8156862745098039" d="M 58.5 59 L 57.5 61 L 58.5 59 Z " /><path fill="rgb(255,255,255)" stroke="rgb(255,255,255)" stroke-width="1" opacity="0.8156862745098039" d="M 4.5 61 L 8 61.5 L 4.5 62 L 4.5 61 Z " /><path fill="rgb(255,255,255)" stroke="rgb(255,255,255)" stroke-width="1" opacity="0.8156862745098039" d="M 28.5 61 L 32 61.5 L 28.5 62 L 28.5 61 Z " /><path fill="rgb(255,255,255)" stroke="rgb(255,255,255)" stroke-width="1" opacity="0.8156862745098039" d="M 52.5 61 L 56 61.5 L 52.5 62 L 52.5 61 Z " /><path fill="rgb(0,0,0)" stroke="rgb(0,0,0)" stroke-width="1" opacity="0" d="M 0 0 L 63 0 L 63 63 L 0.5 63 L 0 59.5 L 2 60.5 L 2.5 62 L 9.5 62 Q 14.5 60.5 13 52.5 Q 11.5 47.5 3.5 49 L 1 50 L 0.5 52 L 0 36.5 L 2.5 38 L 7.5 39 L 12 36.5 L 13 28.5 Q 11.1 23.9 3.5 25 L 0 27.5 L 0.5 12 L 4.5 16 L 5.5 15 Q 11.7 15.7 13 11.5 Q 14.3 4.3 10.5 2 L 5.5 1 L 0.5 4 L 0 0 Z M 29 1 L 27 2 L 23 7 L 24 13 L 28 15 L 35 14 L 37 11 L 36 5 Q 35 0 29 1 Z M 53 1 L 48 3 Q 46 5 47 12 Q 49 16 57 15 L 61 9 L 60 5 Q 59 0 53 1 Z M 28 25 L 26 26 L 23 30 L 24 36 L 29 39 Q 35 39 37 35 L 36 28 Q 34 24 28 25 Z M 52 25 L 47 29 Q 46 35 48 37 L 56 39 L 58 39 L 61 33 L 60 29 Q 59 24 52 25 Z M 27 49 L 23 54 L 24 60 L 28 62 L 35 61 L 37 58 L 36 52 Q 34 47 27 49 Z M 51 49 L 47 53 L 47 59 L 49 62 Q 56 63 59 61 L 61 56 L 59 50 Q 57 48 51 49 Z " /><path fill="rgb(255,255,255)" stroke="rgb(255,255,255)" stroke-width="1" opacity="0.24313725490196078" d="M 5.5 1 L 8 1.5 L 5.5 2 L 5.5 1 Z " /><path fill="rgb(255,255,255)" stroke="rgb(255,255,255)" stroke-width="1" opacity="0.24313725490196078" d="M 28.5 1 L 32 1.5 L 28.5 2 L 28.5 1 Z " /><path fill="rgb(255,255,255)" stroke="rgb(255,255,255)" stroke-width="1" opacity="0.24313725490196078" d="M 52.5 1 L 56 1.5 L 52.5 2 L 52.5 1 Z " /><path fill="rgb(255,255,255)" stroke="rgb(255,255,255)" stroke-width="1" opacity="0.24313725490196078" d="M 2.5 2 L 1 4.5 L 0.5 6 L 0 4.5 L 2.5 2 Z " /><path fill="rgb(255,255,255)" stroke="rgb(255,255,255)" stroke-width="1" opacity="0.24313725490196078" d="M 9.5 2 L 12 3.5 L 10.5 3 L 9.5 2 Z " /><path fill="rgb(255,255,255)" stroke="rgb(255,255,255)" stroke-width="1" opacity="0.24313725490196078" d="M 26.5 2 L 24.5 5 L 26.5 2 Z " /><path fill="rgb(255,255,255)" stroke="rgb(255,255,255)" stroke-width="1" opacity="0.24313725490196078" d="M 33.5 2 L 35.5 5 L 33.5 2 Z " /><path fill="rgb(255,255,255)" stroke="rgb(255,255,255)" stroke-width="1" opacity="0.24313725490196078" d="M 57.5 2 L 60 5.5 L 59 5.5 L 57.5 2 Z " /><path fill="rgb(255,255,255)" stroke="rgb(255,255,255)" stroke-width="1" opacity="0.24313725490196078" d="M 23.5 6 Q 23.3 11.3 26 13.5 L 24 12.5 L 23.5 6 Z " /><path fill="rgb(255,255,255)" stroke="rgb(255,255,255)" stroke-width="1" opacity="0.24313725490196078" d="M 36.5 6 L 37 10.5 L 36 10.5 L 36.5 6 Z " /><path fill="rgb(255,255,255)" stroke="rgb(255,255,255)" stroke-width="1" opacity="0.24313725490196078" d="M 12.5 10 L 13 11.5 L 10 13.5 L 12.5 10 Z " /><path fill="rgb(255,255,255)" stroke="rgb(255,255,255)" stroke-width="1" opacity="0.24313725490196078" d="M 47.5 10 L 50 13.5 L 47 11.5 L 47.5 10 Z " /><path fill="rgb(255,255,255)" stroke="rgb(255,255,255)" stroke-width="1" opacity="0.24313725490196078" d="M 0.5 11 L 5 14 L 4.5 16 L 0.5 11 Z " /><path fill="rgb(255,255,255)" stroke="rgb(255,255,255)" stroke-width="1" opacity="0.24313725490196078" d="M 59.5 11 L 56.5 15 L 55 14.5 L 59.5 11 Z " /><path fill="rgb(255,255,255)" stroke="rgb(255,255,255)" stroke-width="1" opacity="0.24313725490196078" d="M 35.5 12 L 34.5 14 L 35.5 12 Z " /><path fill="rgb(255,255,255)" stroke="rgb(255,255,255)" stroke-width="1" opacity="0.24313725490196078" d="M 3.5 25 L 5 25.5 L 0.5 29 L 3.5 25 Z " /><path fill="rgb(255,255,255)" stroke="rgb(255,255,255)" stroke-width="1" opacity="0.24313725490196078" d="M 55.5 25 L 60 28.5 L 56.5 26 L 55.5 25 Z " /><path fill="rgb(255,255,255)" stroke="rgb(255,255,255)" stroke-width="1" opacity="0.24313725490196078" d="M 10.5 26 L 13 29.5 L 12 29.5 L 10.5 26 Z " /><path fill="rgb(255,255,255)" stroke="rgb(255,255,255)" stroke-width="1" opacity="0.24313725490196078" d="M 25.5 26 L 25 27.5 L 23.5 34 L 23 29.5 L 25.5 26 Z " /><path fill="rgb(255,255,255)" stroke="rgb(255,255,255)" stroke-width="1" opacity="0.24313725490196078" d="M 34.5 26 L 35.5 28 L 34.5 26 Z " /><path fill="rgb(255,255,255)" stroke="rgb(255,255,255)" stroke-width="1" opacity="0.24313725490196078" d="M 49.5 26 L 48 28.5 L 47.5 30 L 47 28.5 L 49.5 26 Z " /><path fill="rgb(255,255,255)" stroke="rgb(255,255,255)" stroke-width="1" opacity="0.24313725490196078" d="M 36.5 29 L 37 34.5 L 33 37.5 Q 37.3 35.8 36.5 29 Z " /><path fill="rgb(255,255,255)" stroke="rgb(255,255,255)" stroke-width="1" opacity="0.24313725490196078" d="M 0.5 34 L 3 37.5 L 0 35.5 L 0.5 34 Z " /><path fill="rgb(255,255,255)" stroke="rgb(255,255,255)" stroke-width="1" opacity="0.24313725490196078" d="M 59.5 34 L 60 35.5 L 57.5 39 L 57 37.5 L 59.5 34 Z " /><path fill="rgb(255,255,255)" stroke="rgb(255,255,255)" stroke-width="1" opacity="0.24313725490196078" d="M 24.5 35 L 26.5 38 L 24.5 35 Z " /><path fill="rgb(255,255,255)" stroke="rgb(255,255,255)" stroke-width="1" opacity="0.24313725490196078" d="M 11.5 36 L 10.5 38 L 9 37.5 L 11.5 36 Z " /><path fill="rgb(255,255,255)" stroke="rgb(255,255,255)" stroke-width="1" opacity="0.24313725490196078" d="M 5.5 38 L 8 38.5 L 5.5 39 L 5.5 38 Z " /><path fill="rgb(255,255,255)" stroke="rgb(255,255,255)" stroke-width="1" opacity="0.24313725490196078" d="M 28.5 38 L 32 38.5 L 28.5 39 L 28.5 38 Z " /><path fill="rgb(255,255,255)" stroke="rgb(255,255,255)" stroke-width="1" opacity="0.24313725490196078" d="M 52.5 38 L 56 38.5 L 52.5 39 L 52.5 38 Z " /><path fill="rgb(255,255,255)" stroke="rgb(255,255,255)" stroke-width="1" opacity="0.24313725490196078" d="M 26.5 49 L 28 49.5 L 24.5 52 L 26.5 49 Z " /><path fill="rgb(255,255,255)" stroke="rgb(255,255,255)" stroke-width="1" opacity="0.24313725490196078" d="M 33.5 49 L 35.5 52 L 33.5 49 Z " /><path fill="rgb(255,255,255)" stroke="rgb(255,255,255)" stroke-width="1" opacity="0.24313725490196078" d="M 50.5 49 L 48 52.5 L 47.5 54 L 47 52.5 L 50.5 49 Z " /><path fill="rgb(255,255,255)" stroke="rgb(255,255,255)" stroke-width="1" opacity="0.24313725490196078" d="M 23.5 53 L 24 57.5 L 23 57.5 L 23.5 53 Z " /><path fill="rgb(255,255,255)" stroke="rgb(255,255,255)" stroke-width="1" opacity="0.24313725490196078" d="M 36.5 53 L 37 57.5 L 36 57.5 L 36.5 53 Z " /><path fill="rgb(255,255,255)" stroke="rgb(255,255,255)" stroke-width="1" opacity="0.24313725490196078" d="M 47.5 57 L 50.5 61 L 52 61.5 L 49 62 L 47.5 57 Z " /><path fill="rgb(255,255,255)" stroke="rgb(255,255,255)" stroke-width="1" opacity="0.24313725490196078" d="M 12.5 58 L 9.5 62 L 8 61.5 L 12.5 58 Z " /><path fill="rgb(255,255,255)" stroke="rgb(255,255,255)" stroke-width="1" opacity="0.24313725490196078" d="M 24.5 59 L 25.5 61 L 24.5 59 Z " /><path fill="rgb(255,255,255)" stroke="rgb(255,255,255)" stroke-width="1" opacity="0.24313725490196078" d="M 35.5 59 L 34.5 61 L 35.5 59 Z " /><path fill="rgb(255,255,255)" stroke="rgb(255,255,255)" stroke-width="1" opacity="0.24313725490196078" d="M 2.5 60 L 3.5 62 Q 0.7 62.7 2.5 60 Z " /><path fill="rgb(255,255,255)" stroke="rgb(255,255,255)" stroke-width="1" opacity="1" d="M 5.5 2 Q 10.3 2.3 12 5.5 Q 12.6 10.9 11 13 L 4.5 14 L 1 11.5 L 0 7.5 L 3.5 3 L 5.5 2 Z " /><path fill="rgb(255,255,255)" stroke="rgb(255,255,255)" stroke-width="1" opacity="1" d="M 28.5 2 Q 33.6 1.4 35 4.5 L 36 10.5 Q 34.8 15.2 27.5 14 Q 23 13 24 6.5 L 26.5 3 L 28.5 2 Z " /><path fill="rgb(255,255,255)" stroke="rgb(255,255,255)" stroke-width="1" opacity="1" d="M 52.5 2 Q 58.3 1.3 59 5.5 L 60 9.5 L 57.5 13 L 51.5 14 L 49 13 Q 47.4 10.9 48 5.5 L 52.5 2 Z " /><path fill="rgb(255,255,255)" stroke="rgb(255,255,255)" stroke-width="1" opacity="1" d="M 4.5 26 L 11 27 Q 12.6 29.1 12 34.5 Q 10.7 38.7 4.5 38 L 0 31.5 L 2.5 27 L 4.5 26 Z " /><path fill="rgb(255,255,255)" stroke="rgb(255,255,255)" stroke-width="1" opacity="1" d="M 27.5 26 Q 34.8 24.8 36 29.5 Q 36.8 35.3 33.5 37 L 28.5 38 L 25 35.5 L 24 29.5 L 27.5 26 Z " /><path fill="rgb(255,255,255)" stroke="rgb(255,255,255)" stroke-width="1" opacity="1" d="M 51.5 26 Q 57.8 24.8 59 28.5 L 60 32.5 L 55.5 38 Q 49.3 38.7 48 34.5 Q 47.4 29.1 49 27 L 51.5 26 Z " /><path fill="rgb(255,255,255)" stroke="rgb(255,255,255)" stroke-width="1" opacity="1" d="M 5.5 49 Q 10.3 49.3 12 52.5 Q 13.5 59.5 9.5 61 Q 2.5 62.5 1 58.5 L 0 54.5 L 3.5 50 L 5.5 49 Z " /><path fill="rgb(255,255,255)" stroke="rgb(255,255,255)" stroke-width="1" opacity="1" d="M 29.5 49 L 35 51.5 L 36 57.5 Q 34.8 62.2 27.5 61 Q 23 60 24 53.5 L 25 51 L 29.5 49 Z " /><path fill="rgb(255,255,255)" stroke="rgb(255,255,255)" stroke-width="1" opacity="1" d="M 53.5 49 L 59 52.5 L 60 56.5 L 56.5 61 Q 49.5 62.5 48 58.5 Q 46.5 51.5 50.5 50 L 53.5 49 Z " /></svg>