<svg version="1.0" xmlns="http://www.w3.org/2000/svg"
 width="512.000000pt" height="512.000000pt" viewBox="0 0 512.000000 512.000000"
 preserveAspectRatio="xMidYMid meet">
<g transform="translate(0.000000,512.000000) scale(0.100000,-0.100000)"
fill="#000000" stroke="none">
<path d="M1720 5005 c-836 -114 -1494 -776 -1605 -1614 -19 -139 -19 -351 0
-495 70 -536 370 -1016 825 -1320 187 -125 444 -230 681 -278 100 -20 143 -23
354 -23 312 0 446 24 705 128 l105 42 611 -610 c654 -652 665 -662 809 -708
58 -18 92 -22 200 -21 115 0 138 3 204 27 361 131 522 537 349 882 -17 33 -44
78 -61 100 -17 22 -296 306 -620 631 l-589 591 46 114 c89 223 127 429 127
683 0 356 -93 690 -274 981 -305 493 -801 817 -1360 890 -140 18 -375 18 -507
0z m411 -206 c636 -64 1161 -464 1399 -1065 133 -334 144 -753 30 -1109 -155
-481 -531 -869 -1010 -1043 -200 -72 -348 -97 -580 -97 -150 1 -206 5 -298 23
-359 72 -682 253 -923 517 -403 442 -539 1066 -355 1629 186 567 663 996 1243
1117 181 38 324 46 494 28z m2629 -3890 c80 -173 55 -342 -72 -468 -97 -97
-235 -144 -356 -122 -140 25 -125 12 -759 644 -320 319 -580 584 -577 588 2 4
40 33 84 63 166 117 318 270 438 440 l55 78 578 -578 c533 -534 580 -584 609
-645z"/>
<path d="M1005 4016 c-178 -186 -292 -442 -325 -725 -23 -193 -1 -251 96 -251
84 0 114 43 114 166 0 225 111 487 293 692 39 44 47 59 47 93 0 51 -13 75 -50
94 -63 32 -88 23 -175 -69z"/>
</g>
</svg>
