<svg width="16" height="17" viewBox="0 0 16 17" fill="none" xmlns="http://www.w3.org/2000/svg">
<path fill-rule="evenodd" clip-rule="evenodd" d="M3.70206 7.07582C4.05763 7.0108 4.38195 7.20656 4.44754 7.5605C4.54413 8.14189 4.8031 8.62688 5.22722 9.04946C5.64837 9.4377 6.1693 9.72693 6.72125 9.82629C7.04568 9.89165 7.27342 10.2155 7.20784 10.5695C7.14238 10.8927 6.84907 11.125 6.49362 11.0845C5.68258 10.9231 4.93723 10.5351 4.35083 9.95406C3.76752 9.37299 3.37763 8.62688 3.21546 7.81835C3.14989 7.46442 3.3433 7.14184 3.70206 7.07582ZM6.98022 0.996464C10.4455 0.996464 13.2589 3.79659 13.2589 7.25296C13.2589 8.1821 13.0561 9.06482 12.6912 9.85733L15.0274 11.8934C16.7304 13.6395 15.7728 15.1592 15.3206 15.6102C14.8994 16.0638 13.3275 17.0247 11.5901 15.3184L9.53157 12.9683C8.75178 13.3134 7.89094 13.5065 6.9832 13.5065C3.51483 13.5065 0.704624 10.7054 0.704624 7.2497C0.704624 3.79398 3.51174 0.996464 6.98022 0.996464ZM12.5259 14.5131C12.819 14.837 13.6519 15.3805 14.4066 14.7392C14.6157 14.5631 15.0398 13.6706 14.1789 12.8656L12.0175 10.9858C11.6337 11.4983 11.1753 11.9525 10.6545 12.3257L12.5259 14.5131ZM6.98022 12.2009C9.72189 12.2009 11.9457 9.98478 11.9457 7.25296C11.9457 4.52114 9.72189 2.30536 6.98022 2.30536C4.23845 2.30536 2.01464 4.52114 2.01464 7.25296C2.01464 9.98478 4.23536 12.2009 6.98022 12.2009Z" fill="#243F4D"/>
</svg>
