<svg width="37" height="38" fill="none" xmlns="http://www.w3.org/2000/svg"><path fill-rule="evenodd" clip-rule="evenodd" d="M.002 35.969c0 1.098.885 1.991 1.973 1.991h25.496a1.985 1.985 0 001.973-1.991V22.067a.906.906 0 00-.902-.91.907.907 0 00-.902.91V35.97a.17.17 0 01-.168.17H1.975a.17.17 0 01-.168-.17V9.602H7.31a1.984 1.984 0 001.974-1.99V2.06h18.188a.17.17 0 01.168.17v2.873c0 .502.404.91.902.91a.907.907 0 00.902-.91V2.23A1.984 1.984 0 0027.472.24H8.381c-.24 0-.47.096-.639.267L.266 8.048a.916.916 0 00-.264.643V35.97zM7.31 7.782H3.083l4.395-4.435v4.265a.17.17 0 01-.168.17zM6.158 30.579c0 .503.404.911.901.911h4.626s.198-.022.226-.03l5.697-1.594a.907.907 0 00.396-.234l17.485-17.64a3.102 3.102 0 000-4.356l-1.062-1.071a3.037 3.037 0 00-4.318 0l-8.429 8.503H7.06a.906.906 0 00-.902.91c0 .503.404.91.901.91h12.816l-5.432 5.48H7.06a.906.906 0 00-.901.91c0 .504.404.912.901.912h5.58l-.015.014a.908.908 0 00-.231.4L11 29.67H7.06a.906.906 0 00-.901.91zm6.824-1.307l2.652-.744-1.916-1.933-.736 2.677zm1.556-4.424l2.828 2.853L31.8 13.14l-2.828-2.852-14.434 14.561zM31.384 7.852l-1.136 1.147 2.828 2.853 1.136-1.147a1.27 1.27 0 000-1.782L33.15 7.852a1.24 1.24 0 00-1.766 0z" fill="#A3BBC8"/></svg>