<svg width="52" height="54" fill="none" xmlns="http://www.w3.org/2000/svg"><path opacity=".34" fill-rule="evenodd" clip-rule="evenodd" d="M41.984 33.594c5.411 0 9.797 4.393 9.797 9.812 0 5.42-4.386 9.813-9.797 9.813-5.41 0-9.797-4.394-9.797-9.813 0-5.42 4.387-9.812 9.797-9.812z" fill="#A3BBC8"/><path fill-rule="evenodd" clip-rule="evenodd" d="M42.691 3.623a.94.94 0 01.96.915l.096 4.06a.938.938 0 01-.915.96l-4.06.096h-.023a.937.937 0 01-.022-1.874l1.843-.043a22.76 22.76 0 00-15.107-5.768c-12.506 0-22.68 10.175-22.68 22.682 0 6.14 2.414 11.89 6.799 16.192a.937.937 0 11-1.313 1.338C3.52 37.525.907 31.299.907 24.65.907 11.11 11.923.094 25.463.094c3.485 0 6.853.715 10.01 2.126a24.405 24.405 0 016.345 4.112l-.042-1.749a.938.938 0 01.915-.96zm2.329 7.746a.938.938 0 011.292.3 24.496 24.496 0 013.707 12.98c0 13.54-11.016 24.557-24.556 24.557A24.349 24.349 0 0110.735 44.3a.937.937 0 111.126-1.5 22.486 22.486 0 0013.602 4.53c12.506 0 22.681-10.174 22.681-22.68 0-4.254-1.184-8.399-3.423-11.988a.938.938 0 01.299-1.293zM15.732 33.61h7.55a.938.938 0 010 1.875h-9.814a.937.937 0 01-.663-1.601l6.344-6.343c2.06-2.06 3.195-4.8 3.195-7.714 0-2.189-1.78-3.97-3.97-3.97a3.973 3.973 0 00-3.968 3.97.938.938 0 11-1.875 0 5.851 5.851 0 015.844-5.844 5.851 5.851 0 015.844 5.844 12.7 12.7 0 01-3.744 9.039l-4.743 4.743zm22.59-6.439H35.72v-1.516a.938.938 0 10-1.875 0v1.517h-5.286l5.286-8.852v4.21a.937.937 0 101.875 0v-7.618a.936.936 0 00-1.743-.473l-7.875 13.19a.937.937 0 00.805 1.418h6.938v5.5a.938.938 0 001.875 0v-5.5h2.601a.938.938 0 000-1.875z" fill="#A3BBC8"/></svg>