<svg width="16" height="17" fill="none" xmlns="http://www.w3.org/2000/svg"><path fill-rule="evenodd" clip-rule="evenodd" d="M3.702 7.076c.356-.065.68.13.746.485.096.58.355 1.066.78 1.488.42.389.941.678 1.493.777.325.066.552.39.487.743a.643.643 0 01-.714.515 4.2 4.2 0 01-2.143-1.13 4.164 4.164 0 01-1.136-2.136c-.065-.354.128-.676.487-.742zM6.98.996c3.465 0 6.279 2.8 6.279 6.257 0 .93-.203 1.812-.568 2.604l2.336 2.036c1.703 1.746.746 3.266.294 3.717-.422.454-1.993 1.415-3.73-.292l-2.06-2.35c-.78.345-1.64.539-2.548.539-3.468 0-6.278-2.802-6.278-6.257C.705 3.794 3.512.996 6.98.996zm5.546 13.517c.293.324 1.126.867 1.88.226.21-.176.634-1.068-.227-1.873l-2.162-1.88a6.27 6.27 0 01-1.362 1.34l1.87 2.187zM6.98 12.201c2.742 0 4.966-2.216 4.966-4.948S9.722 2.305 6.98 2.305 2.015 4.521 2.015 7.253s2.22 4.948 4.965 4.948z" fill="#243F4D"/></svg>