<svg width="74" height="60" fill="none" xmlns="http://www.w3.org/2000/svg"><path fill-rule="evenodd" clip-rule="evenodd" d="M56.5 25.625c9.32 0 16.875 7.555 16.875 16.875S65.82 59.375 56.5 59.375 39.625 51.82 39.625 42.5 47.18 25.625 56.5 25.625z" fill="#A3BBC8"/><path fill-rule="evenodd" clip-rule="evenodd" d="M3.365 0h57.27A3.365 3.365 0 0164 3.357V44.5a3.365 3.365 0 01-3.365 3.357H38.944l.877 7h3.633a1.072 1.072 0 110 2.143H20.546a1.073 1.073 0 110-2.143h3.634l.877-7H3.364A3.365 3.365 0 010 44.5V3.357A3.365 3.365 0 013.365 0zM27.22 47.857l-.877 7h11.312l-.877-7H27.22zm33.414-2.143c.672 0 1.217-.545 1.217-1.214V3.357c0-.67-.545-1.214-1.217-1.214H3.365c-.672 0-1.217.544-1.217 1.214V44.5c0 .67.545 1.214 1.217 1.214h57.27zM5.655 4.57h44.672a1.073 1.073 0 110 2.143H6.729V40h2.363a1.072 1.072 0 110 2.143H5.656c-.594 0-1.074-.48-1.074-1.072V5.643c0-.592.48-1.072 1.074-1.072zm52.69 0h-3.437a1.073 1.073 0 100 2.143h2.363V40H13.673a1.072 1.072 0 100 2.143h44.671c.593 0 1.074-.48 1.074-1.072V5.643c0-.592-.48-1.072-1.074-1.072zm-10.238 9.072a3.365 3.365 0 016.73 0 3.365 3.365 0 01-4.773 3.047l-8.604 9.09c.252.47.395 1.007.395 1.577a3.365 3.365 0 11-6.685-.542l-7.348-3.881a3.355 3.355 0 01-3.852.55l-8.406 8.14c.21.439.329.93.329 1.447a3.365 3.365 0 01-6.73 0 3.365 3.365 0 014.904-2.983l8.407-8.142a3.331 3.331 0 01-.33-1.446 3.365 3.365 0 116.686.541l7.347 3.882a3.354 3.354 0 013.722-.614l8.603-9.09a3.332 3.332 0 01-.395-1.576zM11.311 33.07a1.217 1.217 0 002.434 0 1.217 1.217 0 00-2.434 0zM24.292 20.5a1.217 1.217 0 002.434 0 1.217 1.217 0 00-2.434 0zm12.982 6.857a1.217 1.217 0 002.434 0 1.217 1.217 0 00-2.434 0zm12.981-13.714a1.217 1.217 0 002.434 0 1.217 1.217 0 00-2.434 0zm.143 6.857a1.073 1.073 0 012.148 0v16c0 .592-.481 1.071-1.074 1.071-.593 0-1.074-.48-1.074-1.071v-16zM25.51 26.286c-.593 0-1.073.48-1.073 1.071V36.5a1.073 1.073 0 002.148 0v-9.143c0-.592-.482-1.071-1.075-1.071zm11.908 7.928a1.073 1.073 0 012.148 0V36.5c0 .592-.481 1.071-1.074 1.071-.593 0-1.074-.48-1.074-1.071v-2.286z" fill="#243F4D"/></svg>