<svg width="0" height="0" class="hidden">
  <symbol fill="inherit" xmlns="http://www.w3.org/2000/svg" viewBox="0 0 22 10" id="icon-arrow">
    <path fill-rule="evenodd" clip-rule="evenodd" d="M0.2959 6.47195L0.287782 6.47163H17.244L17.1435 9.32928C17.0893 9.3832 17.0595 9.45641 17.0595 9.53419C17.0595 9.61099 17.0893 9.68485 17.1435 9.73878L17.3161 9.91133C17.3703 9.96721 17.4425 9.99728 17.5197 9.99728C17.5967 9.99728 17.6692 9.96721 17.7234 9.91296L21.9157 5.70166C21.9702 5.64709 21.9998 5.57388 21.9998 5.49609C21.9998 5.4193 21.9702 5.34577 21.9157 5.29282L17.7234 1.07988C17.6692 1.02661 17.5967 0.99622 17.5197 0.99622C17.4425 0.99622 17.3703 1.02661 17.3161 1.07988L17.1435 1.25342C17.0893 1.30865 17.0595 1.38022 17.0595 1.45703C17.0595 1.53448 17.0893 1.60311 17.1435 1.65834L17.2565 4.52253H0.291896C0.133166 4.52253 -0.000374 4.65848 -0.000374 4.81764V6.18764C-0.000374 6.34679 0.13706 6.47195 0.2959 6.47195Z" fill="inherit"></path>
  </symbol>
  <symbol fill="inherit" xmlns="http://www.w3.org/2000/svg" viewBox="0 0 21 21" id="icon-burger">
    <path fill-rule="evenodd" clip-rule="evenodd" d="M2.14572 4.88055C0.95908 4.88055 -0.00016 3.92135 -0.00016 2.73502C-0.00016 1.54804 0.95908 0.589176 2.14572 0.589176C3.33258 0.589176 4.2917 1.54804 4.2917 2.73502C4.2917 3.92135 3.33258 4.88055 2.14572 4.88055ZM2.14572 12.7499C0.95908 12.7499 -0.00016 11.7897 -0.00016 10.603C-0.00016 9.41669 0.95908 8.45783 2.14572 8.45783C3.33258 8.45783 4.2917 9.41669 4.2917 10.603C4.2917 11.7897 3.33258 12.7499 2.14572 12.7499ZM-0.00016 18.472C-0.00016 19.659 0.95908 20.6179 2.14572 20.6179C3.33258 20.6179 4.2917 19.659 4.2917 18.472C4.2917 17.2854 3.33258 16.3262 2.14572 16.3262C0.95908 16.3262 -0.00016 17.2854 -0.00016 18.472ZM10.0143 4.88055C8.82758 4.88055 7.86834 3.92135 7.86834 2.73502C7.86834 1.54804 8.82758 0.589176 10.0143 0.589176C11.2011 0.589176 12.1602 1.54804 12.1602 2.73502C12.1602 3.92135 11.2011 4.88055 10.0143 4.88055ZM7.86834 10.603C7.86834 11.7897 8.82758 12.7499 10.0143 12.7499C11.2011 12.7499 12.1602 11.7897 12.1602 10.603C12.1602 9.41669 11.2011 8.45783 10.0143 8.45783C8.82758 8.45783 7.86834 9.41669 7.86834 10.603ZM10.0143 20.6179C8.82758 20.6179 7.86834 19.659 7.86834 18.472C7.86834 17.2854 8.82758 16.3262 10.0143 16.3262C11.2011 16.3262 12.1602 17.2854 12.1602 18.472C12.1602 19.659 11.2011 20.6179 10.0143 20.6179ZM15.7369 2.73502C15.7369 3.92135 16.6962 4.88055 17.8828 4.88055C19.0696 4.88055 20.0288 3.92135 20.0288 2.73502C20.0288 1.54804 19.0696 0.589176 17.8828 0.589176C16.6962 0.589176 15.7369 1.54804 15.7369 2.73502ZM17.8828 12.7499C16.6962 12.7499 15.7369 11.7897 15.7369 10.603C15.7369 9.41669 16.6962 8.45783 17.8828 8.45783C19.0696 8.45783 20.0288 9.41669 20.0288 10.603C20.0288 11.7897 19.0696 12.7499 17.8828 12.7499ZM15.7369 18.472C15.7369 19.659 16.6962 20.6179 17.8828 20.6179C19.0696 20.6179 20.0288 19.659 20.0288 18.472C20.0288 17.2854 19.0696 16.3262 17.8828 16.3262C16.6962 16.3262 15.7369 17.2854 15.7369 18.472Z" fill="inherit"></path>
  </symbol>
  <symbol fill="inherit" xmlns="http://www.w3.org/2000/svg" viewBox="0 0 22 21" id="icon-cart(1)">
    <path fill-rule="evenodd" clip-rule="evenodd" d="M0.813714 2.62876H3.14681L6.47018 14.6666C6.56517 15.0202 6.89075 15.2643 7.25696 15.2643H17.4713C17.7969 15.2643 18.0817 15.0748 18.2173 14.7757L21.934 6.21552C22.0426 5.95702 22.0154 5.6727 21.8662 5.44032C21.7169 5.21058 21.4592 5.07398 21.188 5.07398H9.90216C9.45446 5.07398 9.08824 5.44032 9.08824 5.88904C9.08824 6.3384 9.45446 6.70542 9.90216 6.70542H19.9401L16.9287 13.6335H7.8674L4.54403 1.59636C4.44915 1.24308 4.12357 0.99796 3.75736 0.99796H0.813714C0.366124 0.99796 -0.000198 1.3653 -0.000198 1.81402C-0.000198 2.26176 0.366124 2.62876 0.813714 2.62876ZM6.4838 20.9986C7.50119 20.9986 8.32858 20.1694 8.32858 19.1504C8.32858 18.1311 7.50119 17.303 6.4838 17.303C5.46643 17.303 4.63901 18.1311 4.63901 19.1504C4.63901 20.1694 5.46643 20.9986 6.4838 20.9986ZM18.1495 20.9986H18.0138C17.0507 20.9986 16.2504 20.2377 16.1827 19.273C16.1148 18.2671 16.8745 17.3709 17.8919 17.303C18.9091 17.235 19.7909 18.0089 19.8586 19.0151C19.8859 19.5171 19.7366 19.9936 19.411 20.3596C19.0855 20.74 18.6379 20.9577 18.1495 20.9986Z" fill="inherit"></path>
  </symbol>
  <symbol fill="none" xmlns="http://www.w3.org/2000/svg" viewBox="0 0 19 18" id="icon-cart">
    <path fill-rule="evenodd" clip-rule="evenodd" d="M2.39516 15.1224C2.47606 15.1606 2.56133 15.1783 2.64533 15.1783C2.86849 15.1783 3.08203 15.0515 3.18227 14.8374C3.65665 13.821 4.53268 13.3285 5.86226 13.3276C5.86832 13.3256 5.87611 13.3256 5.88481 13.3276H16.2401C16.5084 13.3276 16.7435 13.1465 16.8129 12.888L18.936 4.93208C18.9831 4.75527 18.9455 4.56507 18.8328 4.41899C18.7209 4.27289 18.5473 4.18694 18.3632 4.18694H4.31078H4.29305C2.74466 4.18694 1.40684 3.03657 1.17785 1.50512C1.12909 1.18061 0.819755 0.951176 0.50483 1.00641C0.180956 1.05413 -0.042313 1.35511 0.006555 1.67964C0.321366 3.78888 2.16171 5.37262 4.28961 5.37262H4.3141H17.592L15.7851 12.1438H6.36202L5.27071 6.56582C5.20697 6.24586 4.89649 6.0318 4.57549 6.09782C4.25448 6.16089 4.04527 6.47267 4.10788 6.79328L5.16268 12.1844C3.73629 12.3615 2.68801 13.0955 2.10917 14.3351C1.97036 14.6315 2.09864 14.9838 2.39516 15.1224ZM13.9185 17.9778C13.3815 17.9778 12.8541 17.768 12.4568 17.3712C11.86 16.7761 11.6826 15.8907 12.0048 15.111C12.3258 14.3341 13.0768 13.8309 13.9185 13.8309C14.4641 13.791 14.9983 14.0488 15.386 14.4341C15.7783 14.8266 15.9934 15.3456 15.9934 15.8996C15.9962 16.7392 15.4959 17.4931 14.7186 17.8167C14.4594 17.9251 14.1875 17.9765 13.9185 17.9778ZM5.52649 17.9778C4.98965 17.9778 4.46264 17.768 4.06496 17.3712C3.46815 16.7774 3.29076 15.8907 3.61236 15.111C3.93439 14.3341 4.6858 13.8309 5.52718 13.8309H5.53255C6.08336 13.8309 6.60212 14.0446 6.99362 14.4335C7.38593 14.8266 7.60199 15.3456 7.60199 15.8996C7.60393 16.7405 7.10292 17.4931 6.3254 17.8167C6.06653 17.9251 5.79508 17.9778 5.52649 17.9778ZM5.53255 15.0146H5.52854C5.16749 15.0146 4.84546 15.2303 4.7071 15.5636C4.56977 15.897 4.64541 16.2787 4.90107 16.5329C5.15685 16.7869 5.53759 16.862 5.8698 16.7244C6.2034 16.5849 6.41799 16.2614 6.41706 15.9006C6.41706 15.6636 6.32449 15.4411 6.15661 15.2721C5.99055 15.1074 5.76819 15.0146 5.53255 15.0146ZM13.9226 15.0146H13.9243C14.1567 15.0146 14.3842 15.109 14.549 15.2721C14.7168 15.4411 14.8094 15.6636 14.8094 15.9009C14.8104 16.2614 14.5954 16.5849 14.2627 16.7244C13.931 16.862 13.5493 16.7882 13.2928 16.5329C13.0374 16.2787 12.9612 15.897 13.1 15.5629C13.2379 15.2296 13.5917 15.0469 13.9226 15.0146Z" fill="#243F4D"></path>
  </symbol>
  <symbol fill="none" xmlns="http://www.w3.org/2000/svg" viewBox="0 0 19 17" id="icon-heart">
    <path fill-rule="evenodd" clip-rule="evenodd" d="M9.91293 16.2445C9.81771 16.2445 9.72239 16.2265 9.63347 16.1882C9.28007 16.0386 0.983098 12.4387 0.983098 5.42859C1.0743 2.7788 3.1901 0.721191 5.8006 0.721191C7.54412 0.721191 9.06675 1.63921 9.91293 3.0311C10.7596 1.63921 12.2823 0.721191 14.0251 0.721191C16.6345 0.721191 18.7503 2.7788 18.8421 5.40474C18.8421 12.4387 10.5451 16.0386 10.1929 16.1882C10.1034 16.2265 10.0081 16.2445 9.91293 16.2445ZM5.8006 2.10623C3.95432 2.10623 2.45755 3.5759 2.39279 5.45246C2.39324 10.8596 8.51766 14.1149 9.91293 14.7869C11.3082 14.1149 17.4331 10.8569 17.4331 5.42859C17.3676 3.5759 15.8701 2.10623 14.0251 2.10623C12.1801 2.10623 10.6829 3.5759 10.6173 5.45246C10.6048 5.82502 10.2925 6.12145 9.91293 6.12145V6.12145C9.53252 6.12145 9.22101 5.82502 9.20831 5.45246C9.14354 3.5759 7.64664 2.10623 5.8006 2.10623Z" fill="#243F4D"></path>
  </symbol>
  <symbol fill="inherit" xmlns="http://www.w3.org/2000/svg" viewBox="0 0 22 18" id="icon-like">
    <path fill-rule="evenodd" clip-rule="evenodd" d="M21.9897 5.82017C21.9068 4.26879 21.2503 2.81252 20.1412 1.71967C19.0155 0.609804 17.5454 -0.001008 16.002 -0.001008C13.6907 -0.001008 12.0542 1.78405 11.1751 2.74356C11.125 2.79848 11.0713 2.85664 11.0187 2.91317C10.9906 2.8818 10.9627 2.84945 10.936 2.81939C10.1324 1.903 8.46008 -0.001008 5.9981 -0.001008C4.45463 -0.001008 2.98476 0.609804 1.859 1.71967C0.749848 2.81252 0.093412 4.26879 0.010428 5.82017C-0.071962 7.36142 0.31988 8.70037 1.28084 10.158C2.14201 11.4655 4.38482 13.5323 6.04364 14.9055C7.7486 16.3167 9.99427 17.9985 11.0095 17.9985C12.0408 17.9985 14.2785 16.3193 15.974 14.9118C17.6199 13.5447 19.8502 11.4796 20.7196 10.1576C21.3664 9.17392 22.0952 7.79152 21.9897 5.82017ZM19.6136 9.43015C18.982 10.391 17.2018 12.1659 15.1835 13.8477C12.777 15.8523 11.3522 16.6429 11.0106 16.6736C10.6693 16.6386 9.24112 15.8409 6.82288 13.8313C4.79281 12.1453 3.00993 10.3773 2.38612 9.4295C1.59097 8.22323 1.26597 7.13167 1.33223 5.89109C1.46692 3.37235 3.56017 1.32161 5.9981 1.32161C7.86073 1.32161 9.21413 2.86416 9.94127 3.69198C10.3687 4.17958 10.6042 4.44724 11.0002 4.44724C11.4089 4.44724 11.6724 4.16063 12.1509 3.63773C12.9447 2.77168 14.273 1.32161 16.002 1.32161C18.44 1.32161 20.5331 3.37235 20.6679 5.89109C20.735 7.14541 20.4197 8.20395 19.6136 9.43015Z" fill="inherit"></path>
  </symbol>
  <symbol fill="none" xmlns="http://www.w3.org/2000/svg" viewBox="0 0 54 53" id="icon-payment">
    <path fill-rule="evenodd" clip-rule="evenodd" d="M45.5895 32.1514C45.5895 31.6899 45.9636 31.3151 46.4251 31.3151C46.8867 31.3151 47.2608 31.6899 47.2611 32.1514V40.4165C47.2611 42.5326 45.5413 44.2543 43.4271 44.2543H4.09218C1.97808 44.2543 0.258179 42.532 0.258179 40.4165V16.7968C0.258179 14.6803 1.97808 12.9587 4.09218 12.9581H29.2205C29.6821 12.9581 30.0562 13.3329 30.0562 13.7944C30.0562 14.2565 29.6821 14.6313 29.2205 14.6313H4.09218C2.89958 14.6313 1.92948 15.6029 1.92948 16.7968V19.6812H11.7978C12.2593 19.6812 12.6336 20.0561 12.6336 20.5176C12.6336 20.9797 12.2593 21.3542 11.7978 21.3542H1.92948V26.824H29.2205C29.6821 26.824 30.0562 27.1992 30.0562 27.6607C30.0562 28.1235 29.6821 28.4973 29.2205 28.4973H1.92948V40.4165C1.92948 41.6097 2.89958 42.5817 4.09218 42.5817H43.4268C44.6192 42.5817 45.5895 41.6097 45.5895 40.4165V32.1514ZM15.0041 19.6812H29.2205C29.6821 19.6812 30.0562 20.0561 30.0562 20.5182C30.0562 20.9803 29.6821 21.3548 29.2205 21.3548H15.0041C14.5426 21.3548 14.1685 20.9803 14.1685 20.5182C14.1685 20.0561 14.5426 19.6812 15.0041 19.6812ZM19.9819 31.2357H5.71083C5.24928 31.2357 4.87518 31.6109 4.87518 32.0727C4.87518 32.5351 5.24928 32.9096 5.71083 32.9096H19.9819C20.4435 32.9096 20.8176 32.5351 20.8176 32.0727C20.8176 31.6109 20.4435 31.2357 19.9819 31.2357ZM5.71083 35.228H13.8957C14.3572 35.228 14.7314 35.6026 14.7314 36.0643C14.7314 36.5271 14.3572 36.9013 13.8955 36.9013H5.71083C5.24928 36.9013 4.87518 36.5271 4.87518 36.0643C4.87518 35.6026 5.24928 35.228 5.71083 35.228ZM48.5341 21.6209C48.9958 21.6209 49.37 21.246 49.37 20.7842V16.0111C49.37 14.5549 48.343 13.3345 46.9761 13.0372V7.02054C46.9761 3.38017 44.0177 0.418274 40.3813 0.418274C36.7447 0.418274 33.7864 3.38017 33.7864 7.02054V13.0372C32.4196 13.3352 31.3931 14.5555 31.3931 16.0118V26.7587C31.3931 28.4375 32.7574 29.8033 34.4345 29.8033H46.3285C48.0054 29.8033 49.37 28.4375 49.37 26.7587V23.5729C49.37 23.1111 48.9958 22.7366 48.5341 22.7366C48.0726 22.7366 47.6984 23.1111 47.6984 23.5729V26.7587C47.6984 27.5146 47.0839 28.1297 46.3285 28.1297H34.4345C33.679 28.1297 33.0646 27.5146 33.0646 26.7587V16.0111C33.0646 15.2555 33.6793 14.6402 34.4345 14.6402H46.3285C47.0839 14.6402 47.6984 15.2555 47.6984 16.0111V20.7842C47.6985 21.246 48.0726 21.6209 48.5341 21.6209ZM45.3046 12.9672H35.4577V7.02054C35.4577 4.30245 37.6663 2.09223 40.3811 2.09223C43.0959 2.09223 45.3045 4.30245 45.3045 7.02054V12.9672H45.3046ZM40.3816 17.2886C38.6765 17.2886 37.2895 18.6769 37.2895 20.3842C37.2895 21.801 38.2457 22.9974 39.5458 23.3631V25.4037C39.5458 25.8662 39.9199 26.2397 40.3816 26.2397C40.8431 26.2397 41.2174 25.8662 41.2174 25.4037V23.3631C42.5174 22.9974 43.4737 21.801 43.4737 20.3842C43.4736 18.6769 42.0864 17.2886 40.3816 17.2886ZM40.3816 21.8062C39.5981 21.8062 38.9609 21.1686 38.9609 20.3842C38.9609 19.5999 39.5981 18.9623 40.3816 18.9623C41.1648 18.9623 41.8023 19.6005 41.8023 20.3842C41.8023 21.1686 41.1648 21.8062 40.3816 21.8062Z" fill="#A3BBC8"></path>
    <path opacity="0.34" fill-rule="evenodd" clip-rule="evenodd" d="M44 33.0622C49.4192 33.0622 53.8125 37.4484 53.8125 42.8591C53.8125 48.2698 49.4192 52.656 44 52.656C38.5806 52.656 34.1875 48.2698 34.1875 42.8591C34.1875 37.4484 38.5806 33.0622 44 33.0622Z" fill="#A3BBC8"></path>
  </symbol>
  <symbol fill="none" xmlns="http://www.w3.org/2000/svg" viewBox="0 0 127 127" id="icon-play-video">
    <path opacity="0.4" fill-rule="evenodd" clip-rule="evenodd" d="M63.5 -0.000127C98.57 -0.000127 127 28.4298 127 63.4997C127 98.57 98.57 127 63.5 127C28.43 127 -0.000127 98.57 -0.000127 63.4997C-0.000127 28.4298 28.43 -0.000127 63.5 -0.000127Z" fill="#A3BBC8"></path>
    <path fill-rule="evenodd" clip-rule="evenodd" d="M63 13.9998C90.0618 13.9998 112 35.9378 112 62.9998C112 90.0618 90.0618 112 63 112C35.9381 112 13.9999 90.0618 13.9999 62.9998C13.9999 35.9378 35.9381 13.9998 63 13.9998Z" fill="#A3BBC8"></path>
    <path fill-rule="evenodd" clip-rule="evenodd" d="M73.684 64.7397L57.6399 74.5362C57.1394 74.8425 56.5593 74.9967 55.9772 74.9967C55.4977 74.9967 55.0168 74.8915 54.5781 74.6804C53.6065 74.2101 52.9995 73.2931 52.9995 72.295V52.6999C52.9995 51.7012 53.6065 50.7829 54.5781 50.3136C55.5493 49.8453 56.7268 49.8998 57.6399 50.457L73.684 60.2549C74.5063 60.7572 74.9995 61.5978 74.9995 62.4965C74.9995 63.3959 74.5063 64.2371 73.684 64.7397Z" fill="white"></path>
  </symbol>
  <symbol fill="inherit" xmlns="http://www.w3.org/2000/svg" viewBox="0 0 7 12" id="icon-ref">
    <path fill-rule="evenodd" clip-rule="evenodd" d="M1.33335 11.6868C1.18366 11.6868 1.03385 11.6257 0.922383 11.5044C0.818706 11.3904 0.767088 11.2449 0.767088 11.0995C0.767088 10.9433 0.826483 10.7887 0.944013 10.6727L5.49098 6.19798L0.944013 1.72391C0.826483 1.60855 0.767088 1.45331 0.767088 1.29743C0.767088 1.15231 0.818706 1.00656 0.922383 0.89316C1.13799 0.656868 1.49562 0.647388 1.72278 0.870276L6.70005 5.76822C6.70463 5.77213 6.70932 5.77704 6.7139 5.78227C6.76173 5.83129 6.80053 5.88881 6.82731 5.95057V5.95057C6.82823 5.95057 6.82823 5.95091 6.82823 5.95091C6.86233 6.02868 6.87973 6.11234 6.87973 6.19536C6.87973 6.19634 6.87973 6.19732 6.87973 6.19798C6.87973 6.2836 6.86233 6.36889 6.82731 6.44734V6.44734C6.82731 6.44798 6.82628 6.44798 6.82628 6.44798C6.82628 6.44897 6.82628 6.44897 6.82628 6.44897C6.82628 6.44897 6.82628 6.44897 6.82628 6.44994C6.7987 6.5091 6.76173 6.56498 6.71481 6.61368C6.71024 6.61891 6.70463 6.62282 6.70005 6.62838L1.72278 11.5266C1.61361 11.6348 1.47342 11.6868 1.33335 11.6868Z" fill="inherit"></path>
  </symbol>
  <symbol fill="inherit" xmlns="http://www.w3.org/2000/svg" viewBox="0 0 20 21" id="icon-search(1)">
    <path fill-rule="evenodd" clip-rule="evenodd" d="M14.8618 13.209L19.4504 17.7981C20.1828 18.5305 20.1828 19.7184 19.4504 20.4482C18.7193 21.1809 17.5315 21.1809 16.799 20.4482L12.2105 15.8601C13.2737 15.1777 14.1782 14.2724 14.8618 13.209ZM7.4998 0.99764C11.6417 0.99764 14.9998 4.35728 14.9998 8.49864C14.9998 12.6403 11.6417 15.9987 7.4998 15.9987C3.35808 15.9987 -8e-05 12.6403 -8e-05 8.49864C-8e-05 4.35728 3.35808 0.99764 7.4998 0.99764ZM1.87492 8.49864C1.87492 11.6007 4.39812 14.1234 7.4998 14.1234C10.6016 14.1234 13.1248 11.6007 13.1248 8.49864C13.1248 5.39654 10.6016 2.87256 7.4998 2.87256C4.39812 2.87256 1.87492 5.39654 1.87492 8.49864ZM4.37488 8.49864H3.12484C3.12484 6.08676 5.08774 4.12328 7.4998 4.12328V5.37398C5.7769 5.37398 4.37488 6.77568 4.37488 8.49864Z" fill="inherit"></path>
  </symbol>
  <symbol fill="none" xmlns="http://www.w3.org/2000/svg" viewBox="0 0 16 17" id="icon-search">
    <path fill-rule="evenodd" clip-rule="evenodd" d="M3.70206 7.07582C4.05763 7.0108 4.38195 7.20656 4.44754 7.5605C4.54413 8.14189 4.8031 8.62688 5.22722 9.04946C5.64837 9.4377 6.1693 9.72693 6.72125 9.82629C7.04568 9.89165 7.27342 10.2155 7.20784 10.5695C7.14238 10.8927 6.84907 11.125 6.49362 11.0845C5.68258 10.9231 4.93723 10.5351 4.35083 9.95406C3.76752 9.37299 3.37763 8.62688 3.21546 7.81835C3.14989 7.46442 3.3433 7.14184 3.70206 7.07582ZM6.98022 0.996464C10.4455 0.996464 13.2589 3.79659 13.2589 7.25296C13.2589 8.1821 13.0561 9.06482 12.6912 9.85733L15.0274 11.8934C16.7304 13.6395 15.7728 15.1592 15.3206 15.6102C14.8994 16.0638 13.3275 17.0247 11.5901 15.3184L9.53157 12.9683C8.75178 13.3134 7.89094 13.5065 6.9832 13.5065C3.51483 13.5065 0.704624 10.7054 0.704624 7.2497C0.704624 3.79398 3.51174 0.996464 6.98022 0.996464ZM12.5259 14.5131C12.819 14.837 13.6519 15.3805 14.4066 14.7392C14.6157 14.5631 15.0398 13.6706 14.1789 12.8656L12.0175 10.9858C11.6337 11.4983 11.1753 11.9525 10.6545 12.3257L12.5259 14.5131ZM6.98022 12.2009C9.72189 12.2009 11.9457 9.98478 11.9457 7.25296C11.9457 4.52114 9.72189 2.30536 6.98022 2.30536C4.23845 2.30536 2.01464 4.52114 2.01464 7.25296C2.01464 9.98478 4.23536 12.2009 6.98022 12.2009Z" fill="#243F4D"></path>
  </symbol>
  <symbol fill="none" xmlns="http://www.w3.org/2000/svg" viewBox="0 0 55 37" id="icon-shipping">
    <path fill-rule="evenodd" clip-rule="evenodd" d="M3.69036 5.33364H9.81641C10.2503 5.33364 10.6017 5.68563 10.6017 6.11931C10.6017 6.55395 10.2503 6.90594 9.81641 6.90594H3.69036C3.25676 6.90594 2.90511 6.55395 2.90511 6.11931C2.90511 5.68563 3.25676 5.33364 3.69036 5.33364ZM4.73776 16.34H10.34C10.7737 16.34 11.1255 16.692 11.1255 17.126C11.1255 17.56 10.7738 17.9117 10.3402 17.9117H4.73776C4.30401 17.9117 3.95246 17.56 3.95246 17.126C3.95246 16.692 4.30401 16.34 4.73776 16.34ZM8.24556 11.6231H1.59611C1.16226 11.6231 0.810608 11.9748 0.810608 12.4088C0.810608 12.8431 1.16226 13.1951 1.59611 13.1951H8.24556C8.67931 13.1951 9.03101 12.8431 9.03101 12.4088C9.03101 11.9748 8.67931 11.6231 8.24556 11.6231ZM7.60151 22.6289H8.24556C8.67931 22.6289 9.03101 22.9815 9.03101 23.4155C9.03101 23.8495 8.67931 24.2018 8.24556 24.2018H7.60151C7.16766 24.2018 6.81601 23.8495 6.81601 23.4155C6.81601 22.9815 7.16766 22.6289 7.60151 22.6289ZM4.98346 22.6289H1.59611C1.16226 22.6289 0.810608 22.9815 0.810608 23.4155C0.810608 23.8495 1.16226 24.2018 1.59611 24.2018H4.98346C5.41706 24.2018 5.76876 23.8495 5.76876 23.4155C5.76876 22.9815 5.41706 22.6289 4.98346 22.6289ZM35.1858 2.76915H41.8431C46.298 2.76915 49.9225 6.39708 49.9222 10.8551V24.9404C49.9222 25.3741 49.5707 25.7267 49.1369 25.7267H46.3545C45.9768 28.0997 43.9184 29.9194 41.4429 29.9194C38.9673 29.9194 36.9089 28.0997 36.5313 25.7267H25.2793C24.9017 28.0997 22.8431 29.9194 20.3676 29.9194C17.8921 29.9194 15.8337 28.0997 15.4558 25.7267H13.0369C12.6032 25.7267 12.2516 25.3741 12.2516 24.9404V1.35372C12.2516 0.919709 12.6032 0.567749 13.0369 0.567749H19.0835C19.5172 0.567749 19.8688 0.919709 19.8688 1.35372C19.8688 1.78806 19.5172 2.14035 19.0835 2.14035H13.8224V24.1541H15.4558C15.8337 21.7805 17.8921 19.9611 20.3676 19.9611C22.8431 19.9611 24.9016 21.7805 25.2793 24.1541H33.615V23.0289C33.615 22.5949 33.9665 22.2432 34.4004 22.2432C34.8342 22.2432 35.1857 22.5949 35.1857 23.0289V24.1541H36.5313C36.9089 21.7805 38.9673 19.9611 41.4429 19.9611C43.9187 19.9611 45.977 21.7805 46.3547 24.1541H48.3516V10.8551C48.3516 7.26381 45.4318 4.34178 41.8431 4.34178H35.1857V19.3601C35.1857 19.7941 34.8342 20.1461 34.4004 20.1461C33.9665 20.1461 33.615 19.7941 33.615 19.3601V2.14035H22.2251C21.7914 2.14035 21.4397 1.78806 21.4397 1.35372C21.4397 0.919709 21.7914 0.567749 22.2251 0.567749H34.4004C34.8342 0.567749 35.1858 0.919709 35.1858 1.35372V2.76915ZM16.9641 24.9404C16.9641 26.8193 18.4909 28.3474 20.3676 28.3474C22.2442 28.3474 23.7711 26.8193 23.7711 24.9404C23.7711 23.0619 22.2442 21.5341 20.3676 21.5341C18.4909 21.5341 16.9641 23.0619 16.9641 24.9404ZM38.0397 24.9411C38.0401 26.8193 39.5667 28.3474 41.4432 28.3474C43.3197 28.3474 44.8466 26.8193 44.8466 24.9404C44.8466 23.0619 43.3197 21.5341 41.4432 21.5341C39.5667 21.5341 38.0401 23.0612 38.0397 24.9398V24.9404V24.9411ZM37.5421 5.91438H41.8431C44.5657 5.91438 46.7807 8.13051 46.7807 10.8551V14.0902C46.7807 14.5246 46.429 14.8769 45.9954 14.8769H37.5421C37.1084 14.8769 36.7567 14.5246 36.7567 14.0902V6.70005C36.7567 6.26637 37.1084 5.91438 37.5421 5.91438ZM38.3277 13.3043H45.21V10.8551C45.21 8.99787 43.6997 7.48668 41.8431 7.48668H38.3277V13.3043ZM18.3427 24.9404C18.3427 23.8227 19.2512 22.9135 20.3676 22.9135C21.4842 22.9135 22.3924 23.8227 22.3924 24.9404C22.3924 26.0578 21.4842 26.9673 20.3676 26.9673C19.2512 26.9673 18.3427 26.0578 18.3427 24.9404ZM19.9134 24.9404C19.9134 25.1911 20.1172 25.3954 20.3676 25.3954C20.618 25.3954 20.8217 25.1911 20.8217 24.9404C20.8217 24.6894 20.618 24.4858 20.3676 24.4858C20.1172 24.4858 19.9134 24.6894 19.9134 24.9404ZM39.4182 24.9404C39.4182 23.8227 40.3266 22.9135 41.4432 22.9135C42.5597 22.9135 43.4681 23.8227 43.4681 24.9404C43.4681 26.0578 42.5597 26.9673 41.4432 26.9673C40.3266 26.9673 39.4182 26.0578 39.4182 24.9404ZM40.989 24.9404C40.989 25.1911 41.1928 25.3954 41.4432 25.3954C41.6932 25.3954 41.8972 25.1911 41.8972 24.9404C41.8972 24.6894 41.6935 24.4858 41.4432 24.4858C41.1927 24.4858 40.989 24.6894 40.989 24.9404ZM45.21 17.8123C45.21 17.3773 45.5616 17.0254 45.9954 17.0254C46.429 17.0254 46.7807 17.3773 46.7807 17.8123V19.8036C46.7807 20.2376 46.429 20.5899 45.9954 20.5899C45.5616 20.5899 45.21 20.2376 45.21 19.8036V17.8123Z" fill="#A3BBC8"></path>
    <path opacity="0.34" fill-rule="evenodd" clip-rule="evenodd" d="M44.7499 17.4061C50.1693 17.4061 54.5624 21.7922 54.5624 27.2029C54.5624 32.6136 50.1693 36.9998 44.7499 36.9998C39.3307 36.9998 34.9374 32.6136 34.9374 27.2029C34.9374 21.7922 39.3307 17.4061 44.7499 17.4061Z" fill="#A3BBC8"></path>
  </symbol>
  <symbol fill="inherit" xmlns="http://www.w3.org/2000/svg" viewBox="0 0 20 20" id="icon-time">
    <path fill-rule="evenodd" clip-rule="evenodd" d="M17.8954 5.26146C17.4813 5.46162 17.3079 5.95982 17.5083 6.37466C18.0558 7.50558 18.3333 8.72428 18.3333 9.9994C18.3333 14.5939 14.5949 18.3323 9.99992 18.3323C5.405 18.3323 1.66668 14.5939 1.66668 9.9994C1.66668 5.40404 5.405 1.66612 9.99992 1.66612C11.9041 1.66612 13.6927 2.28756 15.1732 3.46318C15.5324 3.75034 16.0575 3.69034 16.3442 3.32948C16.6307 2.96942 16.5708 2.44504 16.2103 2.15908C14.4575 0.76598 12.252 -0.00126 9.99992 -0.00126C4.48626 -0.00126 -4e-05 4.48536 -4e-05 9.9994C-4e-05 15.5126 4.48626 19.9988 9.99992 19.9988C15.5137 19.9988 20 15.5126 20 9.9994C20 8.47096 19.6664 7.00738 19.0084 5.6485C18.8083 5.23366 18.3082 5.06088 17.8954 5.26146ZM9.99992 3.33188C9.53998 3.33188 9.16668 3.70564 9.16668 4.16558V9.9994C9.16668 10.4585 9.53998 10.8323 9.99992 10.8323H14.1666C14.6266 10.8323 15 10.4585 15 9.9994C15 9.53904 14.6266 9.1657 14.1666 9.1657H10.8333V4.16558C10.8333 3.70564 10.46 3.33188 9.99992 3.33188Z" fill="inherit"></path>
  </symbol>
  <symbol fill="inherit" xmlns="http://www.w3.org/2000/svg" viewBox="0 0 20 20" id="icon-user">
    <g clip-path="url(#clip0_0_1500)">
      <path fill-rule="evenodd" clip-rule="evenodd" d="M17.0709 12.9277C15.9818 11.8383 14.6854 11.0324 13.2709 10.5443C14.7858 9.50074 15.7811 7.75482 15.7811 5.78016C15.7811 2.592 13.1877 -0.0013 9.9998 -0.0013C6.81206 -0.0013 4.2186 2.592 4.2186 5.78016C4.2186 7.75482 5.2139 9.50074 6.72886 10.5443C5.31436 11.0324 4.01798 11.8383 2.92884 12.9277C1.04 14.8166 -0.00016 17.3278 -0.00016 19.9984H1.5623C1.5623 15.3462 5.34732 11.5616 9.9998 11.5616C14.6523 11.5616 18.4373 15.3462 18.4373 19.9984H19.9999C19.9999 17.3278 18.9596 14.8166 17.0709 12.9277ZM5.78106 5.78016C5.78106 3.45348 7.67368 1.56136 9.9998 1.56136C12.326 1.56136 14.2186 3.45348 14.2186 5.78016C14.2186 8.10642 12.326 9.99894 9.9998 9.99894C7.67368 9.99894 5.78106 8.10642 5.78106 5.78016Z" fill="inherit"></path>
    </g>
    <defs>
      <clipPath id="clip0_0_1500">
        <rect width="20" height="20" fill="white"></rect>
      </clipPath>
    </defs>
  </symbol>
  <symbol fill="none" xmlns="http://www.w3.org/2000/svg" viewBox="0 0 52 54" id="icon-24">
    <path opacity="0.34" fill-rule="evenodd" clip-rule="evenodd" d="M41.9843 33.5936C47.395 33.5936 51.7812 37.9867 51.7812 43.4062C51.7812 48.8254 47.395 53.2187 41.9843 53.2187C36.5736 53.2187 32.1875 48.8254 32.1875 43.4062C32.1875 37.9867 36.5736 33.5936 41.9843 33.5936Z" fill="#A3BBC8"></path>
    <path fill-rule="evenodd" clip-rule="evenodd" d="M42.6912 3.62302C43.2077 3.61222 43.6385 4.02042 43.6509 4.53807L43.7471 8.59872C43.7595 9.11607 43.3498 9.54582 42.8322 9.55827L38.772 9.65432H38.7493C38.2416 9.65432 37.8245 9.24977 37.8124 8.73957C37.8 8.22192 38.2097 7.79182 38.7274 7.78042L40.5701 7.73662C36.435 4.04982 31.0407 1.96937 25.4632 1.96937C12.957 1.96937 2.7822 12.1437 2.7822 24.6505C2.7822 30.7903 5.19705 36.5412 9.5815 40.843C9.95115 41.2055 9.95685 41.7986 9.5942 42.1682C9.41065 42.3562 9.168 42.4493 8.92495 42.4493C8.68815 42.4493 8.45105 42.3604 8.26865 42.1807C3.5215 37.5246 0.907104 31.2985 0.907104 24.6498C0.907104 11.1096 11.923 0.0944214 25.4634 0.0944214C28.9479 0.0944214 32.3157 0.809171 35.4726 2.22032C37.8028 3.26122 39.9284 4.64072 41.8177 6.33197L41.7762 4.58317C41.7639 4.06487 42.1736 3.63577 42.6912 3.62302ZM45.0198 11.3695C45.4591 11.0956 46.0374 11.2296 46.3116 11.6691C48.737 15.5566 50.0191 20.046 50.0191 24.6498C50.0191 38.1896 39.0034 49.2061 25.4634 49.2061C20.1029 49.2061 15.01 47.5093 10.7351 44.3C10.3208 43.9899 10.2372 43.4013 10.5479 42.9876C10.8588 42.5732 11.4466 42.4898 11.8605 42.8006C15.8085 45.7642 20.5122 47.3302 25.4632 47.3302C37.9693 47.3302 48.144 37.1563 48.144 24.6498C48.144 20.3963 46.9602 16.2511 44.7205 12.6617C44.4465 12.2224 44.5804 11.644 45.0198 11.3695ZM15.7316 33.6084H23.2816C23.7993 33.6084 24.2189 34.0283 24.2189 34.5463C24.2189 35.0633 23.7991 35.4836 23.2812 35.4836H13.4679C13.0889 35.4836 12.7471 35.2555 12.602 34.9052C12.4569 34.5545 12.5371 34.1512 12.8052 33.8829L19.1489 27.5398C21.2093 25.4796 22.3439 22.7402 22.3439 19.826C22.3439 17.6371 20.5633 15.8569 18.3748 15.8569C16.1863 15.8569 14.4057 17.6371 14.4057 19.826C14.4057 20.344 13.986 20.7637 13.4682 20.7637C12.9503 20.7637 12.5306 20.344 12.5306 19.826C12.5306 16.6037 15.1524 13.9817 18.3748 13.9817C21.5974 13.9817 24.219 16.6037 24.219 19.826C24.219 23.2406 22.8893 26.4512 20.4748 28.865L15.7316 33.6084ZM38.3214 27.1705H35.7201V25.6538C35.7201 25.1361 35.3004 24.7158 34.7826 24.7158C34.2647 24.7158 33.8449 25.1361 33.8449 25.6538V27.1705H28.5588L33.8449 18.3185V22.5281C33.8449 23.0461 34.2647 23.4654 34.7826 23.4654C35.3004 23.4654 35.7201 23.0461 35.7201 22.5281V14.9193C35.7201 14.916 35.7193 14.9141 35.7191 14.9108C35.7159 14.5951 35.5541 14.2882 35.2632 14.1147C34.8185 13.8493 34.243 13.9947 33.9774 14.4385L26.1019 27.6274C25.9288 27.9166 25.9249 28.2774 26.0915 28.5706C26.258 28.8644 26.5695 29.0458 26.9068 29.0458H33.8449V34.5463C33.8449 35.0633 34.2648 35.4836 34.7827 35.4836C35.3004 35.4836 35.7202 35.0633 35.7202 34.5463V29.0458H38.3214C38.8393 29.0458 39.2589 28.6255 39.2589 28.1078C39.2589 27.5901 38.839 27.1705 38.3214 27.1705Z" fill="#A3BBC8"></path>
  </symbol>
</svg>