<svg width="0" height="0" class="hidden"><symbol fill="inherit" xmlns="http://www.w3.org/2000/svg" viewBox="0 0 22 10" id="icon-arrow"><path fill-rule="evenodd" clip-rule="evenodd" d="M.296 6.472H.288h16.956l-.1 2.857a.287.287 0 00-.084.205c0 .077.03.15.084.205l.172.172a.286.286 0 00.407.002l4.193-4.211a.289.289 0 000-.41L17.723 1.08a.29.29 0 00-.407 0l-.172.173a.288.288 0 000 .405l.113 2.865H.291A.298.298 0 000 4.818v1.37c0 .159.137.284.296.284z"/></symbol><symbol fill="inherit" xmlns="http://www.w3.org/2000/svg" viewBox="0 0 21 21" id="icon-burger"><path fill-rule="evenodd" clip-rule="evenodd" d="M2.146 4.88A2.144 2.144 0 010 2.736C0 1.548.96.589 2.146.589c1.187 0 2.146.959 2.146 2.146 0 1.186-.96 2.146-2.146 2.146zm0 7.87A2.145 2.145 0 010 10.603c0-1.186.96-2.145 2.146-2.145a2.145 2.145 0 110 4.292zM0 18.472c0 1.187.96 2.146 2.146 2.146a2.144 2.144 0 002.146-2.146c0-1.187-.96-2.146-2.146-2.146-1.187 0-2.146.96-2.146 2.146zM10.014 4.881a2.144 2.144 0 01-2.146-2.146c0-1.187.96-2.146 2.146-2.146 1.187 0 2.146.959 2.146 2.146a2.144 2.144 0 01-2.146 2.146zm-2.146 5.722a2.145 2.145 0 104.292 0 2.143 2.143 0 00-2.146-2.145 2.144 2.144 0 00-2.146 2.145zm2.146 10.015a2.144 2.144 0 01-2.146-2.146c0-1.187.96-2.146 2.146-2.146 1.187 0 2.146.96 2.146 2.146a2.144 2.144 0 01-2.146 2.146zm5.723-17.883a2.145 2.145 0 104.292 0c0-1.187-.96-2.146-2.146-2.146a2.144 2.144 0 00-2.146 2.146zm2.146 10.015a2.145 2.145 0 01-2.146-2.147c0-1.186.96-2.145 2.146-2.145a2.145 2.145 0 110 4.292zm-2.146 5.722c0 1.187.96 2.146 2.146 2.146a2.144 2.144 0 002.146-2.146c0-1.187-.96-2.146-2.146-2.146-1.187 0-2.146.96-2.146 2.146z"/></symbol><symbol fill="inherit" xmlns="http://www.w3.org/2000/svg" viewBox="0 0 22 21" id="icon-cart(1)"><path fill-rule="evenodd" clip-rule="evenodd" d="M.814 2.629h2.333L6.47 14.667c.095.353.42.597.787.597h10.214c.326 0 .61-.19.746-.488l3.717-8.56a.828.828 0 00-.068-.776.81.81 0 00-.678-.366H9.902a.817.817 0 000 1.631H19.94l-3.011 6.928H7.867L4.544 1.596a.815.815 0 00-.787-.598H.814A.817.817 0 000 1.814c0 .448.366.815.814.815zm5.67 18.37a1.849 1.849 0 000-3.696 1.848 1.848 0 000 3.696zm11.666 0h-.136a1.85 1.85 0 01-1.831-1.726 1.85 1.85 0 011.709-1.97 1.85 1.85 0 011.519 3.057c-.326.38-.773.598-1.262.639z"/></symbol><symbol fill="none" xmlns="http://www.w3.org/2000/svg" viewBox="0 0 19 18" id="icon-cart"><path fill-rule="evenodd" clip-rule="evenodd" d="M2.395 15.122a.593.593 0 00.787-.285c.475-1.016 1.35-1.509 2.68-1.51a.043.043 0 01.023 0H16.24a.594.594 0 00.573-.439l2.123-7.956a.592.592 0 00-.573-.745H4.293a3.165 3.165 0 01-3.115-2.682.591.591 0 10-1.171.175A4.354 4.354 0 004.29 5.373h13.302l-1.807 6.77H6.362L5.271 6.567a.592.592 0 10-1.163.227l1.055 5.391c-1.427.178-2.475.912-3.054 2.151a.592.592 0 00.286.787zm11.523 2.856c-.536 0-1.064-.21-1.461-.607a2.065 2.065 0 01-.452-2.26 2.065 2.065 0 011.913-1.28c.546-.04 1.08.218 1.468.603.392.393.607.912.607 1.466a2.064 2.064 0 01-1.274 1.917 2.08 2.08 0 01-.8.16zm-8.392 0c-.536 0-1.063-.21-1.461-.607a2.066 2.066 0 01-.453-2.26 2.068 2.068 0 011.915-1.28h.006c.55 0 1.07.214 1.46.603.393.393.609.912.609 1.466.002.84-.5 1.593-1.277 1.917-.258.108-.53.16-.799.16zm.007-2.963h-.004a.887.887 0 00-.628 1.518.89.89 0 10.632-1.518zm8.39 0h.001a.886.886 0 01.885.886.889.889 0 11-1.709-.338c.138-.333.492-.516.823-.548z" fill="#243F4D"/></symbol><symbol fill="none" xmlns="http://www.w3.org/2000/svg" viewBox="0 0 19 17" id="icon-heart"><path fill-rule="evenodd" clip-rule="evenodd" d="M9.913 16.244a.706.706 0 01-.28-.056c-.353-.15-8.65-3.75-8.65-10.76C1.074 2.779 3.19.722 5.801.722c1.743 0 3.266.918 4.112 2.31a4.796 4.796 0 014.112-2.31c2.61 0 4.725 2.058 4.817 4.684 0 7.034-8.297 10.634-8.65 10.783a.71.71 0 01-.28.056zM5.8 2.106c-1.847 0-3.343 1.47-3.408 3.346 0 5.408 6.125 8.663 7.52 9.335 1.395-.672 7.52-3.93 7.52-9.358-.065-1.853-1.563-3.323-3.408-3.323s-3.342 1.47-3.408 3.346a.7.7 0 01-.704.67.7.7 0 01-.705-.67C9.143 3.576 7.646 2.106 5.8 2.106z" fill="#243F4D"/></symbol><symbol fill="inherit" xmlns="http://www.w3.org/2000/svg" viewBox="0 0 22 18" id="icon-like"><path fill-rule="evenodd" clip-rule="evenodd" d="M21.99 5.82a6.21 6.21 0 00-1.849-4.1C19.016.61 17.545-.001 16.002-.001c-2.311 0-3.948 1.785-4.827 2.745l-.156.17-.083-.095C10.132 1.903 8.46 0 5.998 0 4.455 0 2.985.61 1.859 1.72A6.21 6.21 0 00.01 5.82c-.082 1.541.31 2.88 1.27 4.338.862 1.308 3.105 3.374 4.764 4.748 1.705 1.41 3.95 3.092 4.965 3.092 1.032 0 3.27-1.679 4.965-3.086 1.646-1.367 3.876-3.432 4.746-4.754.646-.984 1.375-2.366 1.27-4.338zm-2.376 3.61c-.632.961-2.412 2.736-4.43 4.418-2.407 2.004-3.832 2.795-4.173 2.826-.342-.035-1.77-.833-4.188-2.843-2.03-1.686-3.813-3.454-4.437-4.401-.795-1.207-1.12-2.298-1.054-3.539.135-2.519 2.228-4.57 4.666-4.57 1.863 0 3.216 1.543 3.943 2.371.428.488.663.755 1.06.755.408 0 .671-.286 1.15-.81.794-.865 2.122-2.315 3.851-2.315 2.438 0 4.531 2.05 4.666 4.57.067 1.253-.248 2.312-1.054 3.538z"/></symbol><symbol fill="none" xmlns="http://www.w3.org/2000/svg" viewBox="0 0 54 53" id="icon-payment"><path fill-rule="evenodd" clip-rule="evenodd" d="M45.59 32.151a.836.836 0 111.671 0v8.265a3.84 3.84 0 01-3.834 3.838H4.092a3.84 3.84 0 01-3.834-3.837v-23.62a3.841 3.841 0 013.834-3.839h25.129a.836.836 0 010 1.673H4.091a2.167 2.167 0 00-2.163 2.166v2.884h9.869a.836.836 0 010 1.673H1.929v5.47h27.292a.837.837 0 010 1.673H1.928v11.92c0 1.193.97 2.165 2.163 2.165h39.335a2.167 2.167 0 002.163-2.166v-8.265zm-30.586-12.47h14.217a.836.836 0 010 1.674H15.004a.836.836 0 010-1.674zm4.978 11.555H5.71a.837.837 0 000 1.674h14.27a.836.836 0 000-1.674zM5.71 35.228h8.185a.836.836 0 010 1.673H5.71a.836.836 0 010-1.673zm42.823-13.607a.836.836 0 00.836-.837v-4.773a3.048 3.048 0 00-2.394-2.974V7.021c0-3.64-2.958-6.603-6.595-6.603-3.636 0-6.595 2.962-6.595 6.603v6.016a3.048 3.048 0 00-2.393 2.975v10.747a3.046 3.046 0 003.041 3.044H46.33a3.047 3.047 0 003.041-3.044v-3.186a.836.836 0 10-1.672 0v3.186a1.37 1.37 0 01-1.37 1.37H34.434c-.755 0-1.37-.614-1.37-1.37V16.01c0-.755.615-1.37 1.37-1.37H46.33c.755 0 1.37.614 1.37 1.37v4.773c0 .462.374.837.835.837zm-3.23-8.654h-9.846V7.021a4.931 4.931 0 014.923-4.929 4.931 4.931 0 014.923 4.929v5.946zm-4.922 4.322a3.097 3.097 0 00-3.093 3.095c0 1.417.957 2.613 2.257 2.98v2.04a.835.835 0 101.671 0v-2.04a3.099 3.099 0 002.257-2.98 3.097 3.097 0 00-3.092-3.095zm0 4.517a1.423 1.423 0 010-2.844 1.423 1.423 0 010 2.844z" fill="#A3BBC8"/><path opacity=".34" fill-rule="evenodd" clip-rule="evenodd" d="M44 33.062c5.42 0 9.813 4.386 9.813 9.797 0 5.41-4.394 9.797-9.813 9.797-5.42 0-9.813-4.386-9.813-9.797 0-5.41 4.394-9.797 9.813-9.797z" fill="#A3BBC8"/></symbol><symbol fill="none" xmlns="http://www.w3.org/2000/svg" viewBox="0 0 127 127" id="icon-play-video"><path opacity=".4" fill-rule="evenodd" clip-rule="evenodd" d="M63.5 0C98.57 0 127 28.43 127 63.5S98.57 127 63.5 127 0 98.57 0 63.5 28.43 0 63.5 0z" fill="#A3BBC8"/><path fill-rule="evenodd" clip-rule="evenodd" d="M63 14c27.062 0 49 21.938 49 49s-21.938 49-49 49-49-21.938-49-49 21.938-49 49-49z" fill="#A3BBC8"/><path fill-rule="evenodd" clip-rule="evenodd" d="M73.684 64.74L57.64 74.536c-.5.306-1.08.46-1.663.46-.48 0-.96-.105-1.399-.316-.972-.47-1.579-1.387-1.579-2.385V52.7c0-.999.607-1.917 1.58-2.386a3.242 3.242 0 013.06.143l16.045 9.798c.822.502 1.316 1.343 1.316 2.241 0 .9-.494 1.741-1.316 2.244z" fill="#fff"/></symbol><symbol fill="inherit" xmlns="http://www.w3.org/2000/svg" viewBox="0 0 7 12" id="icon-ref"><path fill-rule="evenodd" clip-rule="evenodd" d="M1.333 11.687a.55.55 0 01-.41-.183.6.6 0 01.021-.831l4.547-4.475L.944 1.724a.596.596 0 01-.177-.427c0-.145.052-.29.155-.404a.551.551 0 01.8-.023L6.7 5.768a.563.563 0 01.127.182h.001a.61.61 0 01.052.245v.003a.62.62 0 01-.053.25v.001a.602.602 0 01-.112.165l-.015.014-4.977 4.899a.55.55 0 01-.39.16z"/></symbol><symbol fill="inherit" xmlns="http://www.w3.org/2000/svg" viewBox="0 0 20 21" id="icon-search(1)"><path fill-rule="evenodd" clip-rule="evenodd" d="M14.862 13.209l4.588 4.59a1.874 1.874 0 11-2.651 2.65l-4.588-4.589a8.814 8.814 0 002.65-2.651zM7.5.998a7.502 7.502 0 010 15 7.5 7.5 0 010-15zm-5.625 7.5A5.63 5.63 0 007.5 14.124 5.63 5.63 0 0013.125 8.5 5.632 5.632 0 007.5 2.873a5.632 5.632 0 00-5.625 5.626zm2.5 0h-1.25A4.38 4.38 0 017.5 4.124v1.251A3.128 3.128 0 004.375 8.5z"/></symbol><symbol fill="none" xmlns="http://www.w3.org/2000/svg" viewBox="0 0 16 17" id="icon-search"><path fill-rule="evenodd" clip-rule="evenodd" d="M3.702 7.076c.356-.065.68.13.746.485.096.58.355 1.066.78 1.488.42.389.941.678 1.493.777.325.066.552.39.487.743a.643.643 0 01-.714.515 4.2 4.2 0 01-2.143-1.13 4.164 4.164 0 01-1.136-2.136c-.065-.354.128-.676.487-.742zM6.98.996c3.465 0 6.279 2.8 6.279 6.257 0 .93-.203 1.812-.568 2.604l2.336 2.036c1.703 1.746.746 3.266.294 3.717-.422.454-1.993 1.415-3.73-.292l-2.06-2.35c-.78.345-1.64.539-2.548.539-3.468 0-6.278-2.802-6.278-6.257C.705 3.794 3.512.996 6.98.996zm5.546 13.517c.293.324 1.126.867 1.88.226.21-.176.634-1.068-.227-1.873l-2.162-1.88a6.27 6.27 0 01-1.362 1.34l1.87 2.187zM6.98 12.201c2.742 0 4.966-2.216 4.966-4.948S9.722 2.305 6.98 2.305 2.015 4.521 2.015 7.253s2.22 4.948 4.965 4.948z" fill="#243F4D"/></symbol><symbol fill="none" xmlns="http://www.w3.org/2000/svg" viewBox="0 0 55 37" id="icon-shipping"><path fill-rule="evenodd" clip-rule="evenodd" d="M3.69 5.334h6.126a.786.786 0 010 1.572H3.69a.786.786 0 010-1.572zM4.738 16.34h5.602a.786.786 0 010 1.572H4.738a.785.785 0 010-1.572zm3.508-4.717h-6.65a.786.786 0 000 1.572h6.65a.786.786 0 000-1.572zM7.602 22.63h.644a.786.786 0 010 1.573h-.644a.786.786 0 010-1.573zm-2.619 0H1.596a.786.786 0 000 1.573h3.387a.786.786 0 000-1.573zM35.186 2.77h6.657c4.455 0 8.08 3.628 8.08 8.086V24.94a.786.786 0 01-.786.787h-2.782a4.983 4.983 0 01-4.912 4.192 4.983 4.983 0 01-4.912-4.192H25.28a4.983 4.983 0 01-4.911 4.192 4.984 4.984 0 01-4.912-4.192h-2.42a.786.786 0 01-.784-.787V1.354c0-.434.351-.786.785-.786h6.046a.786.786 0 010 1.572h-5.26v22.014h1.633a4.983 4.983 0 014.912-4.193 4.983 4.983 0 014.911 4.193h8.336V23.03a.785.785 0 111.57 0v1.125h1.346a4.983 4.983 0 014.912-4.193 4.983 4.983 0 014.912 4.193h1.997v-13.3c0-3.591-2.92-6.513-6.509-6.513h-6.657V19.36a.786.786 0 11-1.571 0V2.14h-11.39a.786.786 0 010-1.572H34.4c.434 0 .786.352.786.786v1.415zM16.964 24.94a3.409 3.409 0 003.404 3.407 3.409 3.409 0 003.403-3.407 3.409 3.409 0 00-3.403-3.406 3.409 3.409 0 00-3.404 3.406zm21.076.001a3.41 3.41 0 003.403 3.406 3.409 3.409 0 003.404-3.407 3.409 3.409 0 00-3.404-3.406 3.408 3.408 0 00-3.403 3.406v.001zm-.498-19.027h4.301a4.945 4.945 0 014.938 4.941v3.235a.786.786 0 01-.786.787h-8.453a.786.786 0 01-.785-.787V6.7c0-.434.351-.786.785-.786zm.786 7.39h6.882v-2.449a3.371 3.371 0 00-3.367-3.368h-3.515v5.817zM18.343 24.94c0-1.117.908-2.027 2.025-2.027a2.028 2.028 0 010 4.054 2.028 2.028 0 01-2.025-2.027zm1.57 0a.455.455 0 10.91 0 .455.455 0 00-.91 0zm19.505 0a2.03 2.03 0 012.025-2.027c1.117 0 2.025.91 2.025 2.027a2.028 2.028 0 01-2.025 2.027 2.028 2.028 0 01-2.025-2.027zm1.571 0c0 .251.204.455.454.455a.455.455 0 000-.91.455.455 0 00-.454.455zm4.221-7.128a.786.786 0 111.57 0v1.992a.786.786 0 11-1.57 0v-1.992z" fill="#A3BBC8"/><path opacity=".34" fill-rule="evenodd" clip-rule="evenodd" d="M44.75 17.406c5.42 0 9.812 4.386 9.812 9.797 0 5.41-4.393 9.797-9.812 9.797-5.42 0-9.813-4.386-9.813-9.797 0-5.41 4.394-9.797 9.813-9.797z" fill="#A3BBC8"/></symbol><symbol fill="inherit" xmlns="http://www.w3.org/2000/svg" viewBox="0 0 20 20" id="icon-time"><path fill-rule="evenodd" clip-rule="evenodd" d="M17.895 5.261a.833.833 0 00-.387 1.114c.548 1.13.825 2.35.825 3.624 0 4.595-3.738 8.333-8.333 8.333-4.595 0-8.333-3.738-8.333-8.333 0-4.595 3.738-8.333 8.333-8.333 1.904 0 3.693.622 5.173 1.797A.832.832 0 1016.21 2.16 10.017 10.017 0 0010 0C4.486 0 0 4.486 0 10s4.486 10 10 10 10-4.486 10-10a9.9 9.9 0 00-.992-4.35.833.833 0 00-1.113-.388zM10 3.331a.834.834 0 00-.833.835v5.833c0 .46.373.833.833.833h4.167a.834.834 0 000-1.666h-3.334v-5A.834.834 0 0010 3.332z"/></symbol><symbol fill="inherit" xmlns="http://www.w3.org/2000/svg" viewBox="0 0 20 20" id="icon-user"><g clip-path="url(#clip0_0_1500)"><path fill-rule="evenodd" clip-rule="evenodd" d="M17.07 12.928a9.957 9.957 0 00-3.8-2.384 5.78 5.78 0 002.511-4.764A5.788 5.788 0 0010 0a5.788 5.788 0 00-5.781 5.78 5.78 5.78 0 002.51 4.764 9.958 9.958 0 00-3.8 2.384 9.934 9.934 0 00-2.93 7.07h1.563c0-4.652 3.785-8.436 8.438-8.436 4.652 0 8.437 3.784 8.437 8.436H20a9.93 9.93 0 00-2.93-7.07zM5.782 5.78A4.223 4.223 0 0110 1.561a4.223 4.223 0 014.219 4.22 4.224 4.224 0 01-4.22 4.218A4.224 4.224 0 015.782 5.78z"/></g><defs><clipPath id="clip0_0_1500"><path fill="#fff" d="M0 0h20v20H0z"/></clipPath></defs></symbol><symbol fill="none" xmlns="http://www.w3.org/2000/svg" viewBox="0 0 52 54" id="icon-24"><path opacity=".34" fill-rule="evenodd" clip-rule="evenodd" d="M41.984 33.594c5.411 0 9.797 4.393 9.797 9.812 0 5.42-4.386 9.813-9.797 9.813-5.41 0-9.797-4.394-9.797-9.813 0-5.42 4.387-9.812 9.797-9.812z" fill="#A3BBC8"/><path fill-rule="evenodd" clip-rule="evenodd" d="M42.691 3.623a.94.94 0 01.96.915l.096 4.06a.938.938 0 01-.915.96l-4.06.096h-.023a.937.937 0 01-.022-1.874l1.843-.043a22.76 22.76 0 00-15.107-5.768c-12.506 0-22.68 10.175-22.68 22.682 0 6.14 2.414 11.89 6.799 16.192a.937.937 0 11-1.313 1.338C3.52 37.525.907 31.299.907 24.65.907 11.11 11.923.094 25.463.094c3.485 0 6.853.715 10.01 2.126a24.405 24.405 0 016.345 4.112l-.042-1.749a.938.938 0 01.915-.96zm2.329 7.746a.938.938 0 011.292.3 24.496 24.496 0 013.707 12.98c0 13.54-11.016 24.557-24.556 24.557A24.349 24.349 0 0110.735 44.3a.937.937 0 111.126-1.5 22.486 22.486 0 0013.602 4.53c12.506 0 22.681-10.174 22.681-22.68 0-4.254-1.184-8.399-3.423-11.988a.938.938 0 01.299-1.293zM15.732 33.61h7.55a.938.938 0 010 1.875h-9.814a.937.937 0 01-.663-1.601l6.344-6.343c2.06-2.06 3.195-4.8 3.195-7.714 0-2.189-1.78-3.97-3.97-3.97a3.973 3.973 0 00-3.968 3.97.938.938 0 11-1.875 0 5.851 5.851 0 015.844-5.844 5.851 5.851 0 015.844 5.844 12.7 12.7 0 01-3.744 9.039l-4.743 4.743zm22.59-6.439H35.72v-1.516a.938.938 0 10-1.875 0v1.517h-5.286l5.286-8.852v4.21a.937.937 0 101.875 0v-7.618a.936.936 0 00-1.743-.473l-7.875 13.19a.937.937 0 00.805 1.418h6.938v5.5a.938.938 0 001.875 0v-5.5h2.601a.938.938 0 000-1.875z" fill="#A3BBC8"/></symbol><symbol fill="none" xmlns="http://www.w3.org/2000/svg" viewBox="0 0 37 38" id="icon-project"><path fill-rule="evenodd" clip-rule="evenodd" d="M.002 35.969c0 1.098.885 1.991 1.973 1.991h25.496a1.985 1.985 0 001.973-1.991V22.067a.906.906 0 00-.902-.91.907.907 0 00-.902.91V35.97a.17.17 0 01-.168.17H1.975a.17.17 0 01-.168-.17V9.602H7.31a1.984 1.984 0 001.974-1.99V2.06h18.188a.17.17 0 01.168.17v2.873c0 .502.404.91.902.91a.907.907 0 00.902-.91V2.23A1.984 1.984 0 0027.472.24H8.381c-.24 0-.47.096-.639.267L.266 8.048a.916.916 0 00-.264.643V35.97zM7.31 7.782H3.083l4.395-4.435v4.265a.17.17 0 01-.168.17zM6.158 30.579c0 .503.404.911.901.911h4.626s.198-.022.226-.03l5.697-1.594a.907.907 0 00.396-.234l17.485-17.64a3.102 3.102 0 000-4.356l-1.062-1.071a3.037 3.037 0 00-4.318 0l-8.429 8.503H7.06a.906.906 0 00-.902.91c0 .503.404.91.901.91h12.816l-5.432 5.48H7.06a.906.906 0 00-.901.91c0 .504.404.912.901.912h5.58l-.015.014a.908.908 0 00-.231.4L11 29.67H7.06a.906.906 0 00-.901.91zm6.824-1.307l2.652-.744-1.916-1.933-.736 2.677zm1.556-4.424l2.828 2.853L31.8 13.14l-2.828-2.852-14.434 14.561zM31.384 7.852l-1.136 1.147 2.828 2.853 1.136-1.147a1.27 1.27 0 000-1.782L33.15 7.852a1.24 1.24 0 00-1.766 0z" fill="#A3BBC8"/></symbol><symbol fill="none" xmlns="http://www.w3.org/2000/svg" viewBox="0 0 74 60" id="icon-rate"><path fill-rule="evenodd" clip-rule="evenodd" d="M56.5 25.625c9.32 0 16.875 7.555 16.875 16.875S65.82 59.375 56.5 59.375 39.625 51.82 39.625 42.5 47.18 25.625 56.5 25.625z" fill="#A3BBC8"/><path fill-rule="evenodd" clip-rule="evenodd" d="M3.365 0h57.27A3.365 3.365 0 0164 3.357V44.5a3.365 3.365 0 01-3.365 3.357H38.944l.877 7h3.633a1.072 1.072 0 110 2.143H20.546a1.073 1.073 0 110-2.143h3.634l.877-7H3.364A3.365 3.365 0 010 44.5V3.357A3.365 3.365 0 013.365 0zM27.22 47.857l-.877 7h11.312l-.877-7H27.22zm33.414-2.143c.672 0 1.217-.545 1.217-1.214V3.357c0-.67-.545-1.214-1.217-1.214H3.365c-.672 0-1.217.544-1.217 1.214V44.5c0 .67.545 1.214 1.217 1.214h57.27zM5.655 4.57h44.672a1.073 1.073 0 110 2.143H6.729V40h2.363a1.072 1.072 0 110 2.143H5.656c-.594 0-1.074-.48-1.074-1.072V5.643c0-.592.48-1.072 1.074-1.072zm52.69 0h-3.437a1.073 1.073 0 100 2.143h2.363V40H13.673a1.072 1.072 0 100 2.143h44.671c.593 0 1.074-.48 1.074-1.072V5.643c0-.592-.48-1.072-1.074-1.072zm-10.238 9.072a3.365 3.365 0 016.73 0 3.365 3.365 0 01-4.773 3.047l-8.604 9.09c.252.47.395 1.007.395 1.577a3.365 3.365 0 11-6.685-.542l-7.348-3.881a3.355 3.355 0 01-3.852.55l-8.406 8.14c.21.439.329.93.329 1.447a3.365 3.365 0 01-6.73 0 3.365 3.365 0 014.904-2.983l8.407-8.142a3.331 3.331 0 01-.33-1.446 3.365 3.365 0 116.686.541l7.347 3.882a3.354 3.354 0 013.722-.614l8.603-9.09a3.332 3.332 0 01-.395-1.576zM11.311 33.07a1.217 1.217 0 002.434 0 1.217 1.217 0 00-2.434 0zM24.292 20.5a1.217 1.217 0 002.434 0 1.217 1.217 0 00-2.434 0zm12.982 6.857a1.217 1.217 0 002.434 0 1.217 1.217 0 00-2.434 0zm12.981-13.714a1.217 1.217 0 002.434 0 1.217 1.217 0 00-2.434 0zm.143 6.857a1.073 1.073 0 012.148 0v16c0 .592-.481 1.071-1.074 1.071-.593 0-1.074-.48-1.074-1.071v-16zM25.51 26.286c-.593 0-1.073.48-1.073 1.071V36.5a1.073 1.073 0 002.148 0v-9.143c0-.592-.482-1.071-1.075-1.071zm11.908 7.928a1.073 1.073 0 012.148 0V36.5c0 .592-.481 1.071-1.074 1.071-.593 0-1.074-.48-1.074-1.071v-2.286z" fill="#243F4D"/></symbol><symbol fill="none" xmlns="http://www.w3.org/2000/svg" viewBox="0 0 44 40" id="icon-spiker"><path fill-rule="evenodd" clip-rule="evenodd" d="M37.87 9.648V2.522c0-.785-.393-1.49-1.052-1.887A2.07 2.07 0 0034.69.614c-6.402 3.677-13.367 5.825-20.7 6.383-.056.004-6.684.034-6.684.034-1.665 0-3.04 1.291-3.231 2.949h-1.36c-1.49 0-2.702 1.245-2.702 2.774v6.095c0 1.53 1.212 2.775 2.701 2.775h1.36a3.342 3.342 0 001.92 2.664l4.84 13.723a2.123 2.123 0 001.986 1.428h4.858a2.1 2.1 0 001.731-.925c.395-.58.49-1.323.255-1.986l-4.159-11.785c6.778.724 13.225 2.82 19.185 6.244.33.19.688.283 1.046.283.372 0 .744-.101 1.08-.304a2.18 2.18 0 001.052-1.888v-7.125c2.965-.394 5.263-3.002 5.263-6.153 0-3.15-2.298-5.758-5.262-6.152zM4.052 19.484H2.715a.627.627 0 01-.618-.635v-6.095c0-.35.278-.634.618-.634h1.337v7.364zm2.777 2.844a1.205 1.205 0 01-.693-1.098V10.374c0-.663.525-1.203 1.17-1.203h5.671v13.262s-5.72-.002-5.745-.004a1.063 1.063 0 01-.403-.101zm10.878 14.93c.003.009.006.015-.004.028-.009.013-.015.013-.024.013h-4.858a.03.03 0 01-.027-.018L8.31 24.573h4.92l4.477 12.685zm18.079-8.179c0 .015 0 .028-.022.041-.027.016-.043.007-.056 0-6.403-3.678-13.345-5.886-20.648-6.57V9.051c7.303-.686 14.245-2.893 20.648-6.571.013-.007.03-.016.056 0 .022.013.022.025.022.04v26.56zm2.084-9.292v-7.973c1.81.372 3.179 2.018 3.179 3.986 0 1.968-1.369 3.614-3.18 3.987z" fill="#A3BBC8"/></symbol><symbol fill="none" xmlns="http://www.w3.org/2000/svg" viewBox="0 0 79 64" id="icon-working-time"><path fill-rule="evenodd" clip-rule="evenodd" d="M61.5 29.625c9.32 0 16.875 7.555 16.875 16.875S70.82 63.375 61.5 63.375 44.625 55.82 44.625 46.5 52.18 29.625 61.5 29.625z" fill="#A3BBC8"/><path fill-rule="evenodd" clip-rule="evenodd" d="M58.959 45.11l2.113-.42a1.086 1.086 0 011.277.843 1.075 1.075 0 01-.85 1.264l-5.788 1.145a1.093 1.093 0 01-.98-.293 1.067 1.067 0 01-.297-.97l1.157-5.727c.118-.582.69-.96 1.277-.843.588.116.969.682.851 1.264l-.483 2.393c4.845-4.548 7.594-10.831 7.594-17.494 0-13.303-10.937-24.125-24.38-24.125-7.922 0-15.38 3.833-19.947 10.252a1.093 1.093 0 01-1.512.26 1.067 1.067 0 01-.262-1.496C23.701 4.173 31.822 0 40.45 0 55.09 0 67 11.786 67 26.272c0 7.151-2.906 13.901-8.041 18.837zm-4.114 5.122a4.351 4.351 0 012.212 3.23c.2 1.442-.294 2.87-1.354 3.92l-4.292 4.247c-1.596 1.579-3.856 2.37-6.633 2.37-2.5 0-5.419-.64-8.652-1.926-6.528-2.596-13.671-7.536-20.112-13.91C9.573 41.789 4.58 34.721 1.957 28.26c-2.742-6.753-2.583-12.125.45-15.125l4.291-4.247a4.697 4.697 0 013.962-1.34 4.4 4.4 0 013.263 2.189l6.518 11.467a4.49 4.49 0 01-.75 5.4l-4.069 4.026c-.833.826-.937 2.146-.241 3.073a73.67 73.67 0 007.078 8.082 73.96 73.96 0 008.167 7.004c.937.689 2.271.586 3.105-.239l4.07-4.026a4.61 4.61 0 015.456-.742l11.588 6.45zm-1.427 6.373l.75-.742c.576-.57.845-1.339.738-2.11a2.22 2.22 0 00-1.125-1.65l-11.588-6.45a2.415 2.415 0 00-2.858.389l-1.937 1.916 1.904 1.028c.526.284.72.936.433 1.457a1.086 1.086 0 01-1.472.428l-2.464-1.33-.533.528c-1.59 1.572-4.14 1.763-5.934.444a76.137 76.137 0 01-8.408-7.21 75.817 75.817 0 01-7.285-8.32c-1.333-1.774-1.14-4.299.449-5.871l.533-.528-5.387-9.773a1.068 1.068 0 01.433-1.457 1.092 1.092 0 011.473.429l5.08 9.219 1.937-1.917a2.351 2.351 0 00.393-2.828L12.032 10.79a2.244 2.244 0 00-1.668-1.113 2.548 2.548 0 00-2.132.73l-.75.742 1.345 2.439c.287.52.093 1.173-.433 1.457a1.09 1.09 0 01-1.472-.43l-1.04-1.883-1.941 1.921c-2.344 2.32-2.333 6.988.03 12.807 2.517 6.198 7.339 13.01 13.577 19.185 6.239 6.173 13.124 10.945 19.387 13.435 5.88 2.339 10.597 2.35 12.941.03l1.943-1.922-9.319-5.03a1.068 1.068 0 01-.433-1.457c.287-.52.946-.712 1.472-.428l9.88 5.332zM50.795 27.49h1.23c.6 0 1.085.48 1.085 1.074a1.08 1.08 0 01-1.085 1.074h-1.23v3.508a1.08 1.08 0 01-1.085 1.073 1.08 1.08 0 01-1.085-1.074v-3.507h-7.017c-.33 0-.64-.148-.847-.402a1.065 1.065 0 01-.213-.905l2.315-10.309c.13-.578.71-.944 1.295-.815.585.128.954.703.824 1.281l-2.021 9.002h5.664v-9.235a1.08 1.08 0 011.085-1.074c.6 0 1.085.481 1.085 1.074v9.235zm-12.66 4.582H30.15c.472-1.23 1.808-2.013 3.735-3.053 2.378-1.284 5.337-2.882 5.337-6.51 0-2.937-2.564-5.328-5.715-5.328-3.152 0-5.715 2.39-5.715 5.329a1.08 1.08 0 001.085 1.074 1.08 1.08 0 001.085-1.074c0-1.754 1.59-3.18 3.545-3.18 1.954 0 3.544 1.426 3.544 3.18 0 2.194-1.589 3.21-4.206 4.624-2.369 1.279-5.054 2.729-5.054 6.012a1.08 1.08 0 001.086 1.073h9.26c.599 0 1.084-.48 1.084-1.074a1.08 1.08 0 00-1.084-1.073zM40.45 4.58a1.08 1.08 0 00-1.085 1.074v2.29A1.08 1.08 0 0040.45 9.02c.6 0 1.086-.481 1.086-1.074V5.655a1.08 1.08 0 00-1.086-1.074zm18.52 20.617h2.315c.6 0 1.085.481 1.085 1.074a1.08 1.08 0 01-1.085 1.074H58.97c-.6 0-1.085-.48-1.085-1.074a1.08 1.08 0 011.085-1.074zM24.955 16.18l-2.005-1.145a1.091 1.091 0 00-1.482.393c-.3.513-.122 1.17.397 1.466l2.004 1.146a1.087 1.087 0 001.482-.393c.3-.514.122-1.17-.396-1.467zM57.03 34.505l2.005 1.146c.52.296.697.953.397 1.466a1.087 1.087 0 01-1.482.394l-2.005-1.146a1.068 1.068 0 01-.397-1.467c.3-.513.963-.69 1.482-.393zM51.41 7.487a1.091 1.091 0 00-1.483.393L48.77 9.864c-.3.514-.122 1.17.397 1.467a1.087 1.087 0 001.482-.393l1.157-1.984c.3-.513.122-1.17-.397-1.467zm-21.16 34.12c.3-.514.963-.69 1.482-.394.52.297.697.953.397 1.467l-1.157 1.984a1.087 1.087 0 01-1.482.393 1.068 1.068 0 01-.398-1.467l1.158-1.984zm29.182-26.18a1.09 1.09 0 00-1.482-.393l-2.005 1.145a1.069 1.069 0 00-.397 1.467 1.086 1.086 0 001.483.393l2.004-1.145c.52-.297.697-.954.397-1.467zM23.87 34.505a1.091 1.091 0 011.483.393c.3.514.122 1.17-.397 1.467l-2.005 1.146a1.087 1.087 0 01-1.482-.393c-.3-.514-.122-1.17.397-1.467l2.004-1.146zm8.261-24.64L30.973 7.88a1.09 1.09 0 00-1.482-.392 1.067 1.067 0 00-.397 1.466l1.157 1.984a1.087 1.087 0 001.482.393c.52-.296.697-.953.397-1.466zm18.52 31.741l1.157 1.984c.3.514.122 1.17-.397 1.467a1.087 1.087 0 01-1.482-.393l-1.157-1.984c-.3-.514-.122-1.17.397-1.467a1.092 1.092 0 011.482.393z" fill="#243F4D"/></symbol><symbol fill="none" xmlns="http://www.w3.org/2000/svg" viewBox="0 0 61 64" id="icon-brands"><path fill-rule="evenodd" clip-rule="evenodd" d="M43.5 29.625c9.32 0 16.875 7.555 16.875 16.875S52.82 63.375 43.5 63.375 26.625 55.82 26.625 46.5 34.18 29.625 43.5 29.625z" fill="#A3BBC8"/><path fill-rule="evenodd" clip-rule="evenodd" d="M32.15 8.012c-6.97-3.555-15.365-2.196-20.89 3.382-6.422 6.482-7.064 16.819-1.495 24.043a.993.993 0 001.401.177c.435-.342.514-.976.175-1.415-4.952-6.423-4.38-15.615 1.331-21.38 4.914-4.96 12.38-6.17 18.577-3.008a.994.994 0 001.341-.445 1.012 1.012 0 00-.44-1.354zm7.972 8.05a.994.994 0 00-1.341-.446c-.492.251-.69.857-.441 1.354a16.276 16.276 0 01-2.982 18.75c-5.711 5.765-14.816 6.343-21.18 1.344a.992.992 0 00-1.4.176c-.34.44-.26 1.072.174 1.415 3.26 2.56 7.16 3.82 11.047 3.82 4.646 0 9.274-1.8 12.771-5.33a18.302 18.302 0 003.352-21.083zm-3.352-4.668c.265.268.525.546.773.83a1.014 1.014 0 01-.087 1.422.99.99 0 01-1.41-.088 16.764 16.764 0 00-1.42-1.434 1.014 1.014 0 01-.086-1.422.991.991 0 011.409-.088c.28.25.556.512.821.78zm10.811 14.682a3.448 3.448 0 000-3.574l-1.313-2.175a1.43 1.43 0 01-.188-.958l.391-2.51a3.434 3.434 0 00-1.359-3.311l-2.036-1.495a1.421 1.421 0 01-.538-.813l-.593-2.473a3.404 3.404 0 00-2.506-2.53l-2.45-.598a1.405 1.405 0 01-.805-.544L34.703 3.04a3.372 3.372 0 00-3.279-1.372l-2.488.395a1.397 1.397 0 01-.95-.19L25.833.547a3.361 3.361 0 00-3.54 0l-2.155 1.326c-.284.174-.62.242-.949.19L16.7 1.668a3.372 3.372 0 00-3.279 1.371l-1.48 2.055a1.405 1.405 0 01-.806.544l-2.45.599a3.404 3.404 0 00-2.505 2.53l-.593 2.473a1.42 1.42 0 01-.54.812l-2.035 1.495a3.433 3.433 0 00-1.36 3.31l.392 2.512a1.43 1.43 0 01-.188.958L.542 22.502a3.448 3.448 0 000 3.575l1.314 2.174c.173.287.24.627.188.958l-.392 2.511a3.434 3.434 0 001.36 3.31l2.035 1.495c.27.198.46.486.539.813l.593 2.473a3.403 3.403 0 002.505 2.53l1.023.25-6.924 15.59c-.147.332-.106.718.107 1.01a.994.994 0 00.923.404l5.571-.672 3.21 4.645a.997.997 0 00.912.427 1 1 0 00.818-.591l7.071-15.924.896.552a3.372 3.372 0 001.77.503c.613 0 1.225-.167 1.771-.503l.928-.572 7.08 15.944a.999.999 0 00.912.596c.325 0 .631-.16.819-.432l3.21-4.645 5.57.672a.995.995 0 00.923-.404c.213-.292.255-.678.107-1.01l-6.928-15.599.985-.24a3.403 3.403 0 002.506-2.53l.593-2.473a1.42 1.42 0 01.539-.813l2.036-1.495a3.433 3.433 0 001.359-3.31l-.391-2.512a1.43 1.43 0 01.188-.958l1.313-2.175zm-34.358 34.88l-2.544-3.683a.994.994 0 00-.937-.424l-4.415.533 6.308-14.206c.115.085.219.188.304.307l1.481 2.055c.14.196.3.373.471.53l-3.32 7.478a1.01 1.01 0 00.91 1.42.998.998 0 00.912-.596l3.309-7.45c.325.045.66.044.997-.01l2.488-.395c.15-.024.3-.022.447.003l-6.411 14.437zm29.615-3.574l-4.415-.533a.995.995 0 00-.938.425l-2.543 3.681-6.414-14.443c.135-.018.272-.018.408.004l2.487.395c.35.055.7.054 1.037.003l3.311 7.456a.998.998 0 001.32.508c.503-.228.728-.825.502-1.332L34.26 46.04c.161-.15.31-.318.442-.501l1.481-2.055c.093-.13.208-.24.336-.33l6.319 14.228zm3.038-32.355l-1.313 2.175a3.465 3.465 0 00-.456 2.32l.391 2.513a1.417 1.417 0 01-.56 1.366L41.9 34.896a3.44 3.44 0 00-1.305 1.969l-.593 2.473c-.124.518-.52.919-1.034 1.044l-2.45.599a3.402 3.402 0 00-1.95 1.317l-1.482 2.055c-.311.433-.83.65-1.353.566l-2.488-.395a3.379 3.379 0 00-2.3.46l-2.153 1.326a1.387 1.387 0 01-1.462 0l-2.155-1.326a3.383 3.383 0 00-2.299-.46l-2.488.395a1.393 1.393 0 01-1.354-.566l-1.481-2.056a3.406 3.406 0 00-1.95-1.317l-2.45-.599a1.405 1.405 0 01-1.035-1.044l-.593-2.473a3.437 3.437 0 00-1.305-1.969L4.186 33.4a1.417 1.417 0 01-.561-1.366l.391-2.512a3.464 3.464 0 00-.455-2.32l-1.314-2.175a1.423 1.423 0 010-1.476l1.314-2.175a3.47 3.47 0 00.456-2.32l-.392-2.512a1.418 1.418 0 01.561-1.367l2.037-1.495a3.439 3.439 0 001.304-1.969L8.12 9.24a1.406 1.406 0 011.035-1.044l2.45-.599a3.403 3.403 0 001.95-1.317l1.481-2.055c.312-.432.83-.65 1.354-.566l2.488.395a3.375 3.375 0 002.299-.46l2.154-1.326a1.387 1.387 0 011.462 0l2.154 1.326a3.375 3.375 0 002.299.46l2.489-.395a1.392 1.392 0 011.353.566l1.481 2.056a3.402 3.402 0 001.95 1.317l2.45.599c.514.125.91.525 1.035 1.044l.593 2.473c.19.791.653 1.49 1.305 1.97l2.036 1.494c.428.314.643.838.56 1.366l-.39 2.512a3.465 3.465 0 00.455 2.32l1.313 2.175a1.42 1.42 0 010 1.476zm-10.13-3.874a1.79 1.79 0 00-1.504-1.246l-6.008-.719-2.534-5.545a1.786 1.786 0 00-1.638-1.06c-.713 0-1.34.406-1.639 1.06l-2.534 5.545-6.008.72a1.79 1.79 0 00-1.503 1.245 1.815 1.815 0 00.49 1.9l4.442 4.146-1.178 5.99a1.811 1.811 0 00.709 1.829c.318.233.686.351 1.058.351.302 0 .605-.078.883-.235l5.28-2.983 5.279 2.983a1.773 1.773 0 001.941-.116 1.812 1.812 0 00.71-1.828l-1.18-5.99 4.442-4.147a1.814 1.814 0 00.491-1.9zm-6.7 4.95a1.014 1.014 0 00-.3.936l1.206 6.13-5.403-3.052a.99.99 0 00-.975 0l-5.403 3.052 1.207-6.13a1.014 1.014 0 00-.302-.937l-4.545-4.243 6.149-.736a.999.999 0 00.788-.578l2.594-5.675 2.593 5.675a.999.999 0 00.789.578l6.148.736-4.545 4.243z" fill="#243F4D"/></symbol><symbol fill="none" xmlns="http://www.w3.org/2000/svg" viewBox="0 0 73 52" id="icon-delivery"><path fill-rule="evenodd" clip-rule="evenodd" d="M55.5 17.625c9.32 0 16.875 7.555 16.875 16.875S64.82 51.375 55.5 51.375 38.625 43.82 38.625 34.5 46.18 17.625 55.5 17.625z" fill="#A3BBC8"/><path fill-rule="evenodd" clip-rule="evenodd" d="M57.862 10.407l1.658 6.55c2.533.381 4.48 2.547 4.48 5.155v10.561c0 .547-.449.99-1.002.99h-3.276v.017l.001.014.001.035c0 3.458-2.847 6.27-6.346 6.27-3.5 0-6.347-2.812-6.347-6.27l.001-.035v-.031H24.45v.02l.001.01v.037c0 3.458-2.846 6.27-6.346 6.27-3.499 0-6.346-2.812-6.346-6.27v-.037l.002-.03H6.347c-1.142 0-2.071-.918-2.071-2.046v-2.178H1.002A.996.996 0 010 28.449c0-.547.449-.99 1.002-.99h9.62a.996.996 0 011.002.99c0 .546-.449.99-1.002.99H6.28v2.178c0 .037.03.066.067.066h5.76a6.35 6.35 0 015.997-4.224 6.351 6.351 0 015.998 4.224h20.791v-7.459c0-.547.449-.99 1.002-.99a.996.996 0 011.002.99v7.46h.483a6.351 6.351 0 015.998-4.225 6.351 6.351 0 015.997 4.224h2.62v-4.356H60.86c-1.731 0-3.14-1.392-3.14-3.103v-2.112c0-.547.449-.99 1.002-.99h3.116a3.275 3.275 0 00-3.114-2.244H46.898V20c0 .547-.45.99-1.003.99a.996.996 0 01-1.002-.99V2.046a.066.066 0 00-.066-.066H6.347a.066.066 0 00-.067.066V20c0 .547-.449.99-1.002.99A.996.996 0 014.276 20V2.046C4.276.918 5.205 0 6.346 0h38.48c1.143 0 2.072.918 2.072 2.046v2.178h7.549c2.32 0 4.209 1.866 4.209 4.159v1.056c0 .476-.34.873-.794.968zm-3.415-4.202h-7.55v2.244h9.754v-.066c0-1.201-.989-2.178-2.204-2.178zm-7.55 4.224v6.469H57.44l-1.637-6.469h-8.904zm-33.135 23.3c0 2.366 1.948 4.29 4.342 4.29 2.395 0 4.343-1.924 4.343-4.29s-1.948-4.29-4.343-4.29c-2.394 0-4.342 1.924-4.342 4.29zm35.273 0c0 2.366 1.949 4.29 4.343 4.29s4.342-1.924 4.342-4.29-1.948-4.29-4.342-4.29c-2.394 0-4.343 1.924-4.343 4.29zm11.825-8.382h1.136v-2.245h-2.272v1.122c0 .62.51 1.123 1.136 1.123zm-44.827 8.382c0-1.128.93-2.046 2.071-2.046 1.143 0 2.071.918 2.071 2.046 0 1.129-.928 2.047-2.07 2.047-1.143 0-2.072-.918-2.072-2.047zm37.345-2.046c-1.142 0-2.071.918-2.071 2.046 0 1.129.929 2.047 2.07 2.047 1.143 0 2.072-.918 2.072-2.047 0-1.128-.93-2.046-2.071-2.046zM26.655 27.46H41.62a.996.996 0 011.002.99c0 .547-.449.99-1.002.99H26.655a.996.996 0 01-1.002-.99c0-.547.45-.99 1.002-.99zm-10.688-4.225H3.14a.996.996 0 00-1.002.99c0 .547.448.99 1.002.99h12.827a.996.996 0 001.002-.99.996.996 0 00-1.002-.99zm17.462-13.44a1.01 1.01 0 011.417 0 .982.982 0 010 1.401l-9.62 9.505a1 1 0 01-.708.29c-.257 0-.513-.096-.709-.29l-5.344-5.28a.982.982 0 010-1.4 1.011 1.011 0 011.417 0l4.636 4.58 8.911-8.805z" fill="#243F4D"/></symbol><symbol fill="none" xmlns="http://www.w3.org/2000/svg" viewBox="0 0 23 15" id="icon-google+"><path fill-rule="evenodd" clip-rule="evenodd" d="M2.928 12.99c1.134.835 2.414 1.277 3.823 1.36a7.735 7.735 0 002.356-.235c1.44-.373 2.647-1.126 3.554-2.32 1.311-1.734 1.639-3.95 1.275-6.057H7.182l-.007.117-.014 1.79-.007.98H11c-.002.283-.35 1.43-1.425 2.161-.64.422-1.345.622-2.098.67a4.73 4.73 0 01-.298.01c-.425 0-.847-.061-1.254-.19C4.327 10.76 3.143 9.31 2.99 7.542a3.941 3.941 0 01.1-1.298C3.538 4.34 5.22 2.89 7.226 2.89c.201 0 .406.015.613.044 1 .153 1.577.566 2.099 1.016.365-.36.727-.718 1.09-1.08l1.017-1.006c-.042-.03-.1-.08-.172-.142-.217-.185-.572-.49-1.097-.79a6.74 6.74 0 00-3.868-.92l-.213.009a5.8 5.8 0 00-1.19.186A7.123 7.123 0 001.64 2.665 7.044 7.044 0 00.02 6.767a6.496 6.496 0 00.138 1.934c.387 1.774 1.308 3.211 2.77 4.288zm15.33-2.694h1.893v-.07l.02-2.43h2.504V7.72l.015-1.816v-.07h-2.505l.018-2.437v-.069h-1.959v.07l-.02 2.437h-2.506v.069l-.014 1.816-.001.076h2.505l-.018 2.43v.07h.069z" fill="#888"/></symbol><symbol fill="none" xmlns="http://www.w3.org/2000/svg" viewBox="0 0 18 18" id="icon-instagram"><path fill-rule="evenodd" clip-rule="evenodd" d="M3.588 16.94c-1.95-.505-3.114-1.775-3.424-3.75-.23-1.45-.255-8.19.164-9.654C.874 1.629 2.147.51 4.075.193 4.95.05 6.658 0 8.385 0c1.605 0 3.224.044 4.199.098 1.18.062 2.261.442 3.14 1.284.835.8 1.263 1.802 1.371 2.935.128 1.353.211 7.748-.187 9.247-.533 1.96-1.813 3.12-3.797 3.439-.742.12-2.745.191-4.744.191-2.047 0-4.091-.075-4.779-.254zm.918-15.255c-1.5.172-2.508 1.098-2.747 2.59-.247 1.58-.245 7.492-.06 8.68.19 1.236.89 2.085 2.122 2.43.668.188 2.666.254 4.626.254 1.803 0 3.575-.056 4.24-.13 1.514-.165 2.515-1.097 2.754-2.603.247-1.512.247-7.03.106-8.445-.154-1.513-1.079-2.507-2.575-2.742-.74-.112-2.525-.162-4.3-.162-1.712 0-3.416.047-4.166.128zM4.19 8.597a4.443 4.443 0 014.446-4.406 4.37 4.37 0 014.372 4.413 4.451 4.451 0 01-4.446 4.406A4.366 4.366 0 014.19 8.597zm1.553-.027a2.827 2.827 0 002.803 2.879h.026a2.88 2.88 0 002.876-2.824 2.823 2.823 0 00-2.803-2.88H8.62A2.88 2.88 0 005.744 8.57zm6.444-4.551a1.034 1.034 0 011.03-1.03h.013c.567 0 1.026.464 1.021 1.037a1.043 1.043 0 01-1.043 1.029 1.028 1.028 0 01-1.021-1.036z" fill="#888"/></symbol><symbol fill="none" xmlns="http://www.w3.org/2000/svg" viewBox="0 0 43 42" id="icon-medal"><path fill-rule="evenodd" clip-rule="evenodd" d="M12.903 32.695c0-1.313.296-2.56.825-3.67L.51 8.578a.918.918 0 01.115-1.14l6.318-6.417a.885.885 0 01.631-.266H34.92a.88.88 0 01.63.266l6.32 6.418a.92.92 0 01.115 1.14l-13.22 20.445a8.53 8.53 0 01.824 3.67c0 4.673-3.743 8.475-8.342 8.475-4.6 0-8.344-3.802-8.344-8.475zm1.785 0c0 3.674 2.942 6.662 6.559 6.662 3.615 0 6.557-2.988 6.557-6.662 0-3.672-2.942-6.661-6.557-6.661-3.617 0-6.559 2.989-6.559 6.661zm8.549-8.23a8.344 8.344 0 014.477 2.884l11.87-18.362h-6.339L23.237 24.465zm-8.458 2.883a8.347 8.347 0 014.477-2.883L9.247 8.987H2.91l11.87 18.36zm6.454-3.127h.027l9.85-15.234H11.382l9.85 15.234zM3.41 7.174h35.674l-4.535-4.606H7.943L3.41 7.174zm17.247 28.919V31.19h-.526a.9.9 0 01-.892-.906.9.9 0 01.892-.908h1.419a.9.9 0 01.892.908v5.808a.9.9 0 01-.892.906.9.9 0 01-.893-.906z" fill="#A3BBC8"/></symbol><symbol fill="inherit" xmlns="http://www.w3.org/2000/svg" viewBox="0 0 15 13" id="icon-arrow-team"><path fill-rule="evenodd" clip-rule="evenodd" d="M8.93 12.007a.63.63 0 00.426-.161l5.434-4.912.019-.017a.854.854 0 00.031-.032v-.001a.57.57 0 00-.05-.812L9.357 1.16a.64.64 0 00-.874.022.57.57 0 00.024.834l4.311 3.897H.631a.605.605 0 00-.617.59c0 .325.276.59.617.59h12.186L8.506 10.99a.571.571 0 00-.024.834.634.634 0 00.449.183z"/></symbol></svg>