<svg width="0" height="0" class="hidden">
  <symbol fill="none" xmlns="http://www.w3.org/2000/svg" viewBox="0 0 19 18" id="icon-cart">
    <path fill-rule="evenodd" clip-rule="evenodd" d="M2.39516 15.1224C2.47606 15.1606 2.56133 15.1783 2.64533 15.1783C2.86849 15.1783 3.08203 15.0515 3.18227 14.8374C3.65665 13.821 4.53268 13.3285 5.86226 13.3276C5.86832 13.3256 5.87611 13.3256 5.88481 13.3276H16.2401C16.5084 13.3276 16.7435 13.1465 16.8129 12.888L18.936 4.93208C18.9831 4.75527 18.9455 4.56507 18.8328 4.41899C18.7209 4.27289 18.5473 4.18694 18.3632 4.18694H4.31078H4.29305C2.74466 4.18694 1.40684 3.03657 1.17785 1.50512C1.12909 1.18061 0.819755 0.951176 0.50483 1.00641C0.180956 1.05413 -0.042313 1.35511 0.006555 1.67964C0.321366 3.78888 2.16171 5.37262 4.28961 5.37262H4.3141H17.592L15.7851 12.1438H6.36202L5.27071 6.56582C5.20697 6.24586 4.89649 6.0318 4.57549 6.09782C4.25448 6.16089 4.04527 6.47267 4.10788 6.79328L5.16268 12.1844C3.73629 12.3615 2.68801 13.0955 2.10917 14.3351C1.97036 14.6315 2.09864 14.9838 2.39516 15.1224ZM13.9185 17.9778C13.3815 17.9778 12.8541 17.768 12.4568 17.3712C11.86 16.7761 11.6826 15.8907 12.0048 15.111C12.3258 14.3341 13.0768 13.8309 13.9185 13.8309C14.4641 13.791 14.9983 14.0488 15.386 14.4341C15.7783 14.8266 15.9934 15.3456 15.9934 15.8996C15.9962 16.7392 15.4959 17.4931 14.7186 17.8167C14.4594 17.9251 14.1875 17.9765 13.9185 17.9778ZM5.52649 17.9778C4.98965 17.9778 4.46264 17.768 4.06496 17.3712C3.46815 16.7774 3.29076 15.8907 3.61236 15.111C3.93439 14.3341 4.6858 13.8309 5.52718 13.8309H5.53255C6.08336 13.8309 6.60212 14.0446 6.99362 14.4335C7.38593 14.8266 7.60199 15.3456 7.60199 15.8996C7.60393 16.7405 7.10292 17.4931 6.3254 17.8167C6.06653 17.9251 5.79508 17.9778 5.52649 17.9778ZM5.53255 15.0146H5.52854C5.16749 15.0146 4.84546 15.2303 4.7071 15.5636C4.56977 15.897 4.64541 16.2787 4.90107 16.5329C5.15685 16.7869 5.53759 16.862 5.8698 16.7244C6.2034 16.5849 6.41799 16.2614 6.41706 15.9006C6.41706 15.6636 6.32449 15.4411 6.15661 15.2721C5.99055 15.1074 5.76819 15.0146 5.53255 15.0146ZM13.9226 15.0146H13.9243C14.1567 15.0146 14.3842 15.109 14.549 15.2721C14.7168 15.4411 14.8094 15.6636 14.8094 15.9009C14.8104 16.2614 14.5954 16.5849 14.2627 16.7244C13.931 16.862 13.5493 16.7882 13.2928 16.5329C13.0374 16.2787 12.9612 15.897 13.1 15.5629C13.2379 15.2296 13.5917 15.0469 13.9226 15.0146Z" fill="#243F4D"></path>
  </symbol>
  <symbol fill="inherit" xmlns="http://www.w3.org/2000/svg" viewBox="0 0 21 21" id="icon-ellipse">
    <path fill-rule="evenodd" clip-rule="evenodd" d="M2.14572 4.88055C0.95908 4.88055 -0.00016 3.92135 -0.00016 2.73502C-0.00016 1.54804 0.95908 0.589176 2.14572 0.589176C3.33258 0.589176 4.2917 1.54804 4.2917 2.73502C4.2917 3.92135 3.33258 4.88055 2.14572 4.88055ZM2.14572 12.7499C0.95908 12.7499 -0.00016 11.7897 -0.00016 10.603C-0.00016 9.41669 0.95908 8.45783 2.14572 8.45783C3.33258 8.45783 4.2917 9.41669 4.2917 10.603C4.2917 11.7897 3.33258 12.7499 2.14572 12.7499ZM-0.00016 18.472C-0.00016 19.659 0.95908 20.6179 2.14572 20.6179C3.33258 20.6179 4.2917 19.659 4.2917 18.472C4.2917 17.2854 3.33258 16.3262 2.14572 16.3262C0.95908 16.3262 -0.00016 17.2854 -0.00016 18.472ZM10.0143 4.88055C8.82758 4.88055 7.86834 3.92135 7.86834 2.73502C7.86834 1.54804 8.82758 0.589176 10.0143 0.589176C11.2011 0.589176 12.1602 1.54804 12.1602 2.73502C12.1602 3.92135 11.2011 4.88055 10.0143 4.88055ZM7.86834 10.603C7.86834 11.7897 8.82758 12.7499 10.0143 12.7499C11.2011 12.7499 12.1602 11.7897 12.1602 10.603C12.1602 9.41669 11.2011 8.45783 10.0143 8.45783C8.82758 8.45783 7.86834 9.41669 7.86834 10.603ZM10.0143 20.6179C8.82758 20.6179 7.86834 19.659 7.86834 18.472C7.86834 17.2854 8.82758 16.3262 10.0143 16.3262C11.2011 16.3262 12.1602 17.2854 12.1602 18.472C12.1602 19.659 11.2011 20.6179 10.0143 20.6179ZM15.7369 2.73502C15.7369 3.92135 16.6962 4.88055 17.8828 4.88055C19.0696 4.88055 20.0288 3.92135 20.0288 2.73502C20.0288 1.54804 19.0696 0.589176 17.8828 0.589176C16.6962 0.589176 15.7369 1.54804 15.7369 2.73502ZM17.8828 12.7499C16.6962 12.7499 15.7369 11.7897 15.7369 10.603C15.7369 9.41669 16.6962 8.45783 17.8828 8.45783C19.0696 8.45783 20.0288 9.41669 20.0288 10.603C20.0288 11.7897 19.0696 12.7499 17.8828 12.7499ZM15.7369 18.472C15.7369 19.659 16.6962 20.6179 17.8828 20.6179C19.0696 20.6179 20.0288 19.659 20.0288 18.472C20.0288 17.2854 19.0696 16.3262 17.8828 16.3262C16.6962 16.3262 15.7369 17.2854 15.7369 18.472Z" fill="inherit"></path>
  </symbol>
  <symbol fill="none" xmlns="http://www.w3.org/2000/svg" viewBox="0 0 19 17" id="icon-heart">
    <path fill-rule="evenodd" clip-rule="evenodd" d="M9.91293 16.2445C9.81771 16.2445 9.72239 16.2265 9.63347 16.1882C9.28007 16.0386 0.983098 12.4387 0.983098 5.42859C1.0743 2.7788 3.1901 0.721191 5.8006 0.721191C7.54412 0.721191 9.06675 1.63921 9.91293 3.0311C10.7596 1.63921 12.2823 0.721191 14.0251 0.721191C16.6345 0.721191 18.7503 2.7788 18.8421 5.40474C18.8421 12.4387 10.5451 16.0386 10.1929 16.1882C10.1034 16.2265 10.0081 16.2445 9.91293 16.2445ZM5.8006 2.10623C3.95432 2.10623 2.45755 3.5759 2.39279 5.45246C2.39324 10.8596 8.51766 14.1149 9.91293 14.7869C11.3082 14.1149 17.4331 10.8569 17.4331 5.42859C17.3676 3.5759 15.8701 2.10623 14.0251 2.10623C12.1801 2.10623 10.6829 3.5759 10.6173 5.45246C10.6048 5.82502 10.2925 6.12145 9.91293 6.12145C9.53252 6.12145 9.22101 5.82502 9.20831 5.45246C9.14354 3.5759 7.64664 2.10623 5.8006 2.10623Z" fill="#243F4D"></path>
  </symbol>
  <symbol fill="inherit" xmlns="http://www.w3.org/2000/svg" viewBox="0 0 16 17" id="icon-search">
    <path fill-rule="evenodd" clip-rule="evenodd" d="M3.70206 7.07582C4.05763 7.0108 4.38195 7.20656 4.44754 7.5605C4.54413 8.14189 4.8031 8.62688 5.22722 9.04946C5.64837 9.4377 6.1693 9.72693 6.72125 9.82629C7.04568 9.89165 7.27342 10.2155 7.20784 10.5695C7.14238 10.8927 6.84907 11.125 6.49362 11.0845C5.68258 10.9231 4.93723 10.5351 4.35083 9.95406C3.76752 9.37299 3.37763 8.62688 3.21546 7.81835C3.14989 7.46442 3.3433 7.14184 3.70206 7.07582ZM6.98022 0.996464C10.4455 0.996464 13.2589 3.79659 13.2589 7.25296C13.2589 8.1821 13.0561 9.06482 12.6912 9.85733L15.0274 11.8934C16.7304 13.6395 15.7728 15.1592 15.3206 15.6102C14.8994 16.0638 13.3275 17.0247 11.5901 15.3184L9.53157 12.9683C8.75178 13.3134 7.89094 13.5065 6.9832 13.5065C3.51483 13.5065 0.704624 10.7054 0.704624 7.2497C0.704624 3.79398 3.51174 0.996464 6.98022 0.996464ZM12.5259 14.5131C12.819 14.837 13.6519 15.3805 14.4066 14.7392C14.6157 14.5631 15.0398 13.6706 14.1789 12.8656L12.0175 10.9858C11.6337 11.4983 11.1753 11.9525 10.6545 12.3257L12.5259 14.5131ZM6.98022 12.2009C9.72189 12.2009 11.9457 9.98478 11.9457 7.25296C11.9457 4.52114 9.72189 2.30536 6.98022 2.30536C4.23845 2.30536 2.01464 4.52114 2.01464 7.25296C2.01464 9.98478 4.23536 12.2009 6.98022 12.2009Z" fill="inherit"></path>
  </symbol>
  <symbol fill="inherit" xmlns="http://www.w3.org/2000/svg" viewBox="0 0 22 10" id="icon-arrow">
    <path fill-rule="evenodd" clip-rule="evenodd" d="M0.2959 6.47195L0.287782 6.47163H17.244L17.1435 9.32928C17.0893 9.3832 17.0595 9.45641 17.0595 9.53419C17.0595 9.61099 17.0893 9.68485 17.1435 9.73878L17.3161 9.91133C17.3703 9.96721 17.4425 9.99728 17.5197 9.99728C17.5967 9.99728 17.6692 9.96721 17.7234 9.91296L21.9157 5.70166C21.9702 5.64709 21.9998 5.57388 21.9998 5.49609C21.9998 5.4193 21.9702 5.34577 21.9157 5.29282L17.7234 1.07988C17.6692 1.02661 17.5967 0.99622 17.5197 0.99622C17.4425 0.99622 17.3703 1.02661 17.3161 1.07988L17.1435 1.25342C17.0893 1.30865 17.0595 1.38022 17.0595 1.45703C17.0595 1.53448 17.0893 1.60311 17.1435 1.65834L17.2565 4.52253H0.291896C0.133166 4.52253 -0.000374 4.65848 -0.000374 4.81764V6.18764C-0.000374 6.34679 0.13706 6.47195 0.2959 6.47195Z" fill="inherit"></path>
  </symbol>
  <symbol fill="inherit" xmlns="http://www.w3.org/2000/svg" viewBox="0 0 22 18" id="icon-product-like">
    <path fill-rule="evenodd" clip-rule="evenodd" d="M21.9897 5.82017C21.9068 4.26879 21.2503 2.81252 20.1412 1.71967C19.0155 0.609804 17.5454 -0.001008 16.002 -0.001008C13.6907 -0.001008 12.0542 1.78405 11.1751 2.74356C11.125 2.79848 11.0713 2.85664 11.0187 2.91317C10.9906 2.8818 10.9627 2.84945 10.936 2.81939C10.1324 1.903 8.46008 -0.001008 5.9981 -0.001008C4.45463 -0.001008 2.98476 0.609804 1.859 1.71967C0.749848 2.81252 0.093412 4.26879 0.010428 5.82017C-0.071962 7.36142 0.31988 8.70037 1.28084 10.158C2.14201 11.4655 4.38482 13.5323 6.04364 14.9055C7.7486 16.3167 9.99427 17.9985 11.0095 17.9985C12.0408 17.9985 14.2785 16.3193 15.974 14.9118C17.6199 13.5447 19.8502 11.4796 20.7196 10.1576C21.3664 9.17392 22.0952 7.79152 21.9897 5.82017ZM19.6136 9.43015C18.982 10.391 17.2018 12.1659 15.1835 13.8477C12.777 15.8523 11.3522 16.6429 11.0106 16.6736C10.6693 16.6386 9.24112 15.8409 6.82288 13.8313C4.79281 12.1453 3.00993 10.3773 2.38612 9.4295C1.59097 8.22323 1.26597 7.13167 1.33223 5.89109C1.46692 3.37235 3.56017 1.32161 5.9981 1.32161C7.86073 1.32161 9.21413 2.86416 9.94127 3.69198C10.3687 4.17958 10.6042 4.44724 11.0002 4.44724C11.4089 4.44724 11.6724 4.16063 12.1509 3.63773C12.9447 2.77168 14.273 1.32161 16.002 1.32161C18.44 1.32161 20.5331 3.37235 20.6679 5.89109C20.735 7.14541 20.4197 8.20395 19.6136 9.43015Z" fill="inherit"></path>
  </symbol>
  <symbol fill="inherit" xmlns="http://www.w3.org/2000/svg" viewBox="0 0 20 21" id="icon-product-serch">
    <path fill-rule="evenodd" clip-rule="evenodd" d="M14.8618 13.209L19.4504 17.7981C20.1828 18.5305 20.1828 19.7184 19.4504 20.4482C18.7193 21.1809 17.5315 21.1809 16.799 20.4482L12.2105 15.8601C13.2737 15.1777 14.1782 14.2724 14.8618 13.209ZM7.4998 0.99764C11.6417 0.99764 14.9998 4.35728 14.9998 8.49864C14.9998 12.6403 11.6417 15.9987 7.4998 15.9987C3.35808 15.9987 -8e-05 12.6403 -8e-05 8.49864C-8e-05 4.35728 3.35808 0.99764 7.4998 0.99764ZM1.87492 8.49864C1.87492 11.6007 4.39812 14.1234 7.4998 14.1234C10.6016 14.1234 13.1248 11.6007 13.1248 8.49864C13.1248 5.39654 10.6016 2.87256 7.4998 2.87256C4.39812 2.87256 1.87492 5.39654 1.87492 8.49864ZM4.37488 8.49864H3.12484C3.12484 6.08676 5.08774 4.12328 7.4998 4.12328V5.37398C5.7769 5.37398 4.37488 6.77568 4.37488 8.49864Z" fill="inherit"></path>
  </symbol>
  <symbol fill="inherit" xmlns="http://www.w3.org/2000/svg" viewBox="0 0 22 21" id="icon-product-cart">
    <path fill-rule="evenodd" clip-rule="evenodd" d="M0.813714 2.62876H3.14681L6.47018 14.6666C6.56517 15.0202 6.89075 15.2643 7.25696 15.2643H17.4713C17.7969 15.2643 18.0817 15.0748 18.2173 14.7757L21.934 6.21552C22.0426 5.95702 22.0154 5.6727 21.8662 5.44032C21.7169 5.21058 21.4592 5.07398 21.188 5.07398H9.90216C9.45446 5.07398 9.08824 5.44032 9.08824 5.88904C9.08824 6.3384 9.45446 6.70542 9.90216 6.70542H19.9401L16.9287 13.6335H7.8674L4.54403 1.59636C4.44915 1.24308 4.12357 0.99796 3.75736 0.99796H0.813714C0.366124 0.99796 -0.000198 1.3653 -0.000198 1.81402C-0.000198 2.26176 0.366124 2.62876 0.813714 2.62876ZM6.4838 20.9986C7.50119 20.9986 8.32858 20.1694 8.32858 19.1504C8.32858 18.1311 7.50119 17.303 6.4838 17.303C5.46643 17.303 4.63901 18.1311 4.63901 19.1504C4.63901 20.1694 5.46643 20.9986 6.4838 20.9986ZM18.1495 20.9986H18.0138C17.0507 20.9986 16.2504 20.2377 16.1827 19.273C16.1148 18.2671 16.8745 17.3709 17.8919 17.303C18.9091 17.235 19.7909 18.0089 19.8586 19.0151C19.8859 19.5171 19.7366 19.9936 19.411 20.3596C19.0855 20.74 18.6379 20.9577 18.1495 20.9986Z" fill="inherit"></path>
  </symbol>
  <symbol xmlns="http://www.w3.org/2000/svg" viewBox="0 0 384 512" id="icon-wedge">
    <path d="M342.6 233.4c12.5 12.5 12.5 32.8 0 45.3l-192 192c-12.5 12.5-32.8 12.5-45.3 0s-12.5-32.8 0-45.3L274.7 256 105.4 86.6c-12.5-12.5-12.5-32.8 0-45.3s32.8-12.5 45.3 0l192 192z"></path>
  </symbol>
  <symbol fill="inherit" xmlns="http://www.w3.org/2000/svg" viewBox="0 0 20 20" id="icon-time">
    <path fill-rule="evenodd" clip-rule="evenodd" d="M17.8954 5.26146C17.4813 5.46162 17.3079 5.95982 17.5083 6.37466C18.0558 7.50558 18.3333 8.72428 18.3333 9.9994C18.3333 14.5939 14.5949 18.3323 9.99992 18.3323C5.405 18.3323 1.66668 14.5939 1.66668 9.9994C1.66668 5.40404 5.405 1.66612 9.99992 1.66612C11.9041 1.66612 13.6927 2.28756 15.1732 3.46318C15.5324 3.75034 16.0575 3.69034 16.3442 3.32948C16.6307 2.96942 16.5708 2.44504 16.2103 2.15908C14.4575 0.76598 12.252 -0.00126 9.99992 -0.00126C4.48626 -0.00126 -4e-05 4.48536 -4e-05 9.9994C-4e-05 15.5126 4.48626 19.9988 9.99992 19.9988C15.5137 19.9988 20 15.5126 20 9.9994C20 8.47096 19.6664 7.00738 19.0084 5.6485C18.8083 5.23366 18.3082 5.06088 17.8954 5.26146ZM9.99992 3.33188C9.53998 3.33188 9.16668 3.70564 9.16668 4.16558V9.9994C9.16668 10.4585 9.53998 10.8323 9.99992 10.8323H14.1666C14.6266 10.8323 15 10.4585 15 9.9994C15 9.53904 14.6266 9.1657 14.1666 9.1657H10.8333V4.16558C10.8333 3.70564 10.46 3.33188 9.99992 3.33188Z" fill="inherit"></path>
  </symbol>
  <symbol fill="inherit" xmlns="http://www.w3.org/2000/svg" viewBox="0 0 20 20" id="icon-user">
    <g clip-path="url(#clip0_0_1500)">
      <path fill-rule="evenodd" clip-rule="evenodd" d="M17.0709 12.9277C15.9818 11.8383 14.6854 11.0324 13.2709 10.5443C14.7858 9.50074 15.7811 7.75482 15.7811 5.78016C15.7811 2.592 13.1877 -0.0013 9.9998 -0.0013C6.81206 -0.0013 4.2186 2.592 4.2186 5.78016C4.2186 7.75482 5.2139 9.50074 6.72886 10.5443C5.31436 11.0324 4.01798 11.8383 2.92884 12.9277C1.04 14.8166 -0.00016 17.3278 -0.00016 19.9984H1.5623C1.5623 15.3462 5.34732 11.5616 9.9998 11.5616C14.6523 11.5616 18.4373 15.3462 18.4373 19.9984H19.9999C19.9999 17.3278 18.9596 14.8166 17.0709 12.9277ZM5.78106 5.78016C5.78106 3.45348 7.67368 1.56136 9.9998 1.56136C12.326 1.56136 14.2186 3.45348 14.2186 5.78016C14.2186 8.10642 12.326 9.99894 9.9998 9.99894C7.67368 9.99894 5.78106 8.10642 5.78106 5.78016Z" fill="inherit"></path>
    </g>
    <defs>
      <clipPath id="clip0_0_1500">
        <rect width="20" height="20" fill="white"></rect>
      </clipPath>
    </defs>
  </symbol>
</svg>
