<svg version="1.0" xmlns="http://www.w3.org/2000/svg" width="1088" height="1088" viewBox="0 0 816 816"><path d="M643.5 118.8c-20.3 8.1-37.9 15.2-39 15.7-1.1.4-2.4.9-3 1.1-.9.2-30.5 12.2-36.5 14.7-1.4.6-2.7 1.1-3 1.1-.6.2-51.2 20.2-55.5 22-1.6.7-6.1 2.5-10 4-3.8 1.5-8.3 3.4-10 4.1-1.6.8-11.8 4.8-22.5 9s-20.4 8-21.5 8.5c-1.1.5-6.5 2.7-12 4.9s-11.3 4.5-13 5.2c-1.6.7-5 2-7.5 2.9-5.3 2-59.1 23.5-63.5 25.4-3.5 1.5-59.8 24-60.5 24.2-.3 0-2.1.7-4 1.5-1.9.7-3.8 1.2-4.2 1.1-.5-.1-.8.3-.8.8 0 .6-.4 1-1 1-.5 0-13.5 5-28.7 11.1-15.3 6.1-28.2 11.2-28.8 11.4-.5.1-2.8 1-5 1.9-5.1 2.2-22.1 9-30.5 12.3-3.6 1.4-7.9 3.2-9.7 3.9-1.7.8-3.3 1.4-3.6 1.4-.2 0-2.2.8-4.3 1.7-2.2.9-4.1 1.7-4.4 1.8-1.7.5-6.8 2.7-8.2 3.5-1 .6-2.3 1-2.8 1-.6 0-3.2 1-5.8 2.1-2.5 1.2-5.1 2.2-5.7 2.4-.5.1-2.3.7-3.9 1.4-1.5.6-6.3 2.5-10.5 4.2-11.1 4.5-14 6.1-15.9 8.9-.9 1.4-10.3 20-20.9 41.5C76.6 397.9 67.5 416.2 67 417c-.6.8-1.4 2.5-2 3.8-3 6.9-28.6 57.8-29.2 58-.5.2-.8.9-.8 1.6 0 .7-7.9 17.2-17.6 36.7C.9 550.4-.2 552.8.4 556.8c1 7.6 7 11.8 19.6 13.7.8.1 2.6.5 4 .8 3.7.8 23.1 4.8 26 5.3 1.4.2 5.7 1.1 9.5 1.9 3.9.8 8.1 1.7 9.5 1.9 1.4.3 2.7.5 3 .6.3.1 1 .3 1.5.4.6.1 2.4.5 4 .9 1.7.4 4.4.9 6 1.1 1.7.2 4.8.9 7 1.5 2.2.5 5.6 1.3 7.5 1.6 1.9.3 4.2.8 5.1 1.1l4.5.9c1.6.2 6.3 1.1 10.4 2 4.1.9 8.9 1.9 10.5 2.2 1.7.3 13.6 2.7 26.5 5.3 13 2.7 24.7 5.1 26 5.4 1.4.2 7 1.4 12.5 2.6 5.5 1.2 11.3 2.3 12.9 2.5 1.5.3 3.6.7 4.6 1 1 .3 3.1.7 4.6 1 1.6.2 6.1 1.1 9.9 1.9 3.9.9 8.1 1.8 9.5 2 2 .4 15.1 3 25 5.1.8.2 7.4 1.5 14.5 2.9 7.2 1.5 14 2.9 15.3 3.1 1.2.3 3.2.7 4.5 1 2.2.5 26.5 5.4 30.2 6.1 1.9.3 11.8 2.4 14 2.9.6.1 2.8.5 5 1 6.6 1.3 7.8 1.5 13 2.6 2.8.6 6.4 1.3 8 1.5 1.7.3 3.7.7 4.5 1 .8.3 2.9.8 4.5 1.1 1.7.2 9.5 1.8 17.5 3.5 8 1.6 15.6 3.2 17 3.4 1.3.3 5.6 1.2 9.5 2.1 3.8.8 7.9 1.6 9 1.7 1.1.2 3.1.6 4.5.9 1.4.4 3.6.9 5 1.1 1.4.2 3.6.7 5 1 1.4.3 3.7.8 5.3 1 1.5.3 3.5.7 4.5 1 .9.3 3.4.7 5.6 1.1 2.1.3 4.1.7 4.5.9.3.2 2.2.7 4.1 1 1.9.3 4.6.8 6 1.1 1.4.2 7.2 1.4 13 2.5 8.8 1.8 12.8 2.7 16 3.5.5.1 5.4 1.1 9.5 1.9 1.1.2 5.6 1.2 10 2.1 4.4.9 9.5 1.8 11.4 2.1 1.8.2 3.6.6 4 .9.4.2 2.3.7 4.2 1 1.9.3 8.6 1.7 14.9 3 6.3 1.3 13.1 2.7 15 3 1.9.3 4.2.8 5 1 1.4.4 4 .9 9.5 2 5.3 1 8.2 1.6 10.5 2.1 3.4.8 5.9 1.3 9.5 2 1.7.3 8.4 1.6 15 3s12.9 2.7 14 2.9c2.2.3 62 12.5 73 14.9 3.9.8 8.4 1.7 10 2 1.6.3 5.1 1 7.9 1.6 2.8.6 6 1.2 7.1 1.4 1.1.3 5.4 1.1 9.5 2 4.1.8 8.6 1.7 10 2 1.4.2 8.1 1.6 15 3.1 16.2 3.4 21.2 3.9 25.6 2.5 3.5-1.2 9.3-6.3 9.5-8.4.6-5.5.4-8.6-1.2-17.2-1-5.4-2.1-11.9-2.4-14.4-.4-2.5-1.3-8.1-2-12.5-.8-4.4-1.7-9.4-2-11-.2-1.7-.7-3.9-.9-5-.2-1.1-.9-5.6-1.6-10-.7-4.4-1.4-8.9-1.6-10-1.3-6.2-2-11-3-18-.2-2.2-.7-4.7-1-5.6-.2-.9-.7-3.2-.9-5-.3-1.9-.7-4.5-1-5.9-.3-1.4-.8-4.1-1.1-6-.3-1.9-.7-4.6-1-6-.2-1.4-1.1-6.8-2-12-.8-5.2-1.7-10.6-2-12-.2-1.4-.7-4.1-1-6-1.3-7.7-3.3-19.7-3.9-22.5-.8-4.6-1.5-9.2-2.1-12.8-.2-1.7-1.5-9.7-2.9-17.7s-2.7-16.1-3-18c-.3-1.9-.7-4.4-1-5.6-.2-1.2-.7-3.9-1-6-.3-2.1-.8-5-1.1-6.4-.3-1.4-.8-4.1-1-6-.4-3.3-1.8-11.4-2.9-17-.3-1.4-.8-4.5-1.1-7-.3-2.5-.8-5.4-1.1-6.5-.4-2.1-1-5.9-1.7-11.2-.3-1.8-.7-3.6-.9-4-.3-.4-.8-3.5-1.2-6.8-.3-3.2-.8-6.2-1-6.5-.2-.3-.6-2.4-.9-4.6-.3-2.1-.8-5-1-6.4-.3-1.4-.7-4.1-1-6-.3-1.9-.9-6-1.5-9s-1.3-6.9-1.5-8.5c-.5-3.1-11.2-66.6-12.1-72-.3-1.7-.8-4.6-1.1-6.5-.9-5.1-1.2-7.1-1.8-11-.3-1.9-.8-4.6-1-6-.3-1.4-.7-4.1-1-6-.3-1.9-.8-4.9-1.2-6.5-.3-1.7-.7-3.9-.9-5-.1-1.1-1-6.5-2-12-.9-5.5-1.8-10.9-2-12-.1-1.1-.6-3.5-.9-5.3-.3-1.7-.8-4.4-1-6-1.3-8.1-1.9-11.9-2.2-13.7-.2-1.1-2.9-16.9-6-35-3-18.2-5.7-34.1-6-35.5-.2-1.4-.7-4.1-1-6-3.9-24.7-5.9-28-17.4-28.7-5.1-.3-8.2.8-42.5 14.5zm15.1 27.9c-.6 2.4-7.6 25.5-9.2 30.3-.3.8-.5 1.7-.6 2 0 .3-.6 2-1.3 3.7-.8 1.8-1.2 3.3-1 3.3.2 0-.3 1.7-1.1 3.7-.9 2-1.7 4.4-1.9 5.2-.2.9-2 6.8-4 13.1-2.1 6.3-3.8 11.9-4 12.5-.1.5-.5 1.7-.8 2.5-1.5 4-12.6 39.9-12.8 41.5 0 .5-.5 1.8-1.1 2.8-.5 1-1.1 2.6-1.3 3.5-.3 1.5-12.8 40.9-18.7 59.2-1.2 3.6-2.2 6.9-2.4 7.5-.4 1.8-18.4 59-19.1 60.5-.3.8-.7 2-.9 2.7-.8 3.9-7.7 24.3-8.3 24.4-.3.1-1.5.3-2.6.4-1.1.2-7.2 1.5-13.5 2.8-6.3 1.4-12.6 2.8-14 3.1-3.8.7-32.2 6.6-34.5 7.2-1.1.2-2.9.6-4 .8-1.1.2-7.6 1.6-14.5 3.1-13.5 2.8-15.8 3.3-19.2 3.9-1.3.3-4.6 1-7.4 1.6-2.8.6-6.2 1.2-7.6 1.4-1.3.1-2.8.5-3.3.8-.6.3-3.2.9-5.9 1.2-2.7.4-5.3.9-5.6 1.1-.4.2-2.2.7-4.1 1-1.9.3-4.1.8-4.9 1-.8.2-3.1.7-5 1-1.9.3-5.1 1-7 1.5-1.9.5-4.8 1.2-6.5 1.4-1.6.3-9.5 1.9-17.5 3.6-21 4.5-20.6 4.4-23.9 2.1-1.6-1.2-3.2-2.1-3.5-2.1-.3 0-2.8-1.4-5.6-3-2.8-1.7-7.9-4.5-11.3-6.4-7.2-3.9-8.7-4.7-30.7-17.1-9.1-5.1-18.2-10.1-20.2-11.1-2.1-1-3.8-2.1-3.8-2.6 0-.4-.9-.8-2-.8s-2-.4-2-.9-1-1.3-2.2-1.6c-1.1-.4-4.2-2-6.8-3.5-5-2.9-10-5.8-22.5-12.7-4.4-2.4-8.7-4.8-9.5-5.3-4.9-3-25.4-14-26.1-14-.5 0-.9-.5-.9-1 0-.6-.4-1-1-1-.5 0-4.8-2.3-9.6-5-4.8-2.8-8.9-5-9.1-5-.3 0-14.3-7.7-21.3-11.8-1.9-1.2-5.9-3.3-8.7-4.9-2.9-1.5-5.3-3.1-5.3-3.5 0-.4-.6-.8-1.4-.8-.8 0-3.3-1.1-5.6-2.4-5.2-2.9-6.7-2 19-12.1 10.7-4.2 20.4-8 21.5-8.5 5.6-2.5 17.1-7.2 18-7.4.6-.2 1.9-.7 3-1.1 16.8-7 69.3-27.5 70.2-27.5.7 0 1.3-.5 1.3-1 0-.6.7-1 1.6-1 .9 0 3-.7 4.7-1.4 1.8-.8 9.1-3.8 16.2-6.6 7.2-2.8 13.9-5.5 15-6 1.1-.5 11.2-4.6 22.5-9 11.3-4.5 21.9-8.8 23.7-9.6 1.7-.7 3.7-1.4 4.5-1.4.8 0 1.8-.4 2.4-.8.5-.5 11.5-5 24.4-10.1 12.9-5.1 24.9-9.9 26.5-10.6 1.7-.7 10.7-4.3 20-8 9.4-3.6 17.9-7 19-7.5 1.1-.5 6.1-2.5 11-4.5 5-2 9.9-4 11-4.4 3.3-1.5 54-21.6 54.5-21.6.3-.1 2.2-.9 4.4-1.8 2.1-.9 4.4-1.7 5-1.7.7 0 1.6-.4 2.1-.8.6-.5 3.7-1.9 7-3.2 3.3-1.3 6.4-2.7 7-3.2.5-.4 1.9-.8 3-.8 1.2 0 2.5-.3 2.9-.7.7-.8 75.4-31 77-31.2.4-.1.5 1.1.2 2.6zm22.2 44.1c-.1.9.7 6.2 1.7 11.7 1 5.5 1.9 11.1 2 12.5.2 1.4.4 2.5.5 2.5.3 0 .9 3.7 1.5 9 .3 2.7 1 6.6 1.5 8.5.5 1.9 1.2 5.5 1.5 8 .3 2.5.7 5.4.9 6.5.2 1.1.9 5.1 1.5 9 .7 3.8 1.3 7.9 1.5 9 .5 2.5 1.4 8 2.1 12 .3 1.6 2.1 12.4 4.1 24 2 11.5 3.7 21.9 3.8 23 .2 1.1.6 3.3.9 5 .3 1.6.9 4.8 1.2 7 .3 2.2 1.2 8 2.1 13 2 12.2 2.1 12.6 2.8 15.5.3 1.4.8 4.4 1 6.7.2 2.3.6 4.6.9 5 .3.4.8 3 1.1 5.8.3 2.7.8 6.1 1.1 7.5.3 1.4.7 4.1 1 6 .3 1.9.7 4.6 1 6 .3 1.4.7 3.9.9 5.5.3 1.7.7 4.2 1 5.5.3 1.4.8 4.1 1.1 6 .2 1.9.6 4.4.9 5.5.2 1.1.9 5.6 1.6 10 .7 4.4 1.4 8.9 1.6 10 .3 1.7 2.9 16.3 3.9 22.5 1 5.8 2.7 16.7 3.1 19.5.3 1.6.9 5 1.4 7.5.5 2.5 1.4 7.9 2.1 12 .6 4.1 1.3 8.4 1.6 9.5.2 1.1.6 3.5.8 5.2l2 12c.9 4.9 1.8 10 2.1 11.5.2 1.6.6 4.1.9 5.8.3 1.6.7 4.2.9 5.7.3 1.6.7 4.1 1 5.8.2 1.6 1.2 7.3 2.1 12.5 2 12.1 2.2 13.4 3.5 19.8.5 2.9.9 5.6.8 6-.1.4.2 1.8.5 3.2.4 1.4.8 3.8 1.1 5.5.4 3.1 1.2 7.9 2.2 13 .3 1.6.8 4.6 1.1 6.5.3 1.9 1.1 6.9 1.8 11l1.3 7.4-2.9-3.4c-1.6-1.9-2.9-4-2.9-4.7 0-.6-.4-1.3-.8-1.5-.5-.2-4.6-5.5-9.2-11.8-4.7-6.3-8.8-12-9.2-12.5-1.3-1.7-6.9-9.4-20.8-28.5-7.4-10.2-13.8-19-14.3-19.5-.4-.6-5.5-7.5-11.3-15.5-5.8-8-11.4-15.6-12.4-17-1-1.4-10.2-14-20.4-28s-18.9-26-19.3-26.5c-.5-.6-2.6-3.5-4.8-6.5-4.4-6.1-5.4-7.4-7.2-9.5-.7-.7-1.3-1.6-1.3-1.9 0-.4-14.4-20.3-16.8-23.2-2.7-3.1-3-5-1.5-8.4.8-1.9 1.6-4.3 1.8-5.2.2-1 3.3-10.9 6.9-22 7.9-24.9 17-53.6 20.3-64.3 1.3-4.4 3.2-10.5 4.3-13.5 2.4-7.2 8-25.3 8-26.2.1-.4.7-2.3 1.6-4.3.8-1.9 1.4-3.7 1.4-4 0-.3.2-1 .5-1.7.4-1.4 10-31.9 14-44.8 4-12.6 9.1-28.9 13-41 2.1-6.3 3.9-12.3 4.2-13.2.6-2.2 2.2-1.4 2.1 1zM133.9 366.6c2.5 1.4 7.4 4.1 11 6.1 3.7 2 10 5.5 14.1 7.8s10 5.6 13 7.3c3 1.6 12.7 7 21.5 11.9 17.4 9.8 21.9 12.3 31 17.3 3.3 1.8 8.9 4.9 12.5 7 3.6 2.1 9.2 5.2 12.5 7 16.1 8.9 38.2 21.1 39.5 22 .8.5 3.8 2.1 6.5 3.6 2.8 1.4 6.2 3.5 7.8 4.6 1.5 1.1 2.7 1.6 2.7 1.3 0-.3 1.2.2 2.8 1.3 1.5 1 5.9 3.6 9.7 5.6 6.5 3.5 11.3 7 9 6.5-.5-.1-1.2-.1-1.5.1-.3.1-1.5.3-2.7.6-1.3.2-3.3.6-4.5.8-1.3.3-2.5.5-2.8.6-.3.2-.8.2-1.2.1-.4 0-1.8.3-3.2.8-1.3.6-4.4 1.2-6.7 1.6-2.4.3-5.2.8-6.1 1.1-2.3.7-5.9 1.4-9 1.9-1.5.2-4.4.8-6.5 1.4-2.1.5-5.1 1.2-6.8 1.5-1.6.2-7.5 1.4-13 2.6-5.5 1.1-11.1 2.3-12.5 2.5-1.4.3-3.6.7-5 1.1-1.4.3-4.5 1-7 1.5s-5.4 1.1-6.5 1.4c-1.1.2-3.1.6-4.5.9-1.4.3-3.6.8-5 1.1-1.4.2-3.6.7-5 1-3.1.6-15.6 3.2-19 4-1.4.3-3.4.7-4.5.9-1.1.2-4 .9-6.5 1.4-2.5.6-6.2 1.3-8.4 1.6-2.1.4-4.2.8-4.6 1.1-.4.2-2.2.7-4.1.9-1.9.3-4.1.7-4.9.9-3.1.8-9.6 2.1-11.5 2.3-1.1.1-2 .3-2 .4 0 .2-1.6.5-6 1.4-1.6.3-3.9.8-5 1-3.6.8-26.9 5.7-29.5 6.2-1.4.3-3.5.7-4.8.9-1.2.2-3 .6-4 .9-.9.3-2.8.7-4.2 1-1.4.2-10.4 2-20 4s-18.6 3.9-20 4.1c-1.4.3-3.6.8-5 1.1-1.4.3-3.6.7-5 1-1.4.2-3.1.7-3.7.9-.7.2-1.3.2-1.3 0 0-.4 13.1-27.1 15-30.5 1.2-2.2 19.4-38.9 46.1-92.8C118 385.3 128.7 364 129 364c.3 0 2.5 1.2 4.9 2.6zm465.8 118.1c12.5 17.1 23.5 32.1 24.3 33.3.8 1.2 2.9 4.1 4.6 6.4 4.6 6.1 17.7 24 19.4 26.6.8 1.2 2.3 3.2 3.3 4.4 1.4 1.8 26.9 36.8 31.7 43.6.8 1.2 2.3 3.1 3.2 4.3.9 1.2 4 5.3 6.7 9.2 2.8 3.8 5.7 7.7 6.6 8.6.8.9 1.5 2.1 1.5 2.7 0 .7.4 1.2.8 1.2s1.6 1.3 2.5 3c1 1.6 2.3 3.5 3 4.2.7.7 2.3 3 3.7 5 1.4 2.1 2.8 3.8 3.3 3.8.4 0 .7.4.7 1 0 .5 2.6 4.4 5.8 8.7 3.2 4.3 6.9 9.4 8.2 11.3l2.5 3.5-2.7-1.8c-1.5-.9-3.4-1.7-4.2-1.7-.8 0-1.6-.4-1.8-.8-.1-.5-3.2-2.4-6.8-4.4-18-9.8-20.7-11.3-23.5-12.9-1.6-1-5.2-3-8-4.5-2.7-1.4-6.2-3.5-7.6-4.5-1.4-1-2.8-1.6-3.1-1.3-.3.2-1.1-.2-1.8-1.1-.7-.8-1.6-1.5-2-1.5-.5 0-3.7-1.6-7.2-3.6-7-4-13.9-7.8-22.5-12.5-3.2-1.8-6.2-3.5-6.8-3.9-.5-.4-3.9-2.3-7.5-4.2-12.6-6.8-18.5-10.1-19.5-10.8-.5-.4-5-2.9-10-5.5-4.9-2.7-10.6-5.8-12.5-6.9-1.9-1.2-4.8-2.8-6.5-3.6-1.6-.8-3.2-1.7-3.5-2-.3-.3-1.8-1.2-3.5-2-1.6-.8-4.1-2.2-5.5-3.1-1.4-.9-5.9-3.4-10-5.6-7.6-4.1-11.4-6.2-25-13.8-8.7-4.9-14.9-8.3-24-13.3-3.6-2-10.1-5.6-14.5-8.2-4.4-2.5-9.6-5.4-11.5-6.3-1.9-1-4.4-2.4-5.5-3-1.1-.7-5.6-3.2-10-5.6-4.4-2.4-9.6-5.3-11.5-6.4-1.9-1.1-5.7-3.2-8.5-4.7-23.7-12.9-34.1-19-32.2-19 .5 0 4-.7 8-1.5 9.8-1.9 9.9-2 29.2-6 9.4-2 24.7-5.2 34-7.1 9.4-2 17.7-3.7 18.5-3.9 4.3-1 20.9-4.4 23.5-4.8 1.7-.3 4.5-1 6.3-1.6 1.8-.5 3.5-1 3.7-1 .7.1 8.5-1.2 10.5-1.7 7.3-1.7 16.1-3.5 18.9-4 1.9-.3 4.2-.9 5.3-1.3 5.6-2 5.7-2 29.5 30.6zm-225.6 15.8c3.3 1.9 6.3 3.5 6.5 3.5.2 0 2.5 1.3 5.1 2.8 2.6 1.6 7.7 4.4 11.3 6.4 3.6 2 21.9 12.2 40.8 22.7s34.6 19.1 34.9 19.1c.2 0 1.7.8 3.1 1.9 1.5 1 6.8 4 11.7 6.6 5 2.7 9.2 5.2 9.3 5.7.2.4 1 .8 1.8.8s3.1 1.1 5.2 2.3c2 1.3 8.9 5.2 15.2 8.7 6.3 3.5 13.1 7.2 15 8.3 1.9 1.1 9.6 5.3 17 9.5 7.4 4.1 15.4 8.5 17.8 9.8 2.3 1.3 6.3 3.6 9 5 2.6 1.5 6.1 3.4 7.7 4.4 4.6 2.7 20 11.2 28.5 15.6 1.9 1.1 3.7 2.1 4 2.4.5.5 7 4.1 14.5 7.9 1.6.9 3.2 1.8 3.5 2.1.3.3 2.3 1.4 4.5 2.6 2.2 1.2 6 3.2 8.5 4.6 4.4 2.5 16.2 9.1 27 15.1 3 1.6 8.1 4.4 11.2 6.1 3.2 1.7 5.8 3.4 5.8 3.8 0 .4-.6.5-1.2.3-.7-.2-2.4-.6-3.8-.9-1.4-.3-6.9-1.4-12.4-2.5-5.4-1.2-10.8-2.3-12-2.5-1.1-.3-11.3-2.3-22.6-4.6s-23.6-4.8-27.5-5.6c-3.8-.8-8.1-1.7-9.5-2-1.4-.3-3.6-.7-5-1-1.4-.3-3.4-.7-4.5-.9-1.1-.2-3.3-.7-5-1-1.6-.3-4.1-.8-5.5-1.1-1.4-.3-3.6-.8-5-1-1.4-.3-5.6-1.2-9.5-2-10.7-2.2-30.7-6.3-33.8-6.8-1.5-.3-3.5-.7-4.5-1-1.9-.6-5.7-1.3-11.2-2.2-1.9-.3-4.4-.8-5.5-1.1-2.3-.8-2.7-.9-7.5-1.7-1.9-.3-5.7-1-8.5-1.6-2.7-.6-5.9-1.2-7-1.4-1.1-.2-6.3-1.3-11.5-2.4-5.2-1.2-10.6-2.3-12-2.6-1.4-.2-4.7-.9-7.5-1.5-8.7-1.8-15.6-3.1-19-3.7-1.1-.1-3.1-.6-4.5-.9-4.5-1-12.5-2.7-14.5-3-1.1-.2-2-.4-2-.5 0-.1-.9-.3-2-.4-1.1-.2-3.6-.6-5.5-1.1-1.9-.4-4.4-.9-5.5-1.1-1.1-.1-6-1.2-11-2.3-4.9-1.1-10.6-2.2-12.6-2.5-2-.3-4.2-.8-5-1-.8-.3-2.5-.7-3.9-1-6.6-1.1-15.7-2.9-17-3.4-1.5-.5-3.2-.8-8-1.6-1.4-.2-3.6-.6-5-1-1.4-.3-3.6-.8-5-1-1.4-.3-5.8-1.2-9.8-2-4-.9-8.7-1.8-10.5-2-1.8-.2-3.9-.7-4.7-1-.8-.3-2.6-.8-4-1-1.4-.3-3.6-.8-5-1.1-1.4-.3-3.8-.7-5.5-1-1.6-.2-7.1-1.3-12.2-2.5-5.1-1.1-10.9-2.2-13-2.5-2.1-.3-4.5-.8-5.3-1.1-.8-.3-2.6-.8-4-1-2.2-.4-33.9-6.8-39.5-8-1.1-.2-3.1-.7-4.5-.9-1.4-.3-4.7-1-7.5-1.5-6.6-1.2-9.5-1.8-18-3.6-3.8-.9-7.7-1.7-8.5-1.9-2.5-.5-9.9-1.7-10.5-1.6-.2 0-1.9-.5-3.7-1-2.9-.9-14.7-3.4-20.3-4.4-1.1-.2-4.2-.8-7-1.4-7.4-1.6-9.1-1.9-20-4.1-5.5-1.1-11.1-2.3-12.5-2.5-5.9-1.3-17.7-3.7-20-4.1-1.4-.3-3.4-.5-4.5-.5l-2-.1 2-.9c1.8-.8 34.6-7.9 43.4-9.4 1.9-.3 3.7-.8 4-1 .4-.2 2.5-.6 4.7-.9 2.2-.4 4.9-.8 5.9-1.1 1.1-.3 6.3-1.4 11.5-2.5s10.5-2.2 11.8-2.5c1.2-.3 3.4-.7 5-1 2.3-.4 8.9-1.8 19.2-4.1 2.6-.5 6.1-1.2 9.5-1.9 1.1-.2 8.5-1.7 16.5-3.4 8-1.6 16-3.3 17.9-3.6 1.9-.3 3.8-.8 4.3-1.1.5-.3 1.9-.7 3.1-.9 6.2-.8 11.2-1.7 13.4-2.6 1.4-.5 2.8-.7 3-.5.3.3 1.5.1 2.7-.4 1.3-.4 3.9-1.1 5.9-1.4 2-.3 5.8-1.1 8.4-1.7 2.7-.6 5.7-1.3 6.8-1.5 1.1-.2 3.1-.7 4.5-1 1.4-.2 3.6-.7 5-1 1.4-.2 5.7-1.1 9.5-2 3.9-.8 8.1-1.7 9.5-2 1.4-.3 5.9-1.2 10-2 4.1-.9 8.4-1.7 9.5-1.9 1.1-.1 3.8-.7 6-1.3 2.2-.6 5.7-1.3 7.7-1.6 5.1-.8 11.9-2.3 12.4-2.8.2-.3 2-.5 3.9-.6 2.2-.1 5.5 1 9.6 3.3z"/></svg>