<?xml version="1.0" standalone="no"?>
<!DOCTYPE svg PUBLIC "-//W3C//DTD SVG 20010904//EN"
 "http://www.w3.org/TR/2001/REC-SVG-20010904/DTD/svg10.dtd">
<svg version="1.0" xmlns="http://www.w3.org/2000/svg"
 width="816.000000pt" height="816.000000pt" viewBox="0 0 816.000000 816.000000"
 preserveAspectRatio="xMidYMid meet">
<metadata>
Created by potrace 1.14, written by Peter Selinger 2001-2017
</metadata>
<g transform="translate(0.000000,816.000000) scale(0.100000,-0.100000)"
fill="#000000" stroke="none">
<path d="M6435 6972 c-203 -81 -379 -152 -390 -157 -11 -4 -24 -9 -30 -11 -9
-2 -305 -122 -365 -147 -14 -6 -27 -11 -30 -11 -6 -2 -512 -202 -555 -220 -16
-7 -61 -25 -100 -40 -38 -15 -83 -34 -100 -41 -16 -8 -118 -48 -225 -90 -107
-42 -204 -80 -215 -85 -11 -5 -65 -27 -120 -49 -55 -22 -113 -45 -130 -52 -16
-7 -50 -20 -75 -29 -53 -20 -591 -235 -635 -254 -35 -15 -598 -240 -605 -242
-3 0 -21 -7 -40 -15 -19 -7 -38 -12 -42 -11 -5 1 -8 -3 -8 -8 0 -6 -4 -10 -10
-10 -5 0 -135 -50 -287 -111 -153 -61 -282 -112 -288 -114 -5 -1 -28 -10 -50
-19 -51 -22 -221 -90 -305 -123 -36 -14 -79 -32 -97 -39 -17 -8 -33 -14 -36
-14 -2 0 -22 -8 -43 -17 -22 -9 -41 -17 -44 -18 -17 -5 -68 -27 -82 -35 -10
-6 -23 -10 -28 -10 -6 0 -32 -10 -58 -21 -25 -12 -51 -22 -57 -24 -5 -1 -23
-7 -39 -14 -15 -6 -63 -25 -105 -42 -111 -45 -140 -61 -159 -89 -9 -14 -103
-200 -209 -415 -107 -214 -198 -397 -203 -405 -6 -8 -14 -25 -20 -38 -30 -69
-286 -578 -292 -580 -5 -2 -8 -9 -8 -16 0 -7 -79 -172 -176 -367 -165 -333
-176 -357 -170 -397 10 -76 70 -118 196 -137 8 -1 26 -5 40 -8 37 -8 231 -48
260 -53 14 -2 57 -11 95 -19 39 -8 81 -17 95 -19 14 -3 27 -5 30 -6 3 -1 10
-3 15 -4 6 -1 24 -5 40 -9 17 -4 44 -9 60 -11 17 -2 48 -9 70 -15 22 -5 56
-13 75 -16 19 -3 42 -8 51 -11 10 -2 30 -6 45 -9 16 -2 63 -11 104 -20 41 -9
89 -19 105 -22 17 -3 136 -27 265 -53 130 -27 247 -51 260 -54 14 -2 70 -14
125 -26 55 -12 113 -23 129 -25 15 -3 36 -7 46 -10 10 -3 31 -7 46 -10 16 -2
61 -11 99 -19 39 -9 81 -18 95 -20 20 -4 151 -30 250 -51 8 -2 74 -15 145 -29
72 -15 140 -29 153 -31 12 -3 32 -7 45 -10 22 -5 265 -54 302 -61 19 -3 118
-24 140 -29 6 -1 28 -5 50 -10 66 -13 78 -15 130 -26 28 -6 64 -13 80 -15 17
-3 37 -7 45 -10 8 -3 29 -8 45 -11 17 -2 95 -18 175 -35 80 -16 156 -32 170
-34 13 -3 56 -12 95 -21 38 -8 79 -16 90 -17 11 -2 31 -6 45 -9 14 -4 36 -9
50 -11 14 -2 36 -7 50 -10 14 -3 37 -8 53 -10 15 -3 35 -7 45 -10 9 -3 34 -7
56 -11 21 -3 41 -7 45 -9 3 -2 22 -7 41 -10 19 -3 46 -8 60 -11 14 -2 72 -14
130 -25 88 -18 128 -27 160 -35 5 -1 54 -11 95 -19 11 -2 56 -12 100 -21 44
-9 95 -18 114 -21 18 -2 36 -6 40 -9 4 -2 23 -7 42 -10 19 -3 86 -17 149 -30
63 -13 131 -27 150 -30 19 -3 42 -8 50 -10 14 -4 40 -9 95 -20 53 -10 82 -16
105 -21 34 -8 59 -13 95 -20 17 -3 84 -16 150 -30 66 -14 129 -27 140 -29 22
-3 620 -125 730 -149 39 -8 84 -17 100 -20 16 -3 51 -10 79 -16 28 -6 60 -12
71 -14 11 -3 54 -11 95 -20 41 -8 86 -17 100 -20 14 -2 81 -16 150 -31 162
-34 212 -39 256 -25 35 12 93 63 95 84 6 55 4 86 -12 172 -10 54 -21 119 -24
144 -4 25 -13 81 -20 125 -8 44 -17 94 -20 110 -2 17 -7 39 -9 50 -2 11 -9 56
-16 100 -7 44 -14 89 -16 100 -13 62 -20 110 -30 180 -2 22 -7 47 -10 56 -2 9
-7 32 -9 50 -3 19 -7 45 -10 59 -3 14 -8 41 -11 60 -3 19 -7 46 -10 60 -2 14
-11 68 -20 120 -8 52 -17 106 -20 120 -2 14 -7 41 -10 60 -13 77 -33 197 -39
225 -8 46 -15 92 -21 128 -2 17 -15 97 -29 177 -14 80 -27 161 -30 180 -3 19
-7 44 -10 56 -2 12 -7 39 -10 60 -3 21 -8 50 -11 64 -3 14 -8 41 -10 60 -4 33
-18 114 -29 170 -3 14 -8 45 -11 70 -3 25 -8 54 -11 65 -4 21 -10 59 -17 112
-3 18 -7 36 -9 40 -3 4 -8 35 -12 68 -3 32 -8 62 -10 65 -2 3 -6 24 -9 46 -3
21 -8 50 -10 64 -3 14 -7 41 -10 60 -3 19 -9 60 -15 90 -6 30 -13 69 -15 85
-5 31 -112 666 -121 720 -3 17 -8 46 -11 65 -9 51 -12 71 -18 110 -3 19 -8 46
-10 60 -3 14 -7 41 -10 60 -3 19 -8 49 -12 65 -3 17 -7 39 -9 50 -1 11 -10 65
-20 120 -9 55 -18 109 -20 120 -1 11 -6 35 -9 53 -3 17 -8 44 -10 60 -13 81
-19 119 -22 137 -2 11 -29 169 -60 350 -30 182 -57 341 -60 355 -2 14 -7 41
-10 60 -39 247 -59 280 -174 287 -51 3 -82 -8 -425 -145z m151 -279 c-6 -24
-76 -255 -92 -303 -3 -8 -5 -17 -6 -20 0 -3 -6 -20 -13 -37 -8 -18 -12 -33
-10 -33 2 0 -3 -17 -11 -37 -9 -20 -17 -44 -19 -52 -2 -9 -20 -68 -40 -131
-21 -63 -38 -119 -40 -125 -1 -5 -5 -17 -8 -25 -15 -40 -126 -399 -128 -415 0
-5 -5 -18 -11 -28 -5 -10 -11 -26 -13 -35 -3 -15 -128 -409 -187 -592 -12 -36
-22 -69 -24 -75 -4 -18 -184 -590 -191 -605 -3 -8 -7 -20 -9 -27 -8 -39 -77
-243 -83 -244 -3 -1 -15 -3 -26 -4 -11 -2 -72 -15 -135 -28 -63 -14 -126 -28
-140 -31 -38 -7 -322 -66 -345 -72 -11 -2 -29 -6 -40 -8 -11 -2 -76 -16 -145
-31 -135 -28 -158 -33 -192 -39 -13 -3 -46 -10 -74 -16 -28 -6 -62 -12 -76
-14 -13 -1 -28 -5 -33 -8 -6 -3 -32 -9 -59 -12 -27 -4 -53 -9 -56 -11 -4 -2
-22 -7 -41 -10 -19 -3 -41 -8 -49 -10 -8 -2 -31 -7 -50 -10 -19 -3 -51 -10
-70 -15 -19 -5 -48 -12 -65 -14 -16 -3 -95 -19 -175 -36 -210 -45 -206 -44
-239 -21 -16 12 -32 21 -35 21 -3 0 -28 14 -56 30 -28 17 -79 45 -113 64 -72
39 -87 47 -307 171 -91 51 -182 101 -202 111 -21 10 -38 21 -38 26 0 4 -9 8
-20 8 -11 0 -20 4 -20 9 0 5 -10 13 -22 16 -11 4 -42 20 -68 35 -50 29 -100
58 -225 127 -44 24 -87 48 -95 53 -49 30 -254 140 -261 140 -5 0 -9 5 -9 10 0
6 -4 10 -10 10 -5 0 -48 23 -96 50 -48 28 -89 50 -91 50 -3 0 -143 77 -213
118 -19 12 -59 33 -87 49 -29 15 -53 31 -53 35 0 4 -6 8 -14 8 -8 0 -33 11
-56 24 -52 29 -67 20 190 121 107 42 204 80 215 85 56 25 171 72 180 74 6 2
19 7 30 11 168 70 693 275 702 275 7 0 13 5 13 10 0 6 7 10 16 10 9 0 30 7 47
14 18 8 91 38 162 66 72 28 139 55 150 60 11 5 112 46 225 90 113 45 219 88
237 96 17 7 37 14 45 14 8 0 18 4 24 8 5 5 115 50 244 101 129 51 249 99 265
106 17 7 107 43 200 80 94 36 179 70 190 75 11 5 61 25 110 45 50 20 99 40
110 44 33 15 540 216 545 216 3 1 22 9 44 18 21 9 44 17 50 17 7 0 16 4 21 8
6 5 37 19 70 32 33 13 64 27 70 32 5 4 19 8 30 8 12 0 25 3 29 7 7 8 754 310
770 312 4 1 5 -11 2 -26z m222 -441 c-1 -9 7 -62 17 -117 10 -55 19 -111 20
-125 2 -14 4 -25 5 -25 3 0 9 -37 15 -90 3 -27 10 -66 15 -85 5 -19 12 -55 15
-80 3 -25 7 -54 9 -65 2 -11 9 -51 15 -90 7 -38 13 -79 15 -90 5 -25 14 -80
21 -120 3 -16 21 -124 41 -240 20 -115 37 -219 38 -230 2 -11 6 -33 9 -50 3
-16 9 -48 12 -70 3 -22 12 -80 21 -130 20 -122 21 -126 28 -155 3 -14 8 -44
10 -67 2 -23 6 -46 9 -50 3 -4 8 -30 11 -58 3 -27 8 -61 11 -75 3 -14 7 -41
10 -60 3 -19 7 -46 10 -60 3 -14 7 -39 9 -55 3 -17 7 -42 10 -55 3 -14 8 -41
11 -60 2 -19 6 -44 9 -55 2 -11 9 -56 16 -100 7 -44 14 -89 16 -100 3 -17 29
-163 39 -225 10 -58 27 -167 31 -195 3 -16 9 -50 14 -75 5 -25 14 -79 21 -120
6 -41 13 -84 16 -95 2 -11 6 -35 8 -52 3 -18 12 -72 20 -120 9 -49 18 -100 21
-115 2 -16 6 -41 9 -58 3 -16 7 -42 9 -57 3 -16 7 -41 10 -58 2 -16 12 -73 21
-125 20 -121 22 -134 35 -198 5 -29 9 -56 8 -60 -1 -4 2 -18 5 -32 4 -14 8
-38 11 -55 4 -31 12 -79 22 -130 3 -16 8 -46 11 -65 3 -19 11 -69 18 -110 l13
-74 -29 34 c-16 19 -29 40 -29 47 0 6 -4 13 -8 15 -5 2 -46 55 -92 118 -47 63
-88 120 -92 125 -13 17 -69 94 -208 285 -74 102 -138 190 -143 195 -4 6 -55
75 -113 155 -58 80 -114 156 -124 170 -10 14 -102 140 -204 280 -102 140 -189
260 -193 265 -5 6 -26 35 -48 65 -44 61 -54 74 -72 95 -7 7 -13 16 -13 19 0 4
-144 203 -168 232 -27 31 -30 50 -15 84 8 19 16 43 18 52 2 10 33 109 69 220
79 249 170 536 203 643 13 44 32 105 43 135 24 72 80 253 80 262 1 4 7 23 16
43 8 19 14 37 14 40 0 3 2 10 5 17 4 14 100 319 140 448 40 126 91 289 130
410 21 63 39 123 42 132 6 22 22 14 21 -10z m-5469 -1758 c25 -14 74 -41 110
-61 37 -20 100 -55 141 -78 41 -23 100 -56 130 -73 30 -16 127 -70 215 -119
174 -98 219 -123 310 -173 33 -18 89 -49 125 -70 36 -21 92 -52 125 -70 161
-89 382 -211 395 -220 8 -5 38 -21 65 -36 28 -14 62 -35 78 -46 15 -11 27 -16
27 -13 0 3 12 -2 28 -13 15 -10 59 -36 97 -56 65 -35 113 -70 90 -65 -5 1 -12
1 -15 -1 -3 -1 -15 -3 -27 -6 -13 -2 -33 -6 -45 -8 -13 -3 -25 -5 -28 -6 -3
-2 -8 -2 -12 -1 -4 0 -18 -3 -32 -8 -13 -6 -44 -12 -67 -16 -24 -3 -52 -8 -61
-11 -23 -7 -59 -14 -90 -19 -15 -2 -44 -8 -65 -14 -21 -5 -51 -12 -68 -15 -16
-2 -75 -14 -130 -26 -55 -11 -111 -23 -125 -25 -14 -3 -36 -7 -50 -11 -14 -3
-45 -10 -70 -15 -25 -5 -54 -11 -65 -14 -11 -2 -31 -6 -45 -9 -14 -3 -36 -8
-50 -11 -14 -2 -36 -7 -50 -10 -31 -6 -156 -32 -190 -40 -14 -3 -34 -7 -45 -9
-11 -2 -40 -9 -65 -14 -25 -6 -62 -13 -84 -16 -21 -4 -42 -8 -46 -11 -4 -2
-22 -7 -41 -9 -19 -3 -41 -7 -49 -9 -31 -8 -96 -21 -115 -23 -11 -1 -20 -3
-20 -4 0 -2 -16 -5 -60 -14 -16 -3 -39 -8 -50 -10 -36 -8 -269 -57 -295 -62
-14 -3 -35 -7 -48 -9 -12 -2 -30 -6 -40 -9 -9 -3 -28 -7 -42 -10 -14 -2 -104
-20 -200 -40 -96 -20 -186 -39 -200 -41 -14 -3 -36 -8 -50 -11 -14 -3 -36 -7
-50 -10 -14 -2 -31 -7 -37 -9 -7 -2 -13 -2 -13 0 0 4 131 271 150 305 12 22
194 389 461 928 129 259 236 472 239 472 3 0 25 -12 49 -26z m4658 -1181 c125
-171 235 -321 243 -333 8 -12 29 -41 46 -64 46 -61 177 -240 194 -266 8 -12
23 -32 33 -44 14 -18 269 -368 317 -436 8 -12 23 -31 32 -43 9 -12 40 -53 67
-92 28 -38 57 -77 66 -86 8 -9 15 -21 15 -27 0 -7 4 -12 8 -12 4 0 16 -13 25
-30 10 -16 23 -35 30 -42 7 -7 23 -30 37 -50 14 -21 28 -38 33 -38 4 0 7 -4 7
-10 0 -5 26 -44 58 -87 32 -43 69 -94 82 -113 l25 -35 -27 18 c-15 9 -34 17
-42 17 -8 0 -16 4 -18 8 -1 5 -32 24 -68 44 -180 98 -207 113 -235 129 -16 10
-52 30 -80 45 -27 14 -62 35 -76 45 -14 10 -28 16 -31 13 -3 -2 -11 2 -18 11
-7 8 -16 15 -20 15 -5 0 -37 16 -72 36 -70 40 -139 78 -225 125 -32 18 -62 35
-68 39 -5 4 -39 23 -75 42 -126 68 -185 101 -195 108 -5 4 -50 29 -100 55 -49
27 -106 58 -125 69 -19 12 -48 28 -65 36 -16 8 -32 17 -35 20 -3 3 -18 12 -35
20 -16 8 -41 22 -55 31 -14 9 -59 34 -100 56 -76 41 -114 62 -250 138 -87 49
-149 83 -240 133 -36 20 -101 56 -145 82 -44 25 -96 54 -115 63 -19 10 -44 24
-55 30 -11 7 -56 32 -100 56 -44 24 -96 53 -115 64 -19 11 -57 32 -85 47 -237
129 -341 190 -322 190 5 0 40 7 80 15 98 19 99 20 292 60 94 20 247 52 340 71
94 20 177 37 185 39 43 10 209 44 235 48 17 3 45 10 63 16 18 5 35 10 37 10 7
-1 85 12 105 17 73 17 161 35 189 40 19 3 42 9 53 13 56 20 57 20 295 -306z
m-2256 -158 c33 -19 63 -35 65 -35 2 0 25 -13 51 -28 26 -16 77 -44 113 -64
36 -20 219 -122 408 -227 189 -105 346 -191 349 -191 2 0 17 -8 31 -19 15 -10
68 -40 117 -66 50 -27 92 -52 93 -57 2 -4 10 -8 18 -8 8 0 31 -11 52 -23 20
-13 89 -52 152 -87 63 -35 131 -72 150 -83 19 -11 96 -53 170 -95 74 -41 154
-85 178 -98 23 -13 63 -36 90 -50 26 -15 61 -34 77 -44 46 -27 200 -112 285
-156 19 -11 37 -21 40 -24 5 -5 70 -41 145 -79 16 -9 32 -18 35 -21 3 -3 23
-14 45 -26 22 -12 60 -32 85 -46 44 -25 162 -91 270 -151 30 -16 81 -44 112
-61 32 -17 58 -34 58 -38 0 -4 -6 -5 -12 -3 -7 2 -24 6 -38 9 -14 3 -69 14
-124 25 -54 12 -108 23 -120 25 -11 3 -113 23 -226 46 -113 23 -236 48 -275
56 -38 8 -81 17 -95 20 -14 3 -36 7 -50 10 -14 3 -34 7 -45 9 -11 2 -33 7 -50
10 -16 3 -41 8 -55 11 -14 3 -36 8 -50 10 -14 3 -56 12 -95 20 -107 22 -307
63 -338 68 -15 3 -35 7 -45 10 -19 6 -57 13 -112 22 -19 3 -44 8 -55 11 -23 8
-27 9 -75 17 -19 3 -57 10 -85 16 -27 6 -59 12 -70 14 -11 2 -63 13 -115 24
-52 12 -106 23 -120 26 -14 2 -47 9 -75 15 -87 18 -156 31 -190 37 -11 1 -31
6 -45 9 -45 10 -125 27 -145 30 -11 2 -20 4 -20 5 0 1 -9 3 -20 4 -11 2 -36 6
-55 11 -19 4 -44 9 -55 11 -11 1 -60 12 -110 23 -49 11 -106 22 -126 25 -20 3
-42 8 -50 10 -8 3 -25 7 -39 10 -66 11 -157 29 -170 34 -15 5 -32 8 -80 16
-14 2 -36 6 -50 10 -14 3 -36 8 -50 10 -14 3 -58 12 -98 20 -40 9 -87 18 -105
20 -18 2 -39 7 -47 10 -8 3 -26 8 -40 10 -14 3 -36 8 -50 11 -14 3 -38 7 -55
10 -16 2 -71 13 -122 25 -51 11 -109 22 -130 25 -21 3 -45 8 -53 11 -8 3 -26
8 -40 10 -22 4 -339 68 -395 80 -11 2 -31 7 -45 9 -14 3 -47 10 -75 15 -66 12
-95 18 -180 36 -38 9 -77 17 -85 19 -25 5 -99 17 -105 16 -2 0 -19 5 -37 10
-29 9 -147 34 -203 44 -11 2 -42 8 -70 14 -74 16 -91 19 -200 41 -55 11 -111
23 -125 25 -59 13 -177 37 -200 41 -14 3 -34 5 -45 5 l-20 1 20 9 c18 8 346
79 434 94 19 3 37 8 40 10 4 2 25 6 47 9 22 4 49 8 59 11 11 3 63 14 115 25
52 11 105 22 118 25 12 3 34 7 50 10 23 4 89 18 192 41 26 5 61 12 95 19 11 2
85 17 165 34 80 16 160 33 179 36 19 3 38 8 43 11 5 3 19 7 31 9 62 8 112 17
134 26 14 5 28 7 30 5 3 -3 15 -1 27 4 13 4 39 11 59 14 20 3 58 11 84 17 27
6 57 13 68 15 11 2 31 7 45 10 14 2 36 7 50 10 14 2 57 11 95 20 39 8 81 17
95 20 14 3 59 12 100 20 41 9 84 17 95 19 11 1 38 7 60 13 22 6 57 13 77 16
51 8 119 23 124 28 2 3 20 5 39 6 22 1 55 -10 96 -33z"/>
</g>
</svg>
